<?xml version="1.0" encoding="UTF-8" standalone="no"?>
<!DOCTYPE svg PUBLIC "-//W3C//DTD SVG 1.1//EN" "http://www.w3.org/Graphics/SVG/1.1/DTD/svg11.dtd">
<svg width="100%" height="100%" viewBox="0 0 6202 4130" version="1.1" xmlns="http://www.w3.org/2000/svg" xmlns:xlink="http://www.w3.org/1999/xlink" xml:space="preserve" xmlns:serif="http://www.serif.com/" style="fill-rule:evenodd;clip-rule:evenodd;stroke-linejoin:round;stroke-miterlimit:2;">
    <g transform="matrix(1,0,0,1,8197.736162,-33262.809228)">
        <g transform="matrix(8.333333,0,0,8.333333,-2291.867829,36089.305061)">
            <path d="M0,-182.418L-76.197,-182.418C-104.114,-182.418 -126.745,-205.049 -126.745,-232.966L-126.745,-303.387C-126.745,-322.95 -142.603,-338.808 -162.166,-338.808L-615.97,-338.808L-615.975,-267.149C-616.511,-261.854 -620.559,-257.714 -625.81,-256.964L-696.706,-256.964L-696.706,118.421C-696.706,139.391 -679.707,156.39 -658.737,156.39L0,156.39C19.562,156.39 35.421,140.531 35.421,120.969L35.421,-146.997C35.421,-166.56 19.562,-182.418 0,-182.418" style="fill:rgb(14,104,91);fill-rule:nonzero;"/>
        </g>
        <g transform="matrix(8.333333,0,0,8.333333,-7735.111162,33262.809228)">
            <path d="M0,71.429L-33.15,71.429C-45.451,71.429 -55.515,61.365 -55.515,49.064L-55.515,22.365C-55.515,10.064 -45.451,0 -33.15,0L0,0C12.301,0 22.365,10.064 22.365,22.365L22.365,49.064C22.365,61.365 12.301,71.429 0,71.429" style="fill:rgb(255,212,32);fill-rule:nonzero;"/>
        </g>
        <g transform="matrix(8.333333,0,0,8.333333,-11472.199495,-450.354939)">
            <text x="412.811px" y="4088.809px" style="font-family:'Nexa-Light', 'Nexa';font-weight:300;font-size:27.177px;">0<tspan x="432.107px " y="4088.809px ">6</tspan></text>
        </g>
    </g>
</svg>
