<?xml version="1.0" encoding="UTF-8"?>
<svg id="Layer_2" data-name="Layer 2" xmlns="http://www.w3.org/2000/svg" viewBox="0 0 69.41 70.18">
  <defs>
    <style>
      .cls-1 {
        fill: #ffd420;
      }
    </style>
  </defs>
  <g id="Layer_1-2" data-name="Layer 1">
    <g id="_5wBpzR" data-name="5wBpzR">
      <path class="cls-1" d="M69.41,6.85v56.48c-.24,1.15-.53,2.22-1.15,3.22-.96,1.55-2.54,2.79-4.29,3.3-.44.13-.9.19-1.34.32H6.78c-3.62-.52-6.41-3.37-6.78-7.02V7.09C.37,3.38,3.26.34,7.02,0h55.45c3.49.28,6.6,3.38,6.95,6.85ZM17.86,21.79c6.83-2.94,4.29-12.68-2.9-11.95-2.28.23-4.4,2.15-5.04,4.32-1.41,4.79,3.31,9.63,7.94,7.64ZM37.49,31.19v-4.54h-9.83v33.77h9.83v-18c.08-3.74,1.7-7.02,5.8-7.29,4.3-.28,6,2.74,6.2,6.61v18.68s10.23,0,10.23,0v-22.88c-.36-6.02-3.65-10.89-9.87-11.75-4.46-.62-8.55.66-11.41,4.16-.33.41-.59.89-.95,1.25ZM20.95,26.65h-10.3v33.77h10.3V26.65Z"/>
    </g>
  </g>
</svg>