<?xml version="1.0" encoding="UTF-8"?>
<svg xmlns="http://www.w3.org/2000/svg" xmlns:xlink="http://www.w3.org/1999/xlink" viewBox="0 0 509.18 240.02">
  <defs>
    <style>
      .cls-1 {
        fill: #fdd221;
      }

      .cls-2 {
        stroke: #fdd221;
        stroke-width: .92px;
      }

      .cls-2, .cls-3 {
        fill: none;
        stroke-miterlimit: 10;
      }

      .cls-4 {
        isolation: isolate;
      }

      .cls-5 {
        fill: #0f685b;
      }

      .cls-3 {
        mix-blend-mode: overlay;
        stroke: url(#linear-gradient);
        stroke-width: 1.83px;
      }
    </style>
    <linearGradient id="linear-gradient" x1="25.46" y1="116.35" x2="476.39" y2="116.35" gradientUnits="userSpaceOnUse">
      <stop offset="0" stop-color="#d5eabc"/>
      <stop offset=".34" stop-color="#03c2b9"/>
      <stop offset=".64" stop-color="#d5eabc"/>
      <stop offset=".95" stop-color="#00877a"/>
    </linearGradient>
  </defs>
  <g class="cls-4">
    <g id="Layer_2" data-name="Layer 2">
      <g id="Layer_1-2" data-name="Layer 1">
        <rect class="cls-5" width="509.18" height="240.02" rx="35.54" ry="35.54"/>
        <path class="cls-3" d="M404.58,106.77c-5.25-.75-9.3-4.89-9.84-10.19V24.92H61.8c-19.56,0-35.42,15.86-35.42,35.42v112.02c0,19.56,15.86,35.42,35.42,35.42h413.68v-101.01h-70.9Z"/>
        <g id="Generative_Object" data-name="Generative Object">
          <g>
            <path class="cls-1" d="M423.26,77.2h33.3c.36.17.73.32,1.07.53.53.33,8.22,8.04,8.46,8.59s.26,1.03-.33,1.27c-.32.06-.55-.12-.8-.27-1.99-1.12-6.05-7.13-8.13-8.39-.33-.2-.74-.21-1.07-.4h-31.57c-.32.23-.67.08-1.07.27-1.89.88-6.85,7.86-8.66,8.66-.7.31-1.3-.15-1.13-.87.18-.75,8.07-7.63,8.99-8.99l.93-.4Z"/>
            <path class="cls-1" d="M463.48,63.21c1.75-.55,6.82.41,8.92,0,.08.06.11,1.16.07,1.27-.18.4-8.41.32-8.86.2-.75-.2-.82-1.25-.13-1.47Z"/>
            <path class="cls-1" d="M406.61,63.21c1.82.4,7.57-.53,8.92,0,.09.03.22.26.33.33.04.41.02.98-.47,1.13-1.73.54-6.72-.41-8.79,0v-1.47Z"/>
            <path class="cls-1" d="M438.84,31.24c.06-.04,1.34-.02,1.4.07-.4,1.97.53,7.06,0,8.66-.18.55-1.26.63-1.47-.13-.11-.41-.28-8.34.07-8.59Z"/>
            <path class="cls-1" d="M469.21,50.69c.49,0,.99,1.07.8,1.33l-7.86,3.33c-.73-.36-.76-.95-.13-1.47l7.19-3.2Z"/>
            <path class="cls-1" d="M416.6,40.3c.73.75,6.09,5.63,6.19,6.06.22.91-.68,1.12-1.4.73-.36-.19-5.62-5.39-5.66-5.79-.03-.26.7-.77.87-1Z"/>
            <path class="cls-1" d="M416.6,72.54c.79-.05,1.2.71.67,1.33s-6.64,2.6-7.79,3.13l-.47-1.27,7.59-3.2Z"/>
            <path class="cls-1" d="M462.02,72.54c.43-.12,8.01,2.96,8.06,3.4.01.09-.51,1.11-.6,1.13-.43.08-7.13-3.01-7.93-3.53-.13-.3.2-.93.47-1Z"/>
            <path class="cls-1" d="M409.54,50.69c.39-.16,7.44,3.02,7.73,3.33.46.51.06,1.29-.53,1.33-.86.06-6.56-3.1-7.79-3.53.19-.14.5-1.09.6-1.13Z"/>
            <path class="cls-1" d="M451.5,33.51c.3.2,1.21.34,1.27.73s-2.91,7.32-3.26,7.53c-.31.18-1.01.04-1.13-.33-.25-.76,2.78-6.69,3.13-7.93Z"/>
            <path class="cls-1" d="M427.52,33.51c.39.09,2.71,6.6,3.26,7.39.11.71-.54,1.09-1.13.87-.4-.15-2.92-6.73-3.26-7.66.04-.12,1.07-.61,1.13-.6Z"/>
            <path class="cls-1" d="M462.82,47.49c.42-.06,1.04.92,1,1.13-.03.16-1.92,1.49-2.2,1.4-.06-.02-.61-.98-.73-1.13.37-.07,1.79-1.38,1.93-1.4Z"/>
            <path class="cls-1" d="M416.06,47.36l2.06,1.53-.73,1.13c-1.29-.87-3.08-1.09-1.33-2.66Z"/>
            <path class="cls-1" d="M467.48,57.62c.41.09.61,1.23.4,1.47-.08.09-2.13.46-2.46.47.01-.28-.37-1.24-.2-1.4.09-.08,2.15-.56,2.26-.53Z"/>
            <path class="cls-1" d="M411.4,57.62c.14-.07,2.03.53,2.4.53.25,2.34-1.23,1.01-2.66.93-.17-.18.2-1.43.27-1.47Z"/>
            <path class="cls-1" d="M465.61,68.27c.12-.04,2.42.6,2.46.73.02.06-.41.94-.27,1.2-.08.1-2.5-.37-2.6-.47s.22-1.41.4-1.47Z"/>
            <path class="cls-1" d="M413.4,68.27c.29.07.56,1.31.4,1.47-.09.09-2.37.55-2.46.47-.09-.08-.33-1.27-.2-1.4.09-.09,1.99-.31,2.26-.53Z"/>
            <path class="cls-1" d="M434.18,35.64c.65.05,1.04,2.2,1,2.33-.09.26-1.13.3-1.4.47-.18-.99-1.26-2.92.4-2.8Z"/>
            <path class="cls-1" d="M444.44,35.64l1.4.33-.6,2.46c-2.07-.25-.9-1.34-.8-2.8Z"/>
            <path class="cls-1" d="M423.92,39.77c.54-.04,1.06,1.57,1.53,1.93l-1,.87c-.89-.97-2.34-2.01-.53-2.8Z"/>
            <path class="cls-1" d="M454.96,39.64l1.2.67c.18.24-1.2,2.11-1.33,2.13-.07.01-1.13-.61-1.13-.87,0-.12,1.2-1.58,1.27-1.93Z"/>
            <g>
              <path class="cls-1" d="M426.19,83.19h27.44c.07.11.3.24.33.33.11.28.11,5.71,0,5.99-.49,1.3-24.84-.31-27.77.33-.18-.13-.4-.24-.47-.47-.09-.27-.09-5.46,0-5.73.01-.03.43-.46.47-.47Z"/>
              <polygon class="cls-1" points="427.25 84.66 452.56 84.66 452.63 88.32 427.39 88.52 427.25 84.66"/>
            </g>
            <g>
              <path class="cls-2" d="M463.08,40.3c.06,0,.79.66.73.87-6.37,7.53-12.19,15.52-18.25,23.31-4.82,14.99-21.38-3.73-5.53-6.73l23.04-17.45Z"/>
              <path class="cls-1" d="M438.57,59.48c6.91-1.05,7.36,9.38.8,9.19-5.53-.16-5.87-8.42-.8-9.19Z"/>
            </g>
          </g>
        </g>
      </g>
    </g>
  </g>
</svg>