<?xml version="1.0" encoding="UTF-8"?>
<svg id="Layer_2" data-name="Layer 2" xmlns="http://www.w3.org/2000/svg" viewBox="0 0 366.74 206.42">
  <defs>
    <style>
      .cls-1 {
        fill: #0e685b;
      }

      .cls-2 {
        fill: #00c4bb;
      }
    </style>
  </defs>
  <g id="Layer_1-2" data-name="Layer 1">
    <path class="cls-1" d="M278.21,104.25c-5.25-.75-9.3-4.89-9.84-10.19V22.41H35.42C15.86,22.41,0,38.27,0,57.83v113.17c0,19.56,15.86,35.42,35.42,35.42h313.68v-102.17h-70.9Z"/>
    <g id="eUl4uw">
      <g>
        <path class="cls-2" d="M289.78,76.68c-4.29-.54-7.72-4.42-8.76-8.48.91-14.97-1.28-31.5-.03-46.29.44-5.23,4.63-9.13,9.79-9.69,10.11-1.1,21.93.75,32.22-.06,2.37-.42,3.41,3.03,1.2,3.45l-33.47.08c-3.53.4-6.3,3.76-6.56,7.17.81,13.94-1.03,29.01,0,42.81.26,3.54,1.96,6.22,5.37,7.4,21.91.96,44.03.12,66.02.43,3.37-.29,6.03-1.96,7.32-5.14,1.11-14.5.19-29.3.47-43.91-.12-1.92,3.27-1.91,3.37-.32v43.45c-.6,3.66-5,9.09-8.94,9.09h-24.75c.52,5.31,5.12,4.9,8.96,5.89,1.35.35,3.18,2.26,3.35,3.52.06.47-.08,4.29-.17,4.8-.18.97-1.21,1.12-2.06,1.13-12.46-.87-26.38,1.1-38.67,0-3.67-.33-1.33-3.58-2.29-6.2.86-1.58,1.96-3.04,3.84-3.47,2.42-.56,5.49-.12,7.46-2.59.3-.38,1.55-3.08.59-3.08h-24.27ZM329.86,76.68h-12.14c.27,3.52-1.91,6.51-5.11,7.82-1.68.69-5.09.86-6.19,1.48-.99.56-.94,1.46-.81,2.49l36.38.03c.3-3.3-1.25-2.47-3.27-2.96-3.81-.91-7.57-2.2-8.64-6.36-.22-.86-.29-1.61-.22-2.5Z"/>
        <path class="cls-2" d="M359.45,21.03c-2.07,2.78-6.69,6.68-9.64,8.71-.62.43-3.64,1.89-3.83,2.22-.17.29.45,2.42.48,3.06.21,4.5-.83,7.37-4.98,9.38-1.63.79-7.96,2.99-9.47,2.53-.19-.06-2.6-2.44-2.74-2.68-1.57-2.6,3.1-4.02,3.09-5.41,0-.25-1.42-1.39-1.71-1.74l-3.89,3.46c-1.6.2-2.45-1.3-1.77-2.76.35-.74,2.71-2.22,2.9-3.15.12-.59-1.09-2.41-2.04-1.73-1.34.96-2.5,4.65-5.12,2.92-.17-.11-2.5-2.7-2.55-2.88-.14-.54.2-1.65.34-2.25.7-2.97,2.25-8.03,4.63-10.06,3.12-2.65,6.44-1.83,10.16-1.5,4.92-9.58,16.12-19.98,27.68-19.09,1.22.09,3.21.22,3.68,1.43.76,1.96.51,6.01.11,8.09-.65,3.4-3.25,8.66-5.32,11.45ZM361.14,10.59c.22-1.36,1.21-5.71.5-6.73-.44-.63-5.72-.3-6.57.17-.59.33-.06.52.16.8,1.54,1.97,4.12,3.93,5.9,5.75ZM351.79,6.22c-.39-.33-.66-.39-1.15-.25-.75.21-4.9,3.01-5.63,3.65-5.56,4.94-10.29,13.56-15.21,19.61-.27.33-.86.53-.91.7-.15.49,1.31,2.1,1.72,2.03,1.04-.19,6.2-6.7,7.88-7.47,1.25-.48,2.76.04,2.54,1.56-.16,1.06-6.14,6.64-7.35,7.93-.33.35-1.05.16-.43.88.25.29,1.64,1.61,1.88,1.59,5.07-5.65,12.22-8.58,17.78-13.73,2.62-2.42,5.05-5.18,6.55-8.46-.05-.56-3.98-4.06-4.71-4.78-.93-.91-1.98-2.42-2.95-3.26ZM330.81,22.08c-1.21.23-2.24-.17-3.53.14-3.35.8-4.93,6.77-5.4,9.76l2.73-2.21c.77-1.13,6.72-6.76,6.21-7.68ZM341.17,40.43c2.13-1.74,2.39-3.6,1.61-6.21-3.36,2.95-6.87,5.81-9.74,9.25,2.59-.55,6.11-1.4,8.13-3.04Z"/>
        <path class="cls-2" d="M289.94,22.08c.05-.08,1.46-.61,1.74-.66l23.32.03c1.83.34,1.4,3.5-.31,3.5h-21.23v39.27h60.67V31.82c0-1.22,3.21-2.16,3.51.63,1.1,10.28-.83,22.42,0,32.9-.02.75-.37,1.46-.96,1.91l-64.99.32c-.63.12-1.75-.75-1.75-1.27V22.08Z"/>
        <path class="cls-2" d="M310.9,41.37c.11.07.1.43.16.45.43.19,2.83-1.32,3.6-1.56,5.67-1.8,11.51,1.47,12.28,7.55.1.77-.21,2.89-.14,3.02.3.52,1.77.71,2.29,1.06.61.41,2.09,2.42,2.25,2.46.73.15,3.61-1.01,5-.96,3.27.12,7.5,2.47,9.11,5.36.76,1.36,1.43,4.1-.76,4.19-1.57.06-2.02-2.12-2.72-3.02-1.65-2.13-4.42-3.32-7.1-2.95-1.62.23-3.15,1.7-4.48,1.46-1.15-.21-2-2.42-3.1-3.31-3.35-2.71-6.71-.02-8.01-.93-.5-.35-.46-2.12.01-2.58.59-.58,3.25-1.16,4.16-1.11,1.25-6.09-6.26-10.02-10.35-5.08-.88,1.06-1.67,4.36-3.69,2.69-1.8-1.49.04-2.91-.15-3.35-.58-1.34-3.46-1.73-4.78-1.56-1.79.22-2.61,1.64-3.62,1.84-1.63.32-2.5-1.02-1.83-2.5.05-.12,1.7-1.73,1.82-1.81.16-.1.77.16,1.21-.26.6-.57.03-1.68-.23-2.33-.1-.24-1.95-2.42-2.25-2.64-1.42-1.05-4.82-1.22-4.79-2.97.07-3.84,6.39-.44,7.89.92,1.72,1.55,2.6,4.21,3.19,6.39,1.74.11,3.54.58,5.02,1.54Z"/>
        <path class="cls-2" d="M313.92,55.91c.11.08,2.06-.34,2.69-.32,1.89.06,4.28,1.26,5.48,2.68,1.44,1.71,1.05,4.67-1.58,4.06-.43-.1-1.19-3.09-4.01-3.35-2.75-.25-1.08,1.3-1.94,2.49-.43.61-2.29.49-2.74-.12-.49-.67-.46-3.12-1.06-4.37-1.33-2.8-4.84-4.63-7.9-4.25-1.42.18-4.34,2.76-5.41.96-.67-1.12-.46-2.01.56-2.64,4.35-2.66,10.33-2.2,13.93,1.56.69.72,1.82,3.19,1.98,3.3Z"/>
        <path class="cls-2" d="M320.5,68.77c.99-.22,5.6-.22,6.57,0,1.55.36,1.97,2.26.73,3.15-.62.45-6.59.45-7.61.22-1.93-.42-1.55-2.96.32-3.37Z"/>
        <path class="cls-2" d="M353.71,18.47c-.24.26-1.35.86-1.73.99-8.11,2.72-9.35-10.43-.33-8.8,3.27.59,4.06,5.58,2.05,7.81Z"/>
      </g>
    </g>
  </g>
</svg>