<?xml version="1.0" encoding="UTF-8"?>
<svg xmlns="http://www.w3.org/2000/svg" xmlns:xlink="http://www.w3.org/1999/xlink" viewBox="0 0 457.03 200.02">
  <defs>
    <style>
      .cls-1 {
        fill: #fdd221;
      }

      .cls-2 {
        isolation: isolate;
      }

      .cls-3 {
        fill: #0f685b;
      }

      .cls-4 {
        mix-blend-mode: overlay;
        stroke: url(#linear-gradient);
        stroke-width: 1.83px;
      }

      .cls-4, .cls-5 {
        fill: none;
        stroke-miterlimit: 10;
      }

      .cls-5 {
        stroke: #fdd221;
        stroke-width: .91px;
      }
    </style>
    <linearGradient id="linear-gradient" x1="25.46" y1="96.35" x2="424.24" y2="96.35" gradientUnits="userSpaceOnUse">
      <stop offset="0" stop-color="#d5eabc"/>
      <stop offset=".34" stop-color="#03c2b9"/>
      <stop offset=".64" stop-color="#d5eabc"/>
      <stop offset=".95" stop-color="#00877a"/>
    </linearGradient>
  </defs>
  <g class="cls-2">
    <g id="Layer_2" data-name="Layer 2">
      <g id="Layer_1-2" data-name="Layer 1">
        <rect class="cls-3" width="457.03" height="200.02" rx="35.54" ry="35.54"/>
        <path class="cls-4" d="M352.44,106.77c-5.25-.75-9.3-4.89-9.84-10.19V24.92H61.8c-19.56,0-35.42,15.86-35.42,35.42v72.02c0,19.56,15.86,35.42,35.42,35.42h361.53v-61.01h-70.9Z"/>
        <g>
          <path class="cls-1" d="M363.69,74.6c.07-.01.95.58.85.85l-2.05,2.27c-.06.63,3.61-1.69,3.86-.45.19.96-2.6,1.23-1.99,1.53h45.46c.66-.21-1.66-.76-1.76-1.08-.66-2.04,3.64.43,3.75.23-.34-1.23-3.09-2.35-1.31-3.35.21-.02,2.72,2.83,2.9,3.13.19.31.42.49.34.91-.04.23-2.55,3.79-2.78,3.81-.06,0-.94-.6-.85-.85.21-.35,1.95-2.45,1.93-2.61-.13-1.01-3.55,1.61-3.81,1.76-5.79,3.34-11.66,6.56-17.39,10-.53.07-.63-.25-.85-.63l.4-.63c4.91-3.18,11.04-5.7,15.8-8.98.15-.1.68-.37.57-.57h-39.21c-.03.26.59.55.8.68,4.94,3.15,10.56,5.76,15.57,8.87.61.42.38,1.12-.34,1.25l-20.46-11.82-.85.06c.18.4,1.94,2.56,1.93,2.73,0,.1-.8.74-.85.74-.26-.02-2.88-3.87-2.78-4.26.06-.23,2.89-3.55,3.13-3.58Z"/>
          <path class="cls-1" d="M386.65,83.13l1.08.06v11.48l.23.11c.32-.2,1.96-1.85,2.1-1.88.31-.06.85.66.85.74,0,.23-3.24,3.06-3.47,3.13-.08.02-.48.02-.57,0-.22-.05-3.44-2.78-3.47-3.01-.02-.15.51-.85.74-.85s1.51,1.38,1.82,1.59c.12.08.53.46.63.17l.06-11.54Z"/>
          <path class="cls-1" d="M404.6,47.32c.13-.04.4.03.57,0l.28.28v28.19c-.31.36-.49.53-.97.28l-.28-.51v-27.73c.12-.12.22-.45.4-.51Z"/>
          <path class="cls-1" d="M370.11,48.12v26.6c-.03.48.13,1.01-.28,1.36-.48.25-.65.08-.97-.28v-28.07l.28-.4c.59-.11.95.17.97.8Z"/>
          <path class="cls-1" d="M390.51,30.05l20.57,11.59.85-.06c-.47-1.1-2.91-2.62-.85-3.24.43.9,2.89,3.4,2.67,4.26-.06.23-3,3.61-3.24,3.58-.05,0-.75-.58-.74-.74.01-.23,1.84-2,1.99-2.44-.62.04-4.25,1.99-3.69.17.17-.56,1.45-.36,1.65-.97l-19.32-10.91c-.53-.49-.4-.83.11-1.25Z"/>
          <path class="cls-1" d="M383.58,30.05c.57,0,1.06.92.34,1.25l-19.09,10.8-.11.34c.49.22,1.77.33,1.65,1.08-.19,1.14-3.01-.36-3.69-.51.04.54,1.85,2.18,1.88,2.44.02.2-.69.74-.74.74-.3,0-3.37-3.54-3.24-4.15.1-.48,2.4-2.95,2.67-3.69l.97.74-1.93,2.61,1.08-.06,20.23-11.59Z"/>
          <path class="cls-1" d="M386.87,24.02c.91-.19,3.15,2.45,4.03,3.01-.71,1.94-2-.48-2.96-1.02l-.23.11-.06,11.54-1.08-.06v-11.48l-.23-.11c-.3.22-2.07,1.87-2.22,1.88-.2,0-.74-.69-.74-.74,0-.23,3.24-3.08,3.47-3.13Z"/>
          <path class="cls-1" d="M370.11,48.12c-.46,8.67.62,18,0,26.6v-26.6Z"/>
          <g>
            <rect class="cls-5" x="373.31" y="67.56" width="28.03" height="8.63"/>
            <rect class="cls-5" x="375.38" y="58.93" width="23.89" height="8.63"/>
            <rect class="cls-5" x="377.91" y="50.29" width="18.82" height="8.63"/>
            <rect class="cls-5" x="380.03" y="41.66" width="14.58" height="8.63"/>
          </g>
        </g>
      </g>
    </g>
  </g>
</svg>