<?xml version="1.0" encoding="UTF-8"?>
<svg xmlns="http://www.w3.org/2000/svg" xmlns:xlink="http://www.w3.org/1999/xlink" viewBox="0 0 572.01 591.31">
  <defs>
    <style>
      .cls-1 {
        fill: url(#radial-gradient-2);
      }

      .cls-1, .cls-2 {
        mix-blend-mode: color-dodge;
      }

      .cls-3 {
        fill: #00897a;
        stroke: url(#linear-gradient-2);
      }

      .cls-3, .cls-4 {
        stroke-miterlimit: 10;
        stroke-width: 1.83px;
      }

      .cls-5 {
        fill: #0e685b;
      }

      .cls-6 {
        isolation: isolate;
      }

      .cls-2 {
        fill: url(#radial-gradient);
      }

      .cls-7 {
        fill: #ffd420;
      }

      .cls-4 {
        fill: none;
        mix-blend-mode: overlay;
        stroke: url(#linear-gradient);
      }
    </style>
    <linearGradient id="linear-gradient" x1="25.46" y1="164.62" x2="376.39" y2="164.62" gradientUnits="userSpaceOnUse">
      <stop offset="0" stop-color="#d7ecbe"/>
      <stop offset=".34" stop-color="#00c4bb"/>
      <stop offset=".64" stop-color="#d7ecbe"/>
      <stop offset=".95" stop-color="#00897a"/>
    </linearGradient>
    <linearGradient id="linear-gradient-2" x1="31.17" y1="432.77" x2="538.7" y2="432.77" xlink:href="#linear-gradient"/>
    <radialGradient id="radial-gradient" cx="-46036.17" cy="-5581.89" fx="-46036.17" fy="-5581.89" r="121.43" gradientTransform="translate(5878.23 -1549.58) rotate(-90) scale(.04 1)" gradientUnits="userSpaceOnUse">
      <stop offset="0" stop-color="#70cccc"/>
      <stop offset="1" stop-color="#000" stop-opacity="0"/>
    </radialGradient>
    <radialGradient id="radial-gradient-2" cx="-174660.07" cy="261.05" fx="-174660.07" fy="261.05" r="121.43" gradientTransform="translate(6393.47 231.14) scale(.04 .75)" xlink:href="#radial-gradient"/>
  </defs>
  <g class="cls-6">
    <g id="Layer_2" data-name="Layer 2">
      <g id="Layer_1-2" data-name="Layer 1">
        <rect class="cls-5" x="0" width="572.01" height="591.31" rx="39.76" ry="39.76"/>
        <path class="cls-4" d="M304.58,106.77c-5.25-.75-9.3-4.89-9.84-10.19V24.92H61.8c-19.56,0-35.42,15.86-35.42,35.42v208.55c0,19.56,15.86,35.42,35.42,35.42h313.68V106.77h-70.9Z"/>
        <path class="cls-3" d="M466.89,385.63c-5.25-.75-9.3-4.89-9.84-10.19v-71.66H67.5c-19.56,0-35.42,15.86-35.42,35.42v187.12c0,19.56,15.86,35.42,35.42,35.42h470.29v-176.12h-70.9Z"/>
        <rect class="cls-7" x="469.34" y="303.79" width="68.44" height="62.78" rx="19.66" ry="19.66"/>
        <ellipse class="cls-2" cx="296.23" cy="303.79" rx="121.44" ry="4.89"/>
        <ellipse class="cls-1" cx="34.63" cy="425.78" rx="4.42" ry="90.54"/>
        <g>
          <g>
            <g>
              <path class="cls-7" d="M344.31,82.11c-.4,0-.72-.32-.72-.72s.32-.72.72-.72c1.88,0,10.2-.87,10.94-.95,1.55-.41,2.59-.99,2.99-1.69.23-.39.27-.83.12-1.35-.33-1.2-1.49-2.03-2.81-2.03h-11.16c-.19,0-.38-.08-.52-.22-.05-.05-4.74-4.82-8.6-4.64-2.15.1-7.51,3.07-10.52,4.83-4.04,2.37-7.61,4.75-7.65,4.77-.33.22-.78.13-1-.2-.22-.33-.13-.78.2-1,.04-.02,3.64-2.42,7.71-4.81,5.55-3.25,9.31-4.95,11.19-5.03,4.03-.18,8.44,3.85,9.48,4.86h10.86c1.97,0,3.69,1.27,4.2,3.09.25.9.16,1.72-.27,2.45-.63,1.08-1.91,1.86-3.93,2.37-.03,0-.07.01-.1.02-.37.04-9.11.97-11.15.97h0Z"/>
              <path class="cls-7" d="M323.33,90.64c-.22,0-.44-.1-.58-.29-.23-.32-.16-.77.16-1.01l1.41-1.04c1.41-1.04,2.84-2.08,4.11-3.01,2.34-1.72,5.63-1.62,9.5.28,2.28,1.12,4.11,2.53,4.78,3.07l16.18-2.73,17.75-13.25c-2.05-2.72-4.1-2.11-4.42-2l-12.67,7.71c-.34.21-.78.1-.99-.24-.21-.34-.1-.78.24-.99l12.72-7.74s.05-.03.08-.04c.1-.04.99-.41,2.26-.2,2.07.35,3.51,1.97,4.36,3.27.21.32.13.74-.17.97l-18.45,13.77c-.09.07-.2.11-.31.13l-16.67,2.82c-.21.04-.43-.03-.59-.16-.08-.07-8.11-6.91-12.75-3.5-1.27.93-2.7,1.98-4.11,3.02l-1.41,1.04c-.13.09-.28.14-.42.14h0Z"/>
            </g>
            <path class="cls-7" d="M318.88,99.35c-.25,0-.49-.13-.62-.35-.2-.34-.09-.78.25-.98l6.44-3.8-11.46-19.43-6.44,3.8c-.34.2-.78.09-.98-.25s-.09-.78.25-.98l7.06-4.16c.34-.2.78-.09.98.25l12.19,20.67c.1.16.12.36.08.55s-.17.34-.33.44l-7.06,4.16c-.11.07-.24.1-.37.1h0Z"/>
          </g>
          <g>
            <path class="cls-7" d="M364.24,67.55c-.41,0-.81-.13-1.17-.39l-7.5-5.45c-.19-.14-.45-.14-.64,0l-7.5,5.45c-.71.51-1.62.51-2.33,0s-.99-1.38-.72-2.22l2.87-8.82c.07-.22,0-.47-.2-.61l-7.5-5.45c-.71-.51-.99-1.38-.72-2.22.27-.83,1.01-1.37,1.89-1.37h9.27c.24,0,.44-.15.52-.38l2.87-8.82c.27-.83,1.01-1.37,1.89-1.37s1.62.54,1.89,1.37h0l2.87,8.82c.07.22.28.38.52.38h9.27c.87,0,1.62.54,1.89,1.37s-.01,1.7-.72,2.22l-7.5,5.45c-.19.14-.27.38-.2.61l2.87,8.82c.27.83-.01,1.7-.72,2.22-.35.26-.76.39-1.17.39h0ZM355.26,60.17c.41,0,.82.13,1.17.38l7.5,5.45c.3.22.56.05.64,0,.08-.05.31-.26.2-.61l-2.87-8.82c-.27-.82.02-1.71.72-2.22l7.5-5.45c.3-.22.23-.52.2-.61s-.15-.38-.52-.38h-9.27c-.86,0-1.62-.55-1.89-1.37l-2.87-8.82c-.11-.35-.42-.38-.52-.38s-.4.03-.52.38l-2.87,8.82c-.27.82-1.02,1.37-1.89,1.37h-9.27c-.37,0-.49.29-.52.38s-.1.39.2.61l7.5,5.45c.7.51.99,1.4.72,2.22l-2.87,8.82c-.11.35.12.55.2.61s.34.22.64,0l7.5-5.45c.35-.25.76-.38,1.17-.38h0Z"/>
            <path class="cls-7" d="M355.26,33.15c-.4,0-.72-.32-.72-.72v-3.95c0-.4.32-.72.72-.72s.72.32.72.72v3.95c0,.4-.32.72-.72.72Z"/>
            <path class="cls-7" d="M341.37,38.65c-.18,0-.37-.07-.51-.21l-2.79-2.79c-.28-.28-.28-.74,0-1.02.28-.28.74-.28,1.02,0l2.79,2.79c.28.28.28.74,0,1.02-.14.14-.33.21-.51.21h0Z"/>
            <path class="cls-7" d="M335.97,52.58h-3.95c-.4,0-.72-.32-.72-.72s.32-.72.72-.72h3.95c.4,0,.72.32.72.72s-.32.72-.72.72Z"/>
            <path class="cls-7" d="M378.64,52.43h-3.95c-.4,0-.72-.32-.72-.72s.32-.72.72-.72h3.95c.4,0,.72.32.72.72s-.32.72-.72.72h0Z"/>
            <path class="cls-7" d="M369.19,38.54c-.18,0-.37-.07-.51-.21-.28-.28-.28-.74,0-1.02l2.79-2.79c.28-.28.74-.28,1.02,0,.28.28.28.74,0,1.02l-2.79,2.79c-.14.14-.32.21-.51.21h0Z"/>
          </g>
        </g>
        <g id="X3lfO8">
          <g>
            <path d="M522.82,329.49l-2.36-1v-6.78h-37.87v23.01h25.19c.06,0,.24.14.3.21l1.65,2.27h-7.08v3.89h8.2c.13,0,.72.33.83.46.66.76.1,1.9-.84,2l-18.93-.05c-.82-.26-1.16-1.29-.59-1.98.09-.11.68-.44.77-.44h8.2v-3.89h-18.11s-.72-.29-.83-.35c-.74-.42-1.15-1.24-1.24-2.06v-23.13c.17-1.25,1.01-2.19,2.3-2.3h38.35c.69-.01,2.06,1.21,2.06,1.83v8.32Z"/>
            <path d="M516.43,329.17c9.42-.91,14.9,10.18,8.4,17.01l5.78,6.72c.77,1.19-.81,2.49-1.84,1.48-1.94-2.19-3.75-4.51-5.79-6.59-5.48,3.32-12.65,1.01-14.91-5.03-2.27-6.09,1.86-12.97,8.36-13.6ZM516.9,331.53c-10.58.89-8.51,17.27,2.15,15.25,9.34-1.77,7.49-16.06-2.15-15.25Z"/>
            <path d="M500.84,327.17l2.39,9.64,2.13-3.95c.48-.41,1.11-.05,1.28.49l-3.17,6.34c-.47.17-.96.11-1.12-.41-.69-2.95-1.5-5.88-2.07-8.85-.17.01-.18.17-.24.29-1.46,3.15-2.23,7.1-3.71,10.21-.42.87-1.03,1.05-1.54.12l-1.24-7.56-1.84,2.59-.75.78-5.62.06c-.91-.2-1.01-1.21-.09-1.51l5.11-.08,2.95-4.13c.45-.6,1.03-.47,1.39.14.41,2,.59,4.07,1.01,6.07.03.14.02.47.2.45,1.12-3.53,2.52-6.97,3.75-10.47.19-.42.83-.51,1.17-.23Z"/>
            <path d="M516.9,332.47c1.65-.17,3.58.41,4.87,1.44.55.45,1.47,1.25,1.05,1.99-.59,1.02-1.48-.28-1.93-.63-1.64-1.28-3.61-1.57-5.53-.69-.68.31-1.74,1.47-2.3.38-.18-.34-.16-.42.05-.74.61-.95,2.72-1.63,3.8-1.74Z"/>
          </g>
        </g>
      </g>
    </g>
  </g>
</svg>