<?xml version="1.0" encoding="UTF-8"?>
<svg id="Layer_2" data-name="Layer 2" xmlns="http://www.w3.org/2000/svg" viewBox="0 0 64.9 64.9">
  <defs>
    <style>
      .cls-1 {
        fill: #ffd420;
      }
    </style>
  </defs>
  <g id="Layer_1-2" data-name="Layer 1">
    <g>
      <path class="cls-1" d="M32.45,9.7c-12.54,0-22.75,10.21-22.75,22.75s10.21,22.75,22.75,22.75,22.75-10.21,22.75-22.75-10.21-22.75-22.75-22.75ZM32.45,53.37c-11.53,0-20.92-9.38-20.92-20.92s9.38-20.92,20.92-20.92,20.92,9.38,20.92,20.92-9.38,20.92-20.92,20.92Z"/>
      <path class="cls-1" d="M62.88,44.64l-2.24-2.16.21-.62c.36-1.1.66-2.22.9-3.35l.13-.64,3.02-.75v-9.31l-3.02-.75-.13-.64c-.23-1.13-.53-2.26-.9-3.35l-.21-.62,2.24-2.16-4.66-8.07-3,.86-.44-.49c-.77-.86-1.59-1.68-2.45-2.45l-.49-.44.86-3-8.07-4.66-2.16,2.23-.62-.21c-1.09-.36-2.22-.66-3.35-.9l-.64-.13-.75-3.02h-9.31l-.75,3.02-.64.13c-1.13.23-2.26.53-3.35.9l-.62.21-2.16-2.23-8.07,4.66.86,3-.49.44c-.86.77-1.68,1.59-2.45,2.45l-.44.49-3-.86-4.66,8.07,2.24,2.16-.21.62c-.36,1.09-.66,2.22-.9,3.35l-.13.64-3.02.75v9.31l3.02.75.13.64c.23,1.13.53,2.26.9,3.35l.21.62-2.24,2.16,4.66,8.07,3-.86.44.49c.76.86,1.59,1.68,2.45,2.45l.49.44-.86,3,8.07,4.66,2.16-2.24.62.21c1.09.36,2.22.66,3.35.9l.64.13.76,3.02h9.31l.75-3.02.64-.13c1.13-.23,2.26-.53,3.35-.9l.62-.21,2.16,2.24,8.07-4.66-.86-3,.49-.44c.86-.77,1.68-1.59,2.45-2.45l.44-.49,3,.86,4.66-8.07ZM54.59,49.76c-1.4,1.73-3.08,3.41-4.82,4.82l.79,2.77-5.59,3.23-2-2.07c-2.08.8-4.37,1.41-6.59,1.76l-.7,2.79h-6.45l-.7-2.79c-2.2-.34-4.49-.96-6.59-1.76l-2,2.07-5.59-3.23.79-2.77c-1.73-1.4-3.41-3.08-4.82-4.82l-2.77.79-3.23-5.59,2.07-2c-.8-2.08-1.41-4.37-1.76-6.59l-2.79-.7v-6.45l2.79-.7c.34-2.2.96-4.49,1.76-6.59l-2.07-2,3.23-5.59,2.77.79c1.4-1.73,3.08-3.41,4.82-4.82l-.79-2.77,5.59-3.23,2,2.06c2.07-.8,4.37-1.41,6.59-1.76l.7-2.79h6.45l.7,2.79c2.2.34,4.5.96,6.59,1.76l2-2.07,5.59,3.23-.79,2.77c1.73,1.4,3.41,3.08,4.82,4.82l2.77-.79,3.23,5.59-2.07,2c.8,2.07,1.41,4.37,1.76,6.59l2.79.7v6.45l-2.79.7c-.34,2.2-.96,4.49-1.76,6.59l2.07,2-3.23,5.59-2.77-.79Z"/>
      <rect class="cls-1" x="31.54" y="17.08" width="1.83" height="1.83"/>
      <rect class="cls-1" x="31.54" y="45.99" width="1.83" height="1.83"/>
      <rect class="cls-1" x="46" y="31.54" width="1.83" height="1.83"/>
      <rect class="cls-1" x="17.08" y="31.54" width="1.83" height="1.83"/>
      <rect class="cls-1" x="21.31" y="21.31" width="1.83" height="1.83"/>
      <rect class="cls-1" x="41.76" y="41.76" width="1.83" height="1.83"/>
      <rect class="cls-1" x="41.76" y="21.31" width="1.83" height="1.83"/>
      <rect class="cls-1" x="21.31" y="41.76" width="1.83" height="1.83"/>
      <polygon class="cls-1" points="31.54 24.44 31.54 33.37 40.47 33.37 40.47 31.54 33.37 31.54 33.37 24.44 31.54 24.44"/>
    </g>
  </g>
</svg>