<?xml version="1.0" encoding="UTF-8"?>
<svg id="Layer_2" data-name="Layer 2" xmlns="http://www.w3.org/2000/svg" viewBox="0 0 69.41 70.98">
  <defs>
    <style>
      .cls-1 {
        fill: #fff;
      }

      .cls-2 {
        fill: #ffd420;
      }
    </style>
  </defs>
  <g id="Layer_1-2" data-name="Layer 1">
    <g id="_5wBpzR" data-name="5wBpzR">
      <path class="cls-2" d="M69.41,6.85v56.48c-.24,1.15-.53,2.22-1.15,3.22-.96,1.55-2.54,2.79-4.29,3.3-.44.13-.9.19-1.34.32H6.78c-3.62-.52-6.41-3.37-6.78-7.02V7.09C.37,3.38,3.26.34,7.02,0h55.45c3.49.28,6.6,3.38,6.95,6.85Z"/>
    </g>
    <path class="cls-1" d="M39.91,70.98v-24.5h7.5l1.5-9h-9v-8.25c0-.24,1.14-1.72,1.48-2.02,2.21-1.97,4.8-1.05,7.52-1.23v-8c-7.46-1.49-16.9-1.07-18.78,7.97-.37,1.78.26,11.53-.97,11.53h-7.75v9h7.75c.18,0,.84.73.65,1.13l-.4,23.37h10.5Z"/>
  </g>
</svg>