<?xml version="1.0" encoding="UTF-8"?>
<svg id="Layer_2" data-name="Layer 2" xmlns="http://www.w3.org/2000/svg" xmlns:xlink="http://www.w3.org/1999/xlink" viewBox="0 0 326.72 366.6">
  <defs>
    <style>
      .cls-1 {
        fill: #0e685b;
        stroke: url(#linear-gradient);
        stroke-miterlimit: 10;
        stroke-width: 1.83px;
      }

      .cls-2 {
        fill: #ffd420;
      }
    </style>
    <linearGradient id="linear-gradient" x1="0" y1="183.3" x2="326.72" y2="183.3" gradientUnits="userSpaceOnUse">
      <stop offset="0" stop-color="#d7ecbe"/>
      <stop offset=".34" stop-color="#00c4bb"/>
      <stop offset=".64" stop-color="#d7ecbe"/>
      <stop offset=".95" stop-color="#00897a"/>
    </linearGradient>
  </defs>
  <g id="Layer_1-2" data-name="Layer 1">
    <path class="cls-1" d="M254.92,82.76c-5.25-.75-9.3-4.89-9.84-10.19V.91H36.33C16.77.91.91,16.77.91,36.33v293.93c0,19.56,15.86,35.42,35.42,35.42h289.48V82.76h-70.9Z"/>
    <path class="cls-2" d="M324.82,7.76v56.48c-.24,1.15-.53,2.22-1.15,3.22-.96,1.55-2.54,2.79-4.29,3.3-.44.13-.9.19-1.34.32h-55.85c-3.62-.52-6.41-3.37-6.78-7.02V8c.37-3.71,3.26-6.75,7.01-7.09h55.45c3.49.28,6.6,3.38,6.95,6.85ZM273.27,22.71c6.83-2.94,4.29-12.68-2.9-11.95-2.28.23-4.4,2.15-5.04,4.32-1.41,4.79,3.31,9.63,7.94,7.64ZM292.9,32.1v-4.54h-9.83v33.77h9.83v-18c.08-3.74,1.7-7.02,5.8-7.29,4.3-.28,6,2.74,6.2,6.61v18.68s10.23,0,10.23,0v-22.88c-.36-6.02-3.65-10.89-9.87-11.75-4.46-.62-8.55.66-11.41,4.16-.33.41-.59.89-.95,1.25ZM276.36,27.56h-10.3v33.77h10.3V27.56Z"/>
  </g>
</svg>