<?xml version="1.0" encoding="UTF-8"?>
<svg id="Layer_2" data-name="Layer 2" xmlns="http://www.w3.org/2000/svg" viewBox="0 0 50.71 35.41">
  <g id="Layer_1-2" data-name="Layer 1">
    <g id="X3lfO8">
      <g>
        <path d="M42.72,10.15l-2.36-1V2.36H2.48v23.01h25.19c.06,0,.24.14.3.21l1.65,2.27h-7.08v3.89h8.2c.13,0,.72.33.83.46.66.76.1,1.9-.84,2l-18.93-.05c-.82-.26-1.16-1.29-.59-1.98.09-.11.68-.44.77-.44h8.2v-3.89H2.07s-.72-.29-.83-.35c-.74-.42-1.15-1.24-1.24-2.06V2.3C.17,1.06,1.01.12,2.3,0h38.35c.69-.01,2.06,1.21,2.06,1.83v8.32Z"/>
        <path d="M36.32,9.83c9.42-.91,14.9,10.18,8.4,17.01l5.78,6.72c.77,1.19-.81,2.49-1.84,1.48-1.94-2.19-3.75-4.51-5.79-6.59-5.48,3.32-12.65,1.01-14.91-5.03-2.27-6.09,1.86-12.97,8.36-13.6ZM36.79,12.19c-10.58.89-8.51,17.27,2.15,15.25,9.34-1.77,7.49-16.06-2.15-15.25Z"/>
        <path d="M20.74,7.83l2.39,9.64,2.13-3.95c.48-.41,1.11-.05,1.28.49l-3.17,6.34c-.47.17-.96.11-1.12-.41-.69-2.95-1.5-5.88-2.07-8.85-.17.01-.18.17-.24.29-1.46,3.15-2.23,7.1-3.71,10.21-.42.87-1.03,1.05-1.54.12l-1.24-7.56-1.84,2.59-.75.78-5.62.06c-.91-.2-1.01-1.21-.09-1.51l5.11-.08,2.95-4.13c.45-.6,1.03-.47,1.39.14.41,2,.59,4.07,1.01,6.07.03.14.02.47.2.45,1.12-3.53,2.52-6.97,3.75-10.47.19-.42.83-.51,1.17-.23Z"/>
        <path d="M36.79,13.13c1.65-.17,3.58.41,4.87,1.44.55.45,1.47,1.25,1.05,1.99-.59,1.02-1.48-.28-1.93-.63-1.64-1.28-3.61-1.57-5.53-.69-.68.31-1.74,1.47-2.3.38-.18-.34-.16-.42.05-.74.61-.95,2.72-1.63,3.8-1.74Z"/>
      </g>
    </g>
  </g>
</svg>