<?xml version="1.0" encoding="UTF-8"?>
<svg xmlns="http://www.w3.org/2000/svg" xmlns:xlink="http://www.w3.org/1999/xlink" viewBox="0 0 870.52 436.55">
  <defs>
    <style>
      .cls-1 {
        fill: #00897a;
        stroke: url(#linear-gradient-2);
      }

      .cls-1, .cls-2 {
        stroke-miterlimit: 10;
        stroke-width: 1.83px;
      }

      .cls-3 {
        fill: #0e685b;
      }

      .cls-4 {
        isolation: isolate;
      }

      .cls-5 {
        fill: #ffd420;
      }

      .cls-2 {
        fill: none;
        mix-blend-mode: overlay;
        stroke: url(#linear-gradient);
      }
    </style>
    <linearGradient id="linear-gradient" x1="25.46" y1="214.62" x2="376.39" y2="214.62" gradientUnits="userSpaceOnUse">
      <stop offset="0" stop-color="#d7ecbe"/>
      <stop offset=".34" stop-color="#00c4bb"/>
      <stop offset=".64" stop-color="#d7ecbe"/>
      <stop offset=".95" stop-color="#00897a"/>
    </linearGradient>
    <linearGradient id="linear-gradient-2" x1="360.01" y1="255.33" x2="840.94" y2="255.33" xlink:href="#linear-gradient"/>
  </defs>
  <g class="cls-4">
    <g id="Layer_2" data-name="Layer 2">
      <g id="Layer_1-2" data-name="Layer 1">
        <rect class="cls-3" width="870.52" height="436.55" rx="35.54" ry="35.54"/>
        <path class="cls-2" d="M304.58,106.77c-5.25-.75-9.3-4.89-9.84-10.19V24.92H61.8c-19.56,0-35.42,15.86-35.42,35.42v308.55c0,19.56,15.86,35.42,35.42,35.42h313.68V106.77h-70.9Z"/>
        <path class="cls-1" d="M769.13,188.19c-5.25-.75-9.3-4.89-9.84-10.19v-71.66h-362.95c-19.56,0-35.42,15.86-35.42,35.42v227.12c0,19.56,15.86,35.42,35.42,35.42h443.68v-216.12h-70.9Z"/>
        <g>
          <path class="cls-5" d="M360.61,72.29v-11.15c0-.37-.3-.67-.67-.67s-.67.3-.67.67v11.15c0,.37.3.67.67.67s.67-.3.67-.67Z"/>
          <path class="cls-5" d="M366.43,75.44h-31.68c-.36,0-.66.29-.67.66-.07,3.22-1.01,6.36-2.7,9.1l-.28.45h-3.28c-3.78,0-6.85-3.07-6.85-6.85V26.75h31.45c3.78,0,6.85,3.07,6.85,6.85v1.64c0,.37.3.67.67.67s.67-.3.67-.67v-1.64c0-4.52-3.67-8.19-8.19-8.19h-38.88c-4.62,0-8.38,3.76-8.38,8.38v7.56c0,.37.3.67.67.67h10.12c.37,0,.67-.3.67-.67s-.3-.67-.67-.67h-9.45v-6.89c0-3.88,3.16-7.04,7.04-7.04h6.09v52.05c0,4.52,3.67,8.19,8.19,8.19h28.41c5.99,0,10.87-4.88,10.87-10.87,0-.18-.07-.35-.2-.47-.13-.13-.3-.2-.47-.2h0ZM356.23,85.65h-23.55c1.61-2.69,2.55-5.73,2.72-8.86h30.34c-.35,4.94-4.48,8.86-9.51,8.86Z"/>
          <path class="cls-5" d="M353.15,38.01c0-.37-.3-.67-.67-.67h-24.73c-.37,0-.67.3-.67.67s.3.67.67.67h24.73c.37,0,.67-.3.67-.67Z"/>
          <path class="cls-5" d="M348.07,47.14c0-.37-.3-.67-.67-.67h-19.65c-.37,0-.67.3-.67.67s.3.67.67.67h19.65c.37,0,.67-.3.67-.67Z"/>
          <path class="cls-5" d="M342.1,56.28c0-.37-.3-.67-.67-.67h-13.7c-.37,0-.67.3-.67.67s.3.67.67.67h13.7c.37,0,.67-.3.67-.67Z"/>
          <path class="cls-5" d="M335.79,62.75l-5.15,5.15-2.44-2.44c-.26-.26-.69-.26-.95,0-.26.26-.26.69,0,.95l2.92,2.92c.13.13.3.2.47.2s.34-.07.47-.2l5.63-5.63c.26-.26.26-.69,0-.95s-.69-.26-.95,0h0Z"/>
          <path class="cls-5" d="M375.26,36.84c-.01-.18-.09-.34-.22-.46l-5.7-5.06c-.28-.25-.7-.22-.95.06l-3.14,3.54-20.86,23.48s0,0,0,0c0,.01-.02.02-.03.04,0,0,0,.01-.01.02,0,.01-.01.02-.02.03,0,0-.01.02-.02.03,0,0,0,.02-.01.03,0,.01-.01.02-.02.03,0,0,0,.02,0,.02,0,.01-.01.03-.02.04,0,0,0,0,0,0l-2.62,8.6c-.08.25,0,.52.19.69.13.11.29.17.45.17.09,0,.18-.02.26-.05l8.32-3.53s0,0,.01,0c.01,0,.02,0,.03-.02,0,0,.02-.01.03-.02,0,0,.02-.01.03-.02.01,0,.02-.01.03-.02,0,0,.01-.01.02-.02.01,0,.02-.02.03-.03,0,0,.01-.01.02-.02,0,0,.02-.02.03-.03h0s20.86-23.49,20.86-23.49l3.14-3.54c.12-.13.18-.31.17-.49h0ZM345.22,60.04l4.12,3.66-6.02,2.56,1.89-6.22ZM350.53,62.96l-4.7-4.17,19.97-22.48.85.76,3.84,3.41-19.97,22.48ZM371.39,39.47l-4.7-4.17,2.25-2.54,4.7,4.17-2.25,2.54Z"/>
        </g>
        <rect class="cls-5" x="771.58" y="106.35" width="68.44" height="62.78" rx="19.66" ry="19.66"/>
        <g id="roVOvI">
          <g>
            <path d="M810.02,128.54c.06-.03.54-.7.77-.86.92-.67,1.78-.87,2.84-.36.19.09,2.22,2,2.38,2.2.56.73.64,1.71.31,2.55-.27.68-1,1.01-1.21,1.5-.39.92,1.34.62,1.8.68.75.1,1.55.81,1.72,1.54.16.67.15,2.9.07,3.62-.02.22-.22.85-.33,1.02-.02.04-.6.59-.63.61-.68.39-2.57.13-2.71.52-.19.52.76.91,1.03,1.34.41.65.54,1.92.24,2.62-.15.34-2.46,2.66-2.77,2.77-1,.33-1.79.2-2.62-.38-.41-.29-.98-1.17-1.44-.85-.25.18-.09,1.3-.14,1.7-.12.9-.85,1.77-1.77,1.92-.62.1-2.91.1-3.53,0-.83-.13-1.56-.87-1.72-1.69-.09-.48.08-1.86-.29-1.98-.61-.2-.83.59-1.16.84-.87.69-2.07.87-3.06.26-.31-.19-2.35-2.21-2.46-2.43-.39-.8-.33-1.9.11-2.68.2-.36,1.99-1.53.63-1.68-.97-.11-2.3.13-2.9-.96-.43-.78-.37-3.24-.3-4.21.06-.87.69-1.62,1.56-1.84.41-.11,1.88.02,2.01-.15.44-.6-.51-1.04-.78-1.37-.42-.54-.73-1.42-.6-2.1.22-1.16,2.64-3.57,3.86-3.68.66-.06,1.37.27,1.89.65.34.25.79,1.18,1.27.89.23-.14.13-1.5.19-1.86.22-1.34,1.21-1.84,2.45-1.95.67-.06,2.35-.07,2.98.07s1.47,1.11,1.6,1.74c.08.38-.17,2.49.72,2ZM807.19,126.74l-2.83.04c-.27,1.27.07,2.52-1.2,3.34-.82.53-1.77.49-2.61.05-.47-.24-1.08-1.21-1.48-1.16-.43.06-1.32,1.23-1.65,1.6-.12.14-.42.19-.44.29-.08.47.9,1.02,1.15,1.41.78,1.2.33,3.31-1.13,3.69-.49.13-2.13-.08-2.28.45-.08.3-.03,2.47.13,2.68.26.34,2.06.13,2.67.52.11.07.78,1.01.85,1.2.46,1.24-.07,2.12-.88,3.02-.16.17-.48.27-.49.29-.22.31,1.69,2.12,2.06,2.39.24.04.94-.87,1.2-1.05,1.67-1.15,3.68-.28,3.95,1.7.07.52-.23,1.51.37,1.62.35.07,2.62.04,2.75-.16-.48-2.49,1.61-4.79,3.98-3.16.34.23.94,1.17,1.28.99.13-.07,1.94-1.88,1.96-2.01.08-.4-.97-1.16-1.21-1.59-.81-1.48.06-3.33,1.74-3.56.59-.08,1.61.26,1.76-.51.06-.3.05-2.29-.07-2.48-.28-.46-.94-.16-1.25-.19-2.41-.28-3.26-2.31-1.73-4.21.3-.38.91-.46.76-1.1-.46-.19-1.72-1.79-2.02-1.82-.55-.06-1.08,1.03-1.4,1.18-.89.41-2.2.38-2.98-.25-.96-.77-.71-3.07-.96-3.22Z"/>
            <path d="M818.61,152.88c-2.22,1.82-4.79,3.17-7.58,3.91-.2.27,1.39,1.24,1.56,1.48.33.47.35.96,0,1.42-1.31.8-1.86-.43-2.69-1.13-.36-.3-1.03-.66-1.4-1.01-.79-.74-1.45-1.24-.65-2.32.42-.56,1.92-2.38,2.38-2.79,1.2-1.05,2.45-.35,1.86.94-.05.1-1.42,1.37-.71,1.28.92-.37,2.05-.74,2.92-1.2,4.4-2.31,7.88-6.83,9.11-11.6.25-.99.21-3.78,1.91-2.98.9.42.07,3.07-.15,3.9-1.03,3.85-3.5,7.58-6.57,10.1Z"/>
            <path d="M825.5,132.54c.16-.49,1.01-2.18,1.41-2.33.49-.18,1.46.29,1.39.96-.51,1.65-1.7,2.91-2.36,4.53-.3.34-1.01.3-1.42.17-.23-.08-3.61-2.04-3.77-2.19-.72-.71-.39-1.97.75-1.75.55.11,1.03.58,1.5.78.17.07.36.12.37-.09-1.21-4.13-3.8-7.8-7.33-10.26-1.26-.88-3.18-1.83-4.65-2.3-.65-.21-2.42-.46-2.83-.72-.62-.39-.47-1.66.31-1.8.44-.08,2.31.45,2.87.61,5.84,1.72,10.79,6.45,12.95,12.13.06.17.54,2.47.81,2.27Z"/>
            <path d="M787.86,138.83c.75.49,2.11,1.49,2.82,2.07.56.46,1.04,1.33.29,1.85-1.01.71-1.79-.7-2.57-1-.2-.08-.23.03-.21.21.08.59.66,2.03.92,2.62,1.93,4.41,5.81,8.13,10.35,9.79.8.29,2.14.5,2.76.79.77.36.59,2.03-.74,1.88-.74-.09-2.2-.62-2.94-.9-5.23-1.98-9.46-6.23-11.53-11.42-.13-.31-.74-2.7-.88-2.69-.27.28-.97,1.57-1.16,1.71-.94.67-2.16-.24-1.5-1.38.3-.51,2.27-3.28,2.65-3.6.58-.49,1.12-.33,1.73.06Z"/>
            <path d="M803.05,117.4c.16.21.21.69.13.95-.56.79-1.16,4-1.68,4.5-.3.29-1.4.27-1.57-.14-.11-.26-.13-1.07-.06-1.32.02-.06.2-.06.27-.27.1-.28.32-.8.19-1.08-1.73.55-3.36,1.34-4.86,2.37-2.9,1.99-5.78,5.62-6.88,9.01-.24.74-.69,3.5-.89,3.79s-1.19.41-1.45.26c-.86-.49.32-4.11.61-4.93,2.03-5.73,6.7-10.43,12.55-12.2.29-.38-1.76-.81-2.05-1.14-.62-.7-.03-1.89.95-1.67.74.51,4.38,1.37,4.74,1.86Z"/>
            <path d="M802.04,141.25c-1.85-1.92-1.76-5.43.22-7.2,3.42-3.05,8.87-.66,8.64,3.95-.23,4.58-5.74,6.48-8.86,3.25ZM808.3,135.84c-.05-.06-.95-.82-1.04-.87-1.68-.99-4.29.28-4.58,2.19-.33,2.26,1.58,4.19,3.86,3.71.95-.2,2.21-1.5,2.36-2.46.13-.8-.09-1.94-.6-2.57Z"/>
          </g>
        </g>
      </g>
    </g>
  </g>
</svg>