<?xml version="1.0" encoding="UTF-8"?>
<svg id="Layer_2" data-name="Layer 2" xmlns="http://www.w3.org/2000/svg" xmlns:xlink="http://www.w3.org/1999/xlink" viewBox="0 0 1121.26 383.38">
  <defs>
    <style>
      .cls-1 {
        fill: #0e685b;
      }

      .cls-2 {
        fill: #ffd420;
      }

      .cls-3 {
        fill: none;
        stroke: url(#linear-gradient);
        stroke-miterlimit: 10;
        stroke-width: 1.83px;
      }
    </style>
    <linearGradient id="linear-gradient" x1="18.78" y1="191.69" x2="1103.41" y2="191.69" gradientUnits="userSpaceOnUse">
      <stop offset="0" stop-color="#d7ecbe"/>
      <stop offset=".34" stop-color="#00c4bb"/>
      <stop offset=".64" stop-color="#d7ecbe"/>
      <stop offset=".95" stop-color="#00897a"/>
    </linearGradient>
  </defs>
  <g id="Layer_1-2" data-name="Layer 1">
    <path class="cls-3" d="M55.23.91h1011.72c19.62,0,35.54,15.92,35.54,35.54v310.47c0,19.62-15.93,35.54-35.54,35.54H55.23c-19.62,0-35.54-15.93-35.54-35.54V36.45C19.69,16.84,35.62.91,55.23.91Z"/>
    <g>
      <rect class="cls-2" x="0" y="55.81" width="40.53" height="37.18" rx="18.59" ry="18.59"/>
      <path class="cls-1" d="M17.76,74.53v10.2H7.56v-6.88c0-2.66.45-5.1,1.36-7.31.91-2.21,2.41-4.36,4.5-6.46l3.74,2.89c-2.44,2.72-3.82,5.24-4.16,7.56h4.76ZM32.97,74.53v10.2h-10.2v-6.88c0-2.66.45-5.1,1.36-7.31.91-2.21,2.41-4.36,4.5-6.46l3.74,2.89c-2.44,2.72-3.82,5.24-4.16,7.56h4.76Z"/>
    </g>
    <g>
      <rect class="cls-2" x="1080.73" y="307.75" width="40.53" height="37.18" rx="18.59" ry="18.59" transform="translate(2201.99 652.67) rotate(180)"/>
      <path class="cls-1" d="M1103.5,326.21v-10.2h10.2v6.88c0,2.66-.45,5.1-1.36,7.31-.91,2.21-2.41,4.36-4.5,6.46l-3.74-2.89c2.44-2.72,3.82-5.24,4.16-7.56h-4.76ZM1088.29,326.21v-10.2h10.2v6.88c0,2.66-.45,5.1-1.36,7.31-.91,2.21-2.41,4.36-4.5,6.46l-3.74-2.89c2.44-2.72,3.82-5.24,4.16-7.56h-4.76Z"/>
    </g>
  </g>
</svg>