<?xml version="1.0" encoding="UTF-8"?>
<svg id="Layer_2" data-name="Layer 2" xmlns="http://www.w3.org/2000/svg" viewBox="0 0 823.79 374.15">
  <defs>
    <style>
      .cls-1 {
        stroke: #ffd420;
        stroke-miterlimit: 10;
        stroke-width: 8px;
      }

      .cls-1, .cls-2 {
        fill: #0e685b;
      }

      .cls-3 {
        fill: #ffd420;
      }
    </style>
  </defs>
  <g id="Layer_1-2" data-name="Layer 1">
    <path class="cls-1" d="M748.9,90.08c-5.25-.75-9.3-4.89-9.84-10.19V8.23S43.66,4,43.66,4c-19.56,0-35.42,15.86-35.42,35.42v56.37l-4.23,147.14v45.37h70.9c5.25.75,9.3,4.89,9.84,10.19v71.66h699.64c19.56,0,35.42-15.86,35.42-35.42V90.08h-70.9Z"/>
    <g>
      <rect class="cls-3" x="259.59" y="36.99" width="40.53" height="37.18" rx="18.59" ry="18.59"/>
      <path class="cls-2" d="M277.35,55.71v10.2h-10.2v-6.88c0-2.66.45-5.1,1.36-7.31.91-2.21,2.41-4.36,4.5-6.46l3.74,2.89c-2.44,2.72-3.82,5.24-4.16,7.56h4.76ZM292.56,55.71v10.2h-10.2v-6.88c0-2.66.45-5.1,1.36-7.31.91-2.21,2.41-4.36,4.5-6.46l3.74,2.89c-2.44,2.72-3.82,5.24-4.16,7.56h4.76Z"/>
    </g>
    <g>
      <rect class="cls-3" x="705.56" y="266.84" width="40.53" height="37.18" rx="18.59" ry="18.59" transform="translate(1451.66 570.85) rotate(180)"/>
      <path class="cls-2" d="M728.34,285.3v-10.2h10.2v6.88c0,2.66-.45,5.1-1.36,7.31-.91,2.21-2.41,4.36-4.5,6.46l-3.74-2.89c2.44-2.72,3.82-5.24,4.16-7.56h-4.76ZM713.12,285.3v-10.2h10.2v6.88c0,2.66-.45,5.1-1.36,7.31-.91,2.21-2.41,4.36-4.5,6.46l-3.74-2.89c2.44-2.72,3.82-5.24,4.16-7.56h-4.76Z"/>
    </g>
  </g>
</svg>