<?xml version="1.0" encoding="UTF-8"?>
<svg id="Layer_2" data-name="Layer 2" xmlns="http://www.w3.org/2000/svg" viewBox="0 0 73.39 71.59">
  <defs>
    <style>
      .cls-1 {
        fill: #ffd420;
      }
    </style>
  </defs>
  <g id="Layer_1-2" data-name="Layer 1">
    <g>
      <g>
        <g>
          <path class="cls-1" d="M38.34,54.35c-.4,0-.72-.32-.72-.72s.32-.72.72-.72c1.88,0,10.2-.87,10.94-.95,1.55-.41,2.59-.99,2.99-1.69.23-.39.27-.83.12-1.35-.33-1.2-1.49-2.03-2.81-2.03h-11.16c-.19,0-.38-.08-.52-.22-.05-.05-4.74-4.82-8.6-4.64-2.15.1-7.51,3.07-10.52,4.83-4.04,2.37-7.61,4.75-7.65,4.77-.33.22-.78.13-1-.2-.22-.33-.13-.78.2-1,.04-.02,3.64-2.42,7.71-4.81,5.55-3.25,9.31-4.95,11.19-5.03,4.03-.18,8.44,3.85,9.48,4.86h10.86c1.97,0,3.69,1.27,4.2,3.09.25.9.16,1.72-.27,2.45-.63,1.08-1.91,1.86-3.93,2.37-.03,0-.07.01-.1.02-.37.04-9.11.97-11.15.97h0Z"/>
          <path class="cls-1" d="M17.36,62.88c-.22,0-.44-.1-.58-.29-.23-.32-.16-.77.16-1.01l1.41-1.04c1.41-1.04,2.84-2.08,4.11-3.01,2.34-1.72,5.63-1.62,9.5.28,2.28,1.12,4.11,2.53,4.78,3.07l16.18-2.73,17.75-13.25c-2.05-2.72-4.1-2.11-4.42-2l-12.67,7.71c-.34.21-.78.1-.99-.24-.21-.34-.1-.78.24-.99l12.72-7.74s.05-.03.08-.04c.1-.04.99-.41,2.26-.2,2.07.35,3.51,1.97,4.36,3.27.21.32.13.74-.17.97l-18.45,13.77c-.09.07-.2.11-.31.13l-16.67,2.82c-.21.04-.43-.03-.59-.16-.08-.07-8.11-6.91-12.75-3.5-1.27.93-2.7,1.98-4.11,3.02l-1.41,1.04c-.13.09-.28.14-.42.14h0Z"/>
        </g>
        <path class="cls-1" d="M12.91,71.59c-.25,0-.49-.13-.62-.35-.2-.34-.09-.78.25-.98l6.44-3.8-11.46-19.43-6.44,3.8c-.34.2-.78.09-.98-.25s-.09-.78.25-.98l7.06-4.16c.34-.2.78-.09.98.25l12.19,20.67c.1.16.12.36.08.55s-.17.34-.33.44l-7.06,4.16c-.11.07-.24.1-.37.1h0Z"/>
      </g>
      <g>
        <path class="cls-1" d="M58.27,39.79c-.41,0-.81-.13-1.17-.39l-7.5-5.45c-.19-.14-.45-.14-.64,0l-7.5,5.45c-.71.51-1.62.51-2.33,0s-.99-1.38-.72-2.22l2.87-8.82c.07-.22,0-.47-.2-.61l-7.5-5.45c-.71-.51-.99-1.38-.72-2.22.27-.83,1.01-1.37,1.89-1.37h9.27c.24,0,.44-.15.52-.38l2.87-8.82c.27-.83,1.01-1.37,1.89-1.37s1.62.54,1.89,1.37h0l2.87,8.82c.07.22.28.38.52.38h9.27c.87,0,1.62.54,1.89,1.37s-.01,1.7-.72,2.22l-7.5,5.45c-.19.14-.27.38-.2.61l2.87,8.82c.27.83-.01,1.7-.72,2.22-.35.26-.76.39-1.17.39h0ZM49.29,32.41c.41,0,.82.13,1.17.38l7.5,5.45c.3.22.56.05.64,0,.08-.05.31-.26.2-.61l-2.87-8.82c-.27-.82.02-1.71.72-2.22l7.5-5.45c.3-.22.23-.52.2-.61s-.15-.38-.52-.38h-9.27c-.86,0-1.62-.55-1.89-1.37l-2.87-8.82c-.11-.35-.42-.38-.52-.38s-.4.03-.52.38l-2.87,8.82c-.27.82-1.02,1.37-1.89,1.37h-9.27c-.37,0-.49.29-.52.38s-.1.39.2.61l7.5,5.45c.7.51.99,1.4.72,2.22l-2.87,8.82c-.11.35.12.55.2.61s.34.22.64,0l7.5-5.45c.35-.25.76-.38,1.17-.38h0Z"/>
        <path class="cls-1" d="M49.29,5.39c-.4,0-.72-.32-.72-.72V.72c0-.4.32-.72.72-.72s.72.32.72.72v3.95c0,.4-.32.72-.72.72Z"/>
        <path class="cls-1" d="M35.4,10.89c-.18,0-.37-.07-.51-.21l-2.79-2.79c-.28-.28-.28-.74,0-1.02.28-.28.74-.28,1.02,0l2.79,2.79c.28.28.28.74,0,1.02-.14.14-.33.21-.51.21h0Z"/>
        <path class="cls-1" d="M30,24.82h-3.95c-.4,0-.72-.32-.72-.72s.32-.72.72-.72h3.95c.4,0,.72.32.72.72s-.32.72-.72.72Z"/>
        <path class="cls-1" d="M72.67,24.67h-3.95c-.4,0-.72-.32-.72-.72s.32-.72.72-.72h3.95c.4,0,.72.32.72.72s-.32.72-.72.72h0Z"/>
        <path class="cls-1" d="M63.22,10.78c-.18,0-.37-.07-.51-.21-.28-.28-.28-.74,0-1.02l2.79-2.79c.28-.28.74-.28,1.02,0,.28.28.28.74,0,1.02l-2.79,2.79c-.14.14-.32.21-.51.21h0Z"/>
      </g>
    </g>
  </g>
</svg>