<?xml version="1.0" encoding="UTF-8"?>
<svg xmlns="http://www.w3.org/2000/svg" viewBox="0 0 382.13 218.26">
  <defs>
    <style>
      .cls-1 {
        isolation: isolate;
      }

      .cls-2 {
        fill: #ffd420;
      }

      .cls-3 {
        mix-blend-mode: multiply;
        opacity: .35;
      }
    </style>
  </defs>
  <g class="cls-1">
    <g id="Layer_2" data-name="Layer 2">
      <g id="Layer_1-2" data-name="Layer 1">
        <rect class="cls-3" width="382.13" height="218.26" rx="47.76" ry="47.76"/>
        <rect class="cls-2" x="298.95" y="17.12" width="68.44" height="62.78" rx="19.66" ry="19.66"/>
        <path d="M342.54,54.99c.16-.16.24-.37.24-.59v-14.1c0-.11-.02-.22-.06-.32-.04-.11-.1-.19-.18-.27-.08-.08-.17-.14-.27-.18-.11-.04-.21-.07-.32-.07h-14.1s0,0,0,0c-.22,0-.43.09-.59.24-.16.16-.25.37-.25.59,0,.46.37.83.83.83h12.09s-15,15-15,15c-.16.16-.25.37-.25.59s.09.43.24.59c.32.32.85.33,1.18,0l15-15v12.09c0,.46.37.83.83.83.22,0,.43-.09.59-.24Z"/>
        <path class="cls-2" d="M296.5,98.97c-5.25-.75-9.3-4.89-9.84-10.19V17.12H53.72c-19.56,0-35.42,15.86-35.42,35.42v113.17c0,19.56,15.86,35.42,35.42,35.42h279.18c19.06,0,34.51-15.45,34.51-34.51v-67.67h-70.9Z"/>
      </g>
    </g>
  </g>
</svg>