<?xml version="1.0" encoding="UTF-8"?>
<svg xmlns="http://www.w3.org/2000/svg" xmlns:xlink="http://www.w3.org/1999/xlink" viewBox="0 0 1089.73 979.3">
  <defs>
    <style>
      .cls-1 {
        stroke-width: 1.3px;
      }

      .cls-1, .cls-2 {
        stroke-linecap: round;
        stroke-linejoin: round;
      }

      .cls-1, .cls-2, .cls-3, .cls-4, .cls-5, .cls-6, .cls-7, .cls-8, .cls-9, .cls-10, .cls-11 {
        fill: none;
      }

      .cls-1, .cls-2, .cls-3, .cls-5, .cls-11 {
        stroke: #fdd221;
      }

      .cls-12, .cls-13 {
        fill: #fdd221;
      }

      .cls-2 {
        stroke-width: 1.52px;
      }

      .cls-3 {
        stroke-width: 1.36px;
      }

      .cls-3, .cls-4, .cls-5, .cls-6, .cls-7, .cls-8, .cls-9, .cls-10, .cls-11 {
        stroke-miterlimit: 10;
      }

      .cls-4 {
        stroke: url(#linear-gradient-4);
      }

      .cls-4, .cls-7, .cls-8, .cls-9, .cls-10 {
        mix-blend-mode: overlay;
        stroke-width: 1.83px;
      }

      .cls-5 {
        stroke-width: .92px;
      }

      .cls-14 {
        isolation: isolate;
      }

      .cls-6 {
        stroke: #008b7a;
      }

      .cls-7 {
        stroke: url(#linear-gradient-2);
      }

      .cls-13 {
        font-family: NexaBold, NexaBold;
        font-size: 30px;
      }

      .cls-8 {
        stroke: url(#linear-gradient-3);
      }

      .cls-15 {
        fill: #0f685b;
      }

      .cls-9 {
        stroke: url(#linear-gradient-5);
      }

      .cls-10 {
        stroke: url(#linear-gradient);
      }

      .cls-11 {
        stroke-width: .91px;
      }
    </style>
    <linearGradient id="linear-gradient" x1="78.54" y1="207.84" x2="429.47" y2="207.84" gradientUnits="userSpaceOnUse">
      <stop offset="0" stop-color="#d5eabc"/>
      <stop offset=".34" stop-color="#03c2b9"/>
      <stop offset=".64" stop-color="#d5eabc"/>
      <stop offset=".95" stop-color="#00877a"/>
    </linearGradient>
    <linearGradient id="linear-gradient-2" x1="623.08" y1="271.42" x2="974" y2="271.42" xlink:href="#linear-gradient"/>
    <linearGradient id="linear-gradient-3" x1="606.01" y1="609.47" x2="1056.94" y2="609.47" xlink:href="#linear-gradient"/>
    <linearGradient id="linear-gradient-4" x1="25.46" y1="546.92" x2="424.24" y2="546.92" xlink:href="#linear-gradient"/>
    <linearGradient id="linear-gradient-5" x1="339.1" y1="875.63" x2="737.88" y2="875.63" xlink:href="#linear-gradient"/>
  </defs>
  <g class="cls-14">
    <g id="Layer_2" data-name="Layer 2">
      <g id="Layer_1-2" data-name="Layer 1">
        <path class="cls-6" d="M693.4,247.11h-139.25c-6.6,0-12-5.4-12-12v-99.84"/>
        <path class="cls-6" d="M693.4,598.68h-139.25c-6.6,0-12-5.4-12-12v-99.84"/>
        <path class="cls-6" d="M390.9,174.34h139.25c6.6,0,12-5.4,12-12V22.5c0-6.6-5.4-22-12-22h-139.25"/>
        <path class="cls-6" d="M390.9,536.46h139.25c6.6,0,12-5.4,12-12V207.84"/>
        <line class="cls-6" x1="542.15" y1="896.29" x2="542.15" y2="524.46"/>
        <rect class="cls-15" x="53.08" y="68.89" width="409.18" height="285.22" rx="35.54" ry="35.54"/>
        <path class="cls-10" d="M357.66,175.66c-5.25-.75-9.3-4.89-9.84-10.19v-71.66H114.87c-19.56,0-35.42,15.86-35.42,35.42v157.22c0,19.56,15.86,35.42,35.42,35.42h313.68v-146.21h-70.9Z"/>
        <g>
          <path class="cls-12" d="M413.69,141.18v-11.15c0-.37-.3-.67-.67-.67s-.67.3-.67.67v11.15c0,.37.3.67.67.67s.67-.3.67-.67Z"/>
          <path class="cls-12" d="M419.51,144.33h-31.68c-.36,0-.66.29-.67.66-.07,3.22-1.01,6.36-2.7,9.1l-.28.45h-3.28c-3.78,0-6.85-3.07-6.85-6.85v-52.04h31.45c3.78,0,6.85,3.07,6.85,6.85v1.64c0,.37.3.67.67.67s.67-.3.67-.67v-1.64c0-4.52-3.67-8.19-8.19-8.19h-38.88c-4.62,0-8.38,3.76-8.38,8.38v7.56c0,.37.3.67.67.67h10.12c.37,0,.67-.3.67-.67s-.3-.67-.67-.67h-9.45v-6.89c0-3.88,3.16-7.04,7.04-7.04h6.09v52.05c0,4.52,3.67,8.19,8.19,8.19h28.41c5.99,0,10.87-4.88,10.87-10.87,0-.18-.07-.35-.2-.47-.13-.13-.3-.2-.47-.2h0ZM409.31,154.54h-23.55c1.61-2.69,2.55-5.73,2.72-8.86h30.34c-.35,4.94-4.48,8.86-9.51,8.86Z"/>
          <path class="cls-12" d="M406.23,106.9c0-.37-.3-.67-.67-.67h-24.73c-.37,0-.67.3-.67.67s.3.67.67.67h24.73c.37,0,.67-.3.67-.67Z"/>
          <path class="cls-12" d="M401.15,116.03c0-.37-.3-.67-.67-.67h-19.65c-.37,0-.67.3-.67.67s.3.67.67.67h19.65c.37,0,.67-.3.67-.67Z"/>
          <path class="cls-12" d="M395.17,125.17c0-.37-.3-.67-.67-.67h-13.7c-.37,0-.67.3-.67.67s.3.67.67.67h13.7c.37,0,.67-.3.67-.67Z"/>
          <path class="cls-12" d="M388.87,131.64l-5.15,5.15-2.44-2.44c-.26-.26-.69-.26-.95,0-.26.26-.26.69,0,.95l2.92,2.92c.13.13.3.2.47.2s.34-.07.47-.2l5.63-5.63c.26-.26.26-.69,0-.95s-.69-.26-.95,0h0Z"/>
          <path class="cls-12" d="M428.33,105.73c-.01-.18-.09-.34-.22-.46l-5.7-5.06c-.28-.25-.7-.22-.95.06l-3.14,3.54-20.86,23.48s0,0,0,0c0,.01-.02.02-.03.04,0,0,0,.01-.01.02,0,.01-.01.02-.02.03,0,0-.01.02-.02.03,0,0,0,.02-.01.03,0,.01-.01.02-.02.03,0,0,0,.02,0,.02,0,.01-.01.03-.02.04,0,0,0,0,0,0l-2.62,8.6c-.08.25,0,.52.19.69.13.11.29.17.45.17.09,0,.18-.02.26-.05l8.32-3.53s0,0,.01,0c.01,0,.02,0,.03-.02,0,0,.02-.01.03-.02,0,0,.02-.01.03-.02.01,0,.02-.01.03-.02,0,0,.01-.01.02-.02.01,0,.02-.02.03-.03,0,0,.01-.01.02-.02,0,0,.02-.02.03-.03h0s20.86-23.49,20.86-23.49l3.14-3.54c.12-.13.18-.31.17-.49h0ZM398.3,128.93l4.12,3.66-6.02,2.56,1.89-6.22ZM403.6,131.85l-4.7-4.17,19.97-22.48.85.76,3.84,3.41-19.97,22.48ZM424.46,108.36l-4.7-4.17,2.25-2.54,4.7,4.17-2.25,2.54Z"/>
        </g>
        <rect class="cls-15" x="597.61" y="155.07" width="409.18" height="240.02" rx="35.54" ry="35.54"/>
        <path class="cls-7" d="M902.2,261.84c-5.25-.75-9.3-4.89-9.84-10.19v-71.66h-232.95c-19.56,0-35.42,15.86-35.42,35.42v112.02c0,19.56,15.86,35.42,35.42,35.42h313.68v-101.01h-70.9Z"/>
        <rect class="cls-15" x="580.55" y="493.12" width="509.18" height="240.02" rx="35.54" ry="35.54"/>
        <path class="cls-8" d="M985.13,599.89c-5.25-.75-9.3-4.89-9.84-10.19v-71.66h-332.95c-19.56,0-35.42,15.86-35.42,35.42v112.02c0,19.56,15.86,35.42,35.42,35.42h413.68v-101.01h-70.9Z"/>
        <rect class="cls-15" y="430.57" width="457.03" height="240.02" rx="35.54" ry="35.54"/>
        <path class="cls-4" d="M352.44,537.34c-5.25-.75-9.3-4.89-9.84-10.19v-71.66H61.8c-19.56,0-35.42,15.86-35.42,35.42v112.02c0,19.56,15.86,35.42,35.42,35.42h361.53v-101.01h-70.9Z"/>
        <rect class="cls-15" x="313.63" y="779.28" width="457.03" height="200.02" rx="35.54" ry="35.54"/>
        <path class="cls-9" d="M666.07,886.05c-5.25-.75-9.3-4.89-9.84-10.19v-71.66h-280.8c-19.56,0-35.42,15.86-35.42,35.42v72.02c0,19.56,15.86,35.42,35.42,35.42h361.53v-61.01h-70.9Z"/>
        <g>
          <rect class="cls-1" x="903.19" y="181.13" width="69.9" height="43.43" rx="5.67" ry="5.67"/>
          <g>
            <line class="cls-2" x1="932.18" y1="225.04" x2="925.67" y2="233.52"/>
            <line class="cls-2" x1="944.1" y1="225.04" x2="950.61" y2="233.52"/>
          </g>
          <g>
            <circle class="cls-2" cx="938.14" cy="202.85" r="13.14"/>
            <line class="cls-2" x1="938.14" y1="194.36" x2="938.14" y2="202.85"/>
            <line class="cls-2" x1="946.32" y1="202.85" x2="937.84" y2="202.85"/>
          </g>
          <line class="cls-2" x1="956.11" y1="234.55" x2="920.17" y2="234.55"/>
        </g>
        <g>
          <g id="Generative_Object" data-name="Generative Object">
            <path class="cls-3" d="M365.26,466.94c2.24-.59,4.6,1.55,4.28,3.84-.27,1.89-4.56,4.96-6.08,6.94-9.92,12.92-.39,31.86,15.68,32.92,17.34,1.14,29.07-18.99,18.48-32.92-2.08-2.73-9.31-6.86-4.61-10.24s12.06,8.65,13.49,12.16c8.37,20.59-10.57,42.09-32.09,37.23s-29.28-31.49-13.43-46.82c.92-.89,3.1-2.79,4.28-3.1Z"/>
          </g>
          <text class="cls-13" transform="translate(366.41 497.72)"><tspan x="0" y="0">ai</tspan></text>
        </g>
        <g id="Generative_Object-2" data-name="Generative Object">
          <g>
            <path class="cls-12" d="M1003.81,570.32h33.3c.36.17.73.32,1.07.53.53.33,8.22,8.04,8.46,8.59s.26,1.03-.33,1.27c-.32.06-.55-.12-.8-.27-1.99-1.12-6.05-7.13-8.13-8.39-.33-.2-.74-.21-1.07-.4h-31.57c-.32.23-.67.08-1.07.27-1.89.88-6.85,7.86-8.66,8.66-.7.31-1.3-.15-1.13-.87.18-.75,8.07-7.63,8.99-8.99l.93-.4Z"/>
            <path class="cls-12" d="M1044.03,556.33c1.75-.55,6.82.41,8.92,0,.08.06.11,1.16.07,1.27-.18.4-8.41.32-8.86.2-.75-.2-.82-1.25-.13-1.47Z"/>
            <path class="cls-12" d="M987.16,556.33c1.82.4,7.57-.53,8.92,0,.09.03.22.26.33.33.04.41.02.98-.47,1.13-1.73.54-6.72-.41-8.79,0v-1.47Z"/>
            <path class="cls-12" d="M1019.39,524.36c.06-.04,1.34-.02,1.4.07-.4,1.97.53,7.06,0,8.66-.18.55-1.26.63-1.47-.13-.11-.41-.28-8.34.07-8.59Z"/>
            <path class="cls-12" d="M1049.76,543.81c.49,0,.99,1.07.8,1.33l-7.86,3.33c-.73-.36-.76-.95-.13-1.47l7.19-3.2Z"/>
            <path class="cls-12" d="M997.15,533.42c.73.75,6.09,5.63,6.19,6.06.22.91-.68,1.12-1.4.73-.36-.19-5.62-5.39-5.66-5.79-.03-.26.7-.77.87-1Z"/>
            <path class="cls-12" d="M997.15,565.66c.79-.05,1.2.71.67,1.33s-6.64,2.6-7.79,3.13l-.47-1.27,7.59-3.2Z"/>
            <path class="cls-12" d="M1042.57,565.66c.43-.12,8.01,2.96,8.06,3.4.01.09-.51,1.11-.6,1.13-.43.08-7.13-3.01-7.93-3.53-.13-.3.2-.93.47-1Z"/>
            <path class="cls-12" d="M990.09,543.81c.39-.16,7.44,3.02,7.73,3.33.46.51.06,1.29-.53,1.33-.86.06-6.56-3.1-7.79-3.53.19-.14.5-1.09.6-1.13Z"/>
            <path class="cls-12" d="M1032.05,526.63c.3.2,1.21.34,1.27.73s-2.91,7.32-3.26,7.53c-.31.18-1.01.04-1.13-.33-.25-.76,2.78-6.69,3.13-7.93Z"/>
            <path class="cls-12" d="M1008.07,526.63c.39.09,2.71,6.6,3.26,7.39.11.71-.54,1.09-1.13.87-.4-.15-2.92-6.73-3.26-7.66.04-.12,1.07-.61,1.13-.6Z"/>
            <path class="cls-12" d="M1043.37,540.61c.42-.06,1.04.92,1,1.13-.03.16-1.92,1.49-2.2,1.4-.06-.02-.61-.98-.73-1.13.37-.07,1.79-1.38,1.93-1.4Z"/>
            <path class="cls-12" d="M996.61,540.48l2.06,1.53-.73,1.13c-1.29-.87-3.08-1.09-1.33-2.66Z"/>
            <path class="cls-12" d="M1048.03,550.74c.41.09.61,1.23.4,1.47-.08.09-2.13.46-2.46.47.01-.28-.37-1.24-.2-1.4.09-.08,2.15-.56,2.26-.53Z"/>
            <path class="cls-12" d="M991.95,550.74c.14-.07,2.03.53,2.4.53.25,2.34-1.23,1.01-2.66.93-.17-.18.2-1.43.27-1.47Z"/>
            <path class="cls-12" d="M1046.16,561.39c.12-.04,2.42.6,2.46.73.02.06-.41.94-.27,1.2-.08.1-2.5-.37-2.6-.47s.22-1.41.4-1.47Z"/>
            <path class="cls-12" d="M993.95,561.39c.29.07.56,1.31.4,1.47-.09.09-2.37.55-2.46.47-.09-.08-.33-1.27-.2-1.4.09-.09,1.99-.31,2.26-.53Z"/>
            <path class="cls-12" d="M1014.73,528.76c.65.05,1.04,2.2,1,2.33-.09.26-1.13.3-1.4.47-.18-.99-1.26-2.92.4-2.8Z"/>
            <path class="cls-12" d="M1024.99,528.76l1.4.33-.6,2.46c-2.07-.25-.9-1.34-.8-2.8Z"/>
            <path class="cls-12" d="M1004.47,532.89c.54-.04,1.06,1.57,1.53,1.93l-1,.87c-.89-.97-2.34-2.01-.53-2.8Z"/>
            <path class="cls-12" d="M1035.51,532.76l1.2.67c.18.24-1.2,2.11-1.33,2.13-.07.01-1.13-.61-1.13-.87,0-.12,1.2-1.58,1.27-1.93Z"/>
            <g>
              <path class="cls-12" d="M1006.74,576.31h27.44c.07.11.3.24.33.33.11.28.11,5.71,0,5.99-.49,1.3-24.84-.31-27.77.33-.18-.13-.4-.24-.47-.47-.09-.27-.09-5.46,0-5.73.01-.03.43-.46.47-.47Z"/>
              <polygon class="cls-12" points="1007.8 577.78 1033.11 577.78 1033.18 581.44 1007.94 581.64 1007.8 577.78"/>
            </g>
            <g>
              <path class="cls-5" d="M1043.63,533.42c.06,0,.79.66.73.87-6.37,7.53-12.19,15.52-18.25,23.31-4.82,14.99-21.38-3.73-5.53-6.73l23.04-17.45Z"/>
              <path class="cls-12" d="M1019.13,552.6c6.91-1.05,7.36,9.38.8,9.19-5.53-.16-5.87-8.42-.8-9.19Z"/>
            </g>
          </g>
        </g>
        <g>
          <path class="cls-12" d="M677.32,853.88c.07-.01.95.58.85.85l-2.05,2.27c-.06.63,3.61-1.69,3.86-.45.19.96-2.6,1.23-1.99,1.53h45.46c.66-.21-1.66-.76-1.76-1.08-.66-2.04,3.64.43,3.75.23-.34-1.23-3.09-2.35-1.31-3.35.21-.02,2.72,2.83,2.9,3.13.19.31.42.49.34.91-.04.23-2.55,3.79-2.78,3.81-.06,0-.94-.6-.85-.85.21-.35,1.95-2.45,1.93-2.61-.13-1.01-3.55,1.61-3.81,1.76-5.79,3.34-11.66,6.56-17.39,10-.53.07-.63-.25-.85-.63l.4-.63c4.91-3.18,11.04-5.7,15.8-8.98.15-.1.68-.37.57-.57h-39.21c-.03.26.59.55.8.68,4.94,3.15,10.56,5.76,15.57,8.87.61.42.38,1.12-.34,1.25l-20.46-11.82-.85.06c.18.4,1.94,2.56,1.93,2.73,0,.1-.8.74-.85.74-.26-.02-2.88-3.87-2.78-4.26.06-.23,2.89-3.55,3.13-3.58Z"/>
          <path class="cls-12" d="M700.28,862.41l1.08.06v11.48l.23.11c.32-.2,1.96-1.85,2.1-1.88.31-.06.85.66.85.74,0,.23-3.24,3.06-3.47,3.13-.08.02-.48.02-.57,0-.22-.05-3.44-2.78-3.47-3.01-.02-.15.51-.85.74-.85s1.51,1.38,1.82,1.59c.12.08.53.46.63.17l.06-11.54Z"/>
          <path class="cls-12" d="M718.24,826.6c.13-.04.4.03.57,0l.28.28v28.19c-.31.36-.49.53-.97.28l-.28-.51v-27.73c.12-.12.22-.45.4-.51Z"/>
          <path class="cls-12" d="M683.74,827.4v26.6c-.03.48.13,1.01-.28,1.36-.48.25-.65.08-.97-.28v-28.07l.28-.4c.59-.11.95.17.97.8Z"/>
          <path class="cls-12" d="M704.14,809.33l20.57,11.59.85-.06c-.47-1.1-2.91-2.62-.85-3.24.43.9,2.89,3.4,2.67,4.26-.06.23-3,3.61-3.24,3.58-.05,0-.75-.58-.74-.74.01-.23,1.84-2,1.99-2.44-.62.04-4.25,1.99-3.69.17.17-.56,1.45-.36,1.65-.97l-19.32-10.91c-.53-.49-.4-.83.11-1.25Z"/>
          <path class="cls-12" d="M697.21,809.33c.57,0,1.06.92.34,1.25l-19.09,10.8-.11.34c.49.22,1.77.33,1.65,1.08-.19,1.14-3.01-.36-3.69-.51.04.54,1.85,2.18,1.88,2.44.02.2-.69.74-.74.74-.3,0-3.37-3.54-3.24-4.15.1-.48,2.4-2.95,2.67-3.69l.97.74-1.93,2.61,1.08-.06,20.23-11.59Z"/>
          <path class="cls-12" d="M700.51,803.3c.91-.19,3.15,2.45,4.03,3.01-.71,1.94-2-.48-2.96-1.02l-.23.11-.06,11.54-1.08-.06v-11.48l-.23-.11c-.3.22-2.07,1.87-2.22,1.88-.2,0-.74-.69-.74-.74,0-.23,3.24-3.08,3.47-3.13Z"/>
          <path class="cls-12" d="M683.74,827.4c-.46,8.67.62,18,0,26.6v-26.6Z"/>
          <g>
            <rect class="cls-11" x="686.94" y="846.84" width="28.03" height="8.63"/>
            <rect class="cls-11" x="689.01" y="838.21" width="23.89" height="8.63"/>
            <rect class="cls-11" x="691.54" y="829.57" width="18.82" height="8.63"/>
            <rect class="cls-11" x="693.66" y="820.94" width="14.58" height="8.63"/>
          </g>
        </g>
      </g>
    </g>
  </g>
</svg>