<?xml version="1.0" encoding="UTF-8"?>
<svg id="Layer_2" data-name="Layer 2" xmlns="http://www.w3.org/2000/svg" viewBox="0 0 492.52 126.7">
  <defs>
    <style>
      .cls-1 {
        fill: #0e685b;
      }

      .cls-2 {
        fill: #ffd420;
      }
    </style>
  </defs>
  <g id="Layer_1-2" data-name="Layer 1">
    <path class="cls-1" d="M421.06,44.85c-5.25.75-9.3,4.89-9.84,10.19v71.66H35.42C15.86,126.7,0,110.84,0,91.28v-55.86C0,15.86,15.86,0,35.42,0h434.11c12.39,0,22.43,10.04,22.43,22.43h0c0,12.39-10.04,22.43-22.43,22.43h-48.47Z"/>
    <g>
      <rect class="cls-2" x="424.08" y="63.35" width="68.44" height="62.78" rx="19.66" ry="19.66"/>
      <path d="M447.49,89.75c0,.22.09.43.24.59l9.97,9.97c.08.08.17.14.27.18.1.04.21.07.32.07.11,0,.21-.02.31-.06.11-.04.2-.1.27-.18l9.97-9.97h0c.16-.16.24-.37.24-.59,0-.22-.09-.43-.25-.59-.32-.32-.85-.32-1.18,0l-8.55,8.55h-1.67s-8.55-8.55-8.55-8.55c-.33-.32-.85-.32-1.18,0-.16.16-.24.37-.24.59Z"/>
    </g>
  </g>
</svg>