<?xml version="1.0" encoding="UTF-8"?>
<svg id="Layer_2" data-name="Layer 2" xmlns="http://www.w3.org/2000/svg" viewBox="0 0 70.09 61.58">
  <defs>
    <style>
      .cls-1 {
        fill: #ffd420;
      }
    </style>
  </defs>
  <g id="Layer_1-2" data-name="Layer 1">
    <g>
      <path class="cls-1" d="M55.44,46.88v-11.15c0-.37-.3-.67-.67-.67s-.67.3-.67.67v11.15c0,.37.3.67.67.67s.67-.3.67-.67Z"/>
      <path class="cls-1" d="M61.27,50.03h-31.68c-.36,0-.66.29-.67.66-.07,3.22-1.01,6.36-2.7,9.1l-.28.45h-3.28c-3.78,0-6.85-3.07-6.85-6.85V1.34h31.45c3.78,0,6.85,3.07,6.85,6.85v1.64c0,.37.3.67.67.67s.67-.3.67-.67v-1.64c0-4.52-3.67-8.19-8.19-8.19H8.38C3.76,0,0,3.76,0,8.38v7.56c0,.37.3.67.67.67h10.12c.37,0,.67-.3.67-.67s-.3-.67-.67-.67H1.34v-6.89c0-3.88,3.16-7.04,7.04-7.04h6.09v52.05c0,4.52,3.67,8.19,8.19,8.19h28.41c5.99,0,10.87-4.88,10.87-10.87,0-.18-.07-.35-.2-.47-.13-.13-.3-.2-.47-.2h0ZM51.06,60.23h-23.55c1.61-2.69,2.55-5.73,2.72-8.86h30.34c-.35,4.94-4.48,8.86-9.51,8.86Z"/>
      <path class="cls-1" d="M47.99,12.6c0-.37-.3-.67-.67-.67h-24.73c-.37,0-.67.3-.67.67s.3.67.67.67h24.73c.37,0,.67-.3.67-.67Z"/>
      <path class="cls-1" d="M42.91,21.73c0-.37-.3-.67-.67-.67h-19.65c-.37,0-.67.3-.67.67s.3.67.67.67h19.65c.37,0,.67-.3.67-.67Z"/>
      <path class="cls-1" d="M36.93,30.86c0-.37-.3-.67-.67-.67h-13.7c-.37,0-.67.3-.67.67s.3.67.67.67h13.7c.37,0,.67-.3.67-.67Z"/>
      <path class="cls-1" d="M30.63,37.34l-5.15,5.15-2.44-2.44c-.26-.26-.69-.26-.95,0-.26.26-.26.69,0,.95l2.92,2.92c.13.13.3.2.47.2s.34-.07.47-.2l5.63-5.63c.26-.26.26-.69,0-.95s-.69-.26-.95,0h0Z"/>
      <path class="cls-1" d="M70.09,11.43c-.01-.18-.09-.34-.22-.46l-5.7-5.06c-.28-.25-.7-.22-.95.06l-3.14,3.54-20.86,23.48s0,0,0,0c0,.01-.02.02-.03.04,0,0,0,.01-.01.02,0,.01-.01.02-.02.03,0,0-.01.02-.02.03,0,0,0,.02-.01.03,0,.01-.01.02-.02.03,0,0,0,.02,0,.02,0,.01-.01.03-.02.04,0,0,0,0,0,0l-2.62,8.6c-.08.25,0,.52.19.69.13.11.29.17.45.17.09,0,.18-.02.26-.05l8.32-3.53s0,0,.01,0c.01,0,.02,0,.03-.02,0,0,.02-.01.03-.02,0,0,.02-.01.03-.02.01,0,.02-.01.03-.02,0,0,.01-.01.02-.02.01,0,.02-.02.03-.03,0,0,.01-.01.02-.02,0,0,.02-.02.03-.03h0s20.86-23.49,20.86-23.49l3.14-3.54c.12-.13.18-.31.17-.49h0ZM40.05,34.63l4.12,3.66-6.02,2.56,1.89-6.22ZM45.36,37.55l-4.7-4.17,19.97-22.48.85.76,3.84,3.41-19.97,22.48ZM66.22,14.06l-4.7-4.17,2.25-2.54,4.7,4.17-2.25,2.54Z"/>
    </g>
  </g>
</svg>