<?xml version="1.0" encoding="UTF-8"?>
<svg id="Layer_2" data-name="Layer 2" xmlns="http://www.w3.org/2000/svg" viewBox="0 0 68.44 62.78">
  <defs>
    <style>
      .cls-1 {
        fill: #ffd420;
      }
    </style>
  </defs>
  <g id="Layer_1-2" data-name="Layer 1">
    <g>
      <rect class="cls-1" x="0" y="0" width="68.44" height="62.78" rx="19.66" ry="19.66"/>
      <path d="M43.59,37.87c.16-.16.24-.37.24-.59v-14.1c0-.11-.02-.22-.06-.32-.04-.11-.1-.19-.18-.27-.08-.08-.17-.14-.27-.18-.11-.04-.21-.07-.32-.07h-14.1s0,0,0,0c-.22,0-.43.09-.59.24-.16.16-.25.37-.25.59,0,.46.37.83.83.83h12.09s-15,15-15,15c-.16.16-.25.37-.25.59s.09.43.24.59c.32.32.85.33,1.18,0l15-15v12.09c0,.46.37.83.83.83.22,0,.43-.09.59-.24Z"/>
    </g>
  </g>
</svg>