<?xml version="1.0" encoding="UTF-8"?>
<svg xmlns="http://www.w3.org/2000/svg" xmlns:xlink="http://www.w3.org/1999/xlink" viewBox="0 0 409.18 285.22">
  <defs>
    <style>
      .cls-1 {
        fill: #f7d54f;
      }

      .cls-2 {
        isolation: isolate;
      }

      .cls-3 {
        fill: #2f665b;
      }

      .cls-4 {
        fill: none;
        mix-blend-mode: overlay;
        stroke: url(#linear-gradient);
        stroke-miterlimit: 10;
        stroke-width: 1.83px;
      }
    </style>
    <linearGradient id="linear-gradient" x1="25.46" y1="138.95" x2="376.39" y2="138.95" gradientUnits="userSpaceOnUse">
      <stop offset="0" stop-color="#daeac1"/>
      <stop offset=".34" stop-color="#58c0b9"/>
      <stop offset=".64" stop-color="#daeac1"/>
      <stop offset=".95" stop-color="#3b867a"/>
    </linearGradient>
  </defs>
  <g class="cls-2">
    <g id="Layer_2" data-name="Layer 2">
      <g id="Layer_1-2" data-name="Layer 1">
        <rect class="cls-3" x="0" width="409.18" height="285.22" rx="35.54" ry="35.54"/>
        <path class="cls-4" d="M304.58,106.77c-5.25-.75-9.3-4.89-9.84-10.19V24.92H61.8c-19.56,0-35.42,15.86-35.42,35.42v157.22c0,19.56,15.86,35.42,35.42,35.42h313.68V106.77h-70.9Z"/>
        <path class="cls-1" d="M360.61,72.29v-11.15c0-.37-.3-.67-.67-.67s-.67.3-.67.67v11.15c0,.37.3.67.67.67s.67-.3.67-.67Z"/>
        <path class="cls-1" d="M366.43,75.44h-31.68c-.36,0-.66.29-.67.66-.07,3.22-1.01,6.36-2.7,9.1l-.28.45h-3.28c-3.78,0-6.85-3.07-6.85-6.85V26.75h31.45c3.78,0,6.85,3.07,6.85,6.85v1.64c0,.37.3.67.67.67s.67-.3.67-.67v-1.64c0-4.52-3.67-8.19-8.19-8.19h-38.88c-4.62,0-8.38,3.76-8.38,8.38v7.56c0,.37.3.67.67.67h10.12c.37,0,.67-.3.67-.67s-.3-.67-.67-.67h-9.45v-6.89c0-3.88,3.16-7.04,7.04-7.04h6.09v52.05c0,4.52,3.67,8.19,8.19,8.19h28.41c5.99,0,10.87-4.88,10.87-10.87,0-.18-.07-.35-.2-.47-.13-.13-.3-.2-.47-.2h0ZM356.23,85.65h-23.55c1.61-2.69,2.55-5.73,2.72-8.86h30.34c-.35,4.94-4.48,8.86-9.51,8.86Z"/>
        <path class="cls-1" d="M353.15,38.01c0-.37-.3-.67-.67-.67h-24.73c-.37,0-.67.3-.67.67s.3.67.67.67h24.73c.37,0,.67-.3.67-.67Z"/>
        <path class="cls-1" d="M348.07,47.14c0-.37-.3-.67-.67-.67h-19.65c-.37,0-.67.3-.67.67s.3.67.67.67h19.65c.37,0,.67-.3.67-.67Z"/>
        <path class="cls-1" d="M342.1,56.28c0-.37-.3-.67-.67-.67h-13.7c-.37,0-.67.3-.67.67s.3.67.67.67h13.7c.37,0,.67-.3.67-.67Z"/>
        <path class="cls-1" d="M335.79,62.75l-5.15,5.15-2.44-2.44c-.26-.26-.69-.26-.95,0-.26.26-.26.69,0,.95l2.92,2.92c.13.13.3.2.47.2s.34-.07.47-.2l5.63-5.63c.26-.26.26-.69,0-.95s-.69-.26-.95,0h0Z"/>
        <path class="cls-1" d="M375.26,36.84c-.01-.18-.09-.34-.22-.46l-5.7-5.06c-.28-.25-.7-.22-.95.06l-3.14,3.54-20.86,23.48s0,0,0,0c0,.01-.02.02-.03.04,0,0,0,.01-.01.02,0,.01-.01.02-.02.03,0,0-.01.02-.02.03,0,0,0,.02-.01.03,0,.01-.01.02-.02.03,0,0,0,.02,0,.02,0,.01-.01.03-.02.04,0,0,0,0,0,0l-2.62,8.6c-.08.25,0,.52.19.69.13.11.29.17.45.17.09,0,.18-.02.26-.05l8.32-3.53s0,0,.01,0c.01,0,.02,0,.03-.02,0,0,.02-.01.03-.02,0,0,.02-.01.03-.02.01,0,.02-.01.03-.02,0,0,.01-.01.02-.02.01,0,.02-.02.03-.03,0,0,.01-.01.02-.02,0,0,.02-.02.03-.03h0s20.86-23.49,20.86-23.49l3.14-3.54c.12-.13.18-.31.17-.49h0ZM345.22,60.04l4.12,3.66-6.02,2.56,1.89-6.22ZM350.53,62.96l-4.7-4.17,19.97-22.48.85.76,3.84,3.41-19.97,22.48ZM371.39,39.47l-4.7-4.17,2.25-2.54,4.7,4.17-2.25,2.54Z"/>
      </g>
    </g>
  </g>
</svg>