<?xml version="1.0" encoding="UTF-8"?>
<svg xmlns="http://www.w3.org/2000/svg" xmlns:xlink="http://www.w3.org/1999/xlink" viewBox="0 0 511.56 591.31">
  <defs>
    <style>
      .cls-1 {
        fill: url(#radial-gradient-2);
      }

      .cls-1, .cls-2 {
        mix-blend-mode: color-dodge;
      }

      .cls-3 {
        fill: #00897a;
        stroke: url(#linear-gradient-2);
      }

      .cls-3, .cls-4 {
        stroke-miterlimit: 10;
        stroke-width: 1.83px;
      }

      .cls-5 {
        fill: #0e685b;
      }

      .cls-6 {
        isolation: isolate;
      }

      .cls-2 {
        fill: url(#radial-gradient);
      }

      .cls-7 {
        fill: #ffd420;
      }

      .cls-4 {
        fill: none;
        mix-blend-mode: overlay;
        stroke: url(#linear-gradient);
      }
    </style>
    <linearGradient id="linear-gradient" x1="25.46" y1="293.52" x2="485.94" y2="293.52" gradientUnits="userSpaceOnUse">
      <stop offset="0" stop-color="#d7ecbe"/>
      <stop offset=".34" stop-color="#00c4bb"/>
      <stop offset=".64" stop-color="#d7ecbe"/>
      <stop offset=".95" stop-color="#00897a"/>
    </linearGradient>
    <linearGradient id="linear-gradient-2" y1="442.95" x2="485.85" y2="442.95" xlink:href="#linear-gradient"/>
    <radialGradient id="radial-gradient" cx="-28558.42" cy="-4027.48" fx="-28558.42" fy="-4027.48" r="121.43" gradientTransform="translate(4210.16 -587.98) rotate(-90) scale(.04 1)" gradientUnits="userSpaceOnUse">
      <stop offset="0" stop-color="#70cccc"/>
      <stop offset="1" stop-color="#000" stop-opacity="0"/>
    </radialGradient>
    <radialGradient id="radial-gradient-2" cx="-22647.58" cy="-3926.75" fx="-22647.58" fy="-3926.75" r="134.51" xlink:href="#radial-gradient"/>
  </defs>
  <g class="cls-6">
    <g id="Layer_2" data-name="Layer 2">
      <g id="Layer_1-2" data-name="Layer 1">
        <rect class="cls-5" width="511.56" height="591.31" rx="35.72" ry="35.72"/>
        <path class="cls-4" d="M414.13,106.77c-5.25-.75-9.3-4.89-9.84-10.19V24.92H61.8c-19.56,0-35.42,15.86-35.42,35.42v485.99c0,19.56,15.86,15.42,35.42,15.42h423.23V106.77h-70.9Z"/>
        <path class="cls-3" d="M414.04,405.63c-5.25-.75-9.3-4.89-9.84-10.19v-71.66H61.8c-19.56,0-35.42,15.86-35.42,35.42v187.12c0,19.56,15.86,15.42,35.42,15.42h423.13v-156.12h-70.9Z"/>
        <rect class="cls-7" x="418.3" y="323.79" width="68.44" height="62.78" rx="19.66" ry="19.66"/>
        <ellipse class="cls-2" cx="182.59" cy="561.75" rx="121.44" ry="4.89"/>
        <path class="cls-1" d="M258.33,318.9c67.07,0,171.44,2.19,171.44,4.89,0,2.7-104.37,4.89-171.44,4.89-67.07,0-121.44-2.19-121.44-4.89,0-2.7,54.37-4.89,121.44-4.89Z"/>
        <path class="cls-7" d="M450.42,35.18c-12.54,0-22.75,10.21-22.75,22.75s10.21,22.75,22.75,22.75,22.75-10.21,22.75-22.75-10.21-22.75-22.75-22.75ZM450.42,78.85c-11.53,0-20.92-9.38-20.92-20.92s9.38-20.92,20.92-20.92,20.92,9.38,20.92,20.92-9.38,20.92-20.92,20.92Z"/>
        <path class="cls-7" d="M480.85,70.13l-2.24-2.16.21-.62c.36-1.1.66-2.22.9-3.35l.13-.64,3.02-.75v-9.31l-3.02-.75-.13-.64c-.23-1.13-.53-2.26-.9-3.35l-.21-.62,2.24-2.16-4.66-8.07-3,.86-.44-.49c-.77-.86-1.59-1.68-2.45-2.45l-.49-.44.86-3-8.07-4.66-2.16,2.23-.62-.21c-1.09-.36-2.22-.66-3.35-.9l-.64-.13-.75-3.02h-9.31l-.75,3.02-.64.13c-1.13.23-2.26.53-3.35.9l-.62.21-2.16-2.23-8.07,4.66.86,3-.49.44c-.86.77-1.68,1.59-2.45,2.45l-.44.49-3-.86-4.66,8.07,2.24,2.16-.21.62c-.36,1.09-.66,2.22-.9,3.35l-.13.64-3.02.75v9.31l3.02.75.13.64c.23,1.13.53,2.26.9,3.35l.21.62-2.24,2.16,4.66,8.07,3-.86.44.49c.76.86,1.59,1.68,2.45,2.45l.49.44-.86,3,8.07,4.66,2.16-2.24.62.21c1.09.36,2.22.66,3.35.9l.64.13.76,3.02h9.31l.75-3.02.64-.13c1.13-.23,2.26-.53,3.35-.9l.62-.21,2.16,2.24,8.07-4.66-.86-3,.49-.44c.86-.77,1.68-1.59,2.45-2.45l.44-.49,3,.86,4.66-8.07ZM472.55,75.25c-1.4,1.73-3.08,3.41-4.82,4.82l.79,2.77-5.59,3.23-2-2.07c-2.08.8-4.37,1.41-6.59,1.76l-.7,2.79h-6.45l-.7-2.79c-2.2-.34-4.49-.96-6.59-1.76l-2,2.07-5.59-3.23.79-2.77c-1.73-1.4-3.41-3.08-4.82-4.82l-2.77.79-3.23-5.59,2.07-2c-.8-2.08-1.41-4.37-1.76-6.59l-2.79-.7v-6.45l2.79-.7c.34-2.2.96-4.49,1.76-6.59l-2.07-2,3.23-5.59,2.77.79c1.4-1.73,3.08-3.41,4.82-4.82l-.79-2.77,5.59-3.23,2,2.06c2.07-.8,4.37-1.41,6.59-1.76l.7-2.79h6.45l.7,2.79c2.2.34,4.5.96,6.59,1.76l2-2.07,5.59,3.23-.79,2.77c1.73,1.4,3.41,3.08,4.82,4.82l2.77-.79,3.23,5.59-2.07,2c.8,2.07,1.41,4.37,1.76,6.59l2.79.7v6.45l-2.79.7c-.34,2.2-.96,4.49-1.76,6.59l2.07,2-3.23,5.59-2.77-.79Z"/>
        <rect class="cls-7" x="449.5" y="42.56" width="1.83" height="1.83"/>
        <rect class="cls-7" x="449.5" y="71.48" width="1.83" height="1.83"/>
        <rect class="cls-7" x="463.96" y="57.02" width="1.83" height="1.83"/>
        <rect class="cls-7" x="435.04" y="57.02" width="1.83" height="1.83"/>
        <rect class="cls-7" x="439.28" y="46.79" width="1.83" height="1.83"/>
        <rect class="cls-7" x="459.73" y="67.24" width="1.83" height="1.83"/>
        <rect class="cls-7" x="459.73" y="46.79" width="1.83" height="1.83"/>
        <rect class="cls-7" x="439.28" y="67.24" width="1.83" height="1.83"/>
        <polygon class="cls-7" points="449.5 49.92 449.5 58.85 458.43 58.85 458.43 57.02 451.33 57.02 451.34 49.92 449.5 49.92"/>
        <path d="M455.57,366.96h2.69c.15-2.2.66-4.37,1.6-6.37.21-.46,1.88-3.49,2.05-3.67.46-.47,1.19-.13,1.41.4.3.73-1.5,3.12-1.89,3.95-.98,2.1-1.33,4.2-1.6,6.48-.11.91.19,1.85-.17,2.74-.28.68-1.27,1.08-1.35,1.22-.31.54.16,1.78-.82,2.88-.24.28-.79.45-.91.66-.21.36-.08,1.08-.21,1.59-.68,2.77-6.61,2.75-7.07.08-.08-.48.1-1.09-.05-1.52-.11-.34-1.19-.79-1.51-1.41-.4-.8-.1-1.36-.29-1.95-.11-.34-.72-.5-.99-.81-1.18-1.35-.63-3.19-.8-4.81-.67-6.35-5.81-9.06-3.55-16.17,1.09-3.42,4.64-6.87,8.23-7.48.78-.13,1.96-.36,2.04.56.09,1.15-2.8,1.38-3.86,1.88-2.9,1.39-5.08,4.73-5.3,7.94-.34,5.08,4.57,8.57,4.03,13.8h2.92v-9.87c-1.67.04-3.35.25-4.31-1.41-2.72-4.7,5.28-7.61,6.08-1.82.05.37-.03,1.6.02,1.66.08.08,1.47-.06,1.8,0-.54-3.69,2.28-3.61,1.79,0,.61.01,1.2.05,1.8-.11.83-.22,1.49-1.51,2.24-.68,1.35,1.49-2.87,2.97-4.04,2.36v9.87ZM449.67,352.67c-2.56-2.07-4.34,3.81.51,2.85-.03-.84.21-2.26-.51-2.85ZM453.78,357.09h-1.79v9.53s-.34.25-.22.33h2.02s0-9.87,0-9.87ZM458.26,368.53h-10.77c-.06,1.26-.08,1.68,1.22,1.81,2.76.27,5.95-.23,8.76-.01.8-.15.82-1.16.79-1.8ZM456.47,371.9h-7.07c-.49,0-.44,1.52.26,1.76.37.13,5.77.12,6.2,0,.74-.22.63-1.13.61-1.75ZM454.67,375.49h-3.81c-.08,1.17.07,1.47,1.22,1.58,1.47.14,3.01.34,2.59-1.58Z"/>
        <path d="M466.39,336.18c.08.06,1.79.66,1.89.67.52.05,1.19-.72,1.88-.53.3.08,2.08,1.75,2.25,2.03.68,1.17-.36,1.71-.2,2.65.02.09.63,1.62.69,1.68.3.34,1.42.19,1.8,1.01.26.56.25,2.31.12,2.93-.28,1.26-1.44.91-1.95,1.64-.12.17-.68,1.61-.68,1.77,0,.57.68,1,.39,1.97-.06.18-2.02,2.21-2.21,2.29-.86.4-1.51-.58-2.26-.45-.1.02-1.59.7-1.67.77-.48.41-.4,1.54-1.15,1.76-.41.12-2.88.12-3.28,0-.7-.21-.57-1.35-1.29-1.85-.13-.09-1.58-.71-1.67-.72-.48,0-1.2.77-1.97.56-.16-.04-2.21-2.03-2.29-2.22-.44-.94.49-1.49.29-2.52-.05-.23-.6-1.34-.75-1.51-.46-.49-1.43-.38-1.63-1.06-.11-.37-.12-3.18,0-3.51.22-.64,1.48-.53,1.78-.97.08-.12.64-1.64.65-1.77.05-.74-.62-1.23-.35-2.12.06-.21,2.06-2.26,2.21-2.31.93-.32,1.5.66,2.41.43.12-.03,1.5-.64,1.56-.7.39-.33.41-1.43.83-1.69.52-.33,3.02-.32,3.61-.04.82.38.68,1.53,1,1.8ZM464.52,336.03c-.13-.08-1.66-.07-1.74,0s-.22,1.2-.53,1.49c-.23.21-3.19,1.22-3.59,1.14-.59-.12-.64-.65-1.41-.2-1.52.88-.09,1.59-.16,2.33-.01.17-1.18,3-1.28,3.14-.28.42-1.51.4-1.6.75-.49,1.99.96,1.42,1.59,2.2.1.12,1.21,2.66,1.24,2.81.15.71-.75,1.34-.38,1.91,1.14,1.78,1.56.22,2.55.37.15.02,2.72,1.12,2.85,1.2.59.4.53,1.39.83,1.46,2.24.52,1.5-.83,2.33-1.46.12-.09,2.69-1.18,2.85-1.21.66-.1,1.29.69,1.63.53.13-.06,1.06-1.04,1.08-1.16.06-.3-.48-.81-.41-1.52.02-.16,1.05-2.79,1.14-2.92.46-.61,1.38-.29,1.55-1.14.37-1.87-.92-1.11-1.58-2.01-.28-.37-1.17-2.88-1.11-3.36.08-.6.63-.77.24-1.37-.96-1.48-1.52-.23-2.58-.33-.41-.04-2.94-1.25-3.15-1.58-.18-.28-.28-1.02-.38-1.08Z"/>
        <path d="M435.38,338.02l-1.24,1.79c-4.46,8.05-4.82,17.97-.97,26.33.41.89,2.37,3.86,2.44,4.31.16,1.03-.75,1.36-1.46.77-.26-.22-1.91-3.13-2.17-3.66-4.68-9.49-4.2-21.91,2.06-30.55-.74.04-2.63.14-1.91-1.24.28-.53,3.72-1.16,4.29-.69.35.29.87,3.4.72,3.9-.4,1.35-2.01.37-1.76-.96Z"/>
        <path d="M467.91,376.61c1.1-.51,2.26.84,1.36,1.47-.25.18-2.77.15-3.27.1-1.02-.11-1.25-.4-1.25-1.46,0-.71.18-3.29.85-3.45,1.11-.28.93,1.39,1.08,1.99,4.06-3.52,7-7.86,8.47-13.06.67-2.36,1.29-5.7,1.31-8.14,0-.9-.98-5.07.67-4.72.7.15.78,1.19.85,1.83,1.04,9.47-3.09,19.18-10.07,25.43Z"/>
        <path d="M452.35,336.7c2.26-.76,1.79,5.3-.05,3.81-.49-.39-.53-3.61.05-3.81Z"/>
        <path d="M439.81,347.05c.58.59.18,1.57-.71,1.52-.64-.04-3.77-1.68-2.5-2.72.51-.42,2.82.81,3.21,1.2Z"/>
        <path d="M443.6,338.95c.77-.15,2.4,2.74,2.17,3.27-.27.61-1.02.75-1.53.29-.1-.09-1.24-2.16-1.29-2.31-.14-.46.23-1.16.65-1.24Z"/>
        <path d="M463.38,339.64c7.3-.39,8.04,10.83.83,11.39-7.83.61-8.2-10.99-.83-11.39ZM462.92,341.44c-2.02.34-3.48,2.45-3.22,4.44.48,3.63,5.32,4.71,7.28,1.64,1.94-3.05-.59-6.66-4.06-6.08Z"/>
      </g>
    </g>
  </g>
</svg>