<?xml version="1.0" encoding="UTF-8"?>
<svg id="Layer_2" data-name="Layer 2" xmlns="http://www.w3.org/2000/svg" viewBox="0 0 53 67.35">
  <defs>
    <style>
      .cls-1 {
        fill: #00c4bb;
      }
    </style>
  </defs>
  <g id="Layer_1-2" data-name="Layer 1">
    <path class="cls-1" d="M51.14,45.06l-3.36-3.36c-.18-.19-.3-.46-.3-.72v-11.56c0-8.47-3.89-18.3-12.54-22.16C34.29,3.34,31.06.28,27.1.03c-2.36-.2-4.67.62-6.46,2.3-1.4,1.31-2.31,3.06-2.59,4.94-8.63,3.87-12.53,13.69-12.53,22.15v11.56c0,.26-.12.54-.3.72l-3.36,3.36c-1.2,1.2-1.87,2.8-1.87,4.5,0,3.51,2.85,6.36,6.36,6.36h7.12c.88,6.44,6.35,11.43,13.03,11.43s12.15-5,13.02-11.43h7.12c3.51,0,6.36-2.85,6.36-6.36,0-1.7-.66-3.3-1.87-4.5ZM26.5,61.86c-3.64,0-6.68-2.55-7.49-5.94h14.98c-.81,3.4-3.85,5.94-7.49,5.94ZM46.64,50.43H6.36c-.48,0-.87-.39-.87-.87,0-.24.09-.45.25-.61l3.36-3.37c1.21-1.21,1.91-2.89,1.91-4.6v-11.56c0-6.83,3.3-15.25,10.53-17.63l1.89-.62v-2.61c0-.84.35-1.65.97-2.23.41-.39,1.08-.83,2.03-.83.09,0,.17,0,.26.01,1.6.1,2.86,1.5,2.86,3.19v2.47l1.89.62c7.24,2.38,10.54,10.81,10.54,17.63v11.56c0,1.71.69,3.39,1.91,4.6l3.36,3.37h0c.17.17.25.38.25.61,0,.48-.39.87-.87.87Z"/>
  </g>
</svg>