<?xml version="1.0" encoding="UTF-8"?>
<svg xmlns="http://www.w3.org/2000/svg" xmlns:xlink="http://www.w3.org/1999/xlink" viewBox="0 0 527.19 556.43">
  <defs>
    <style>
      .cls-1 {
        fill: #00897a;
        stroke: url(#linear-gradient-2);
      }

      .cls-1, .cls-2 {
        stroke-miterlimit: 10;
        stroke-width: 1.83px;
      }

      .cls-3 {
        fill: #0e685b;
      }

      .cls-4 {
        isolation: isolate;
      }

      .cls-5 {
        fill: #ffd420;
      }

      .cls-2 {
        fill: none;
        mix-blend-mode: overlay;
        stroke: url(#linear-gradient);
      }
    </style>
    <linearGradient id="linear-gradient" x1="33.79" y1="166.53" x2="485.44" y2="166.53" gradientUnits="userSpaceOnUse">
      <stop offset="0" stop-color="#d7ecbe"/>
      <stop offset=".34" stop-color="#00c4bb"/>
      <stop offset=".64" stop-color="#d7ecbe"/>
      <stop offset=".95" stop-color="#00897a"/>
    </linearGradient>
    <linearGradient id="linear-gradient-2" x1="39.32" y1="439.08" x2="488.34" y2="439.08" xlink:href="#linear-gradient"/>
  </defs>
  <g class="cls-4">
    <g id="Layer_2" data-name="Layer 2">
      <g id="Layer_1-2" data-name="Layer 1">
        <path class="cls-3" d="M512.07,556.43H15.13c-8.32,0-15.13-7.15-15.13-15.89V15.89C0,7.15,6.81,0,15.13,0h496.94c8.32,0,15.13,7.15,15.13,15.89v524.66c0,8.74-6.81,15.89-15.13,15.89Z"/>
        <g>
          <path class="cls-5" d="M450.66,34.71c-10.55,0-19.14,8.58-19.14,19.14s8.58,19.14,19.14,19.14,19.14-8.58,19.14-19.14-8.58-19.14-19.14-19.14ZM450.66,71.44c-9.7,0-17.59-7.89-17.59-17.59s7.89-17.59,17.59-17.59,17.59,7.89,17.59,17.59-7.89,17.59-17.59,17.59Z"/>
          <path class="cls-5" d="M476.26,64.1l-1.88-1.82.17-.53c.3-.92.56-1.87.75-2.82l.11-.54,2.54-.63v-7.83l-2.54-.63-.11-.54c-.2-.95-.45-1.9-.75-2.82l-.17-.53,1.88-1.82-3.92-6.78-2.52.72-.37-.41c-.64-.72-1.34-1.42-2.06-2.06l-.41-.37.72-2.52-6.78-3.92-1.82,1.88-.53-.17c-.92-.3-1.87-.56-2.82-.75l-.54-.11-.63-2.54h-7.83l-.63,2.54-.54.11c-.95.2-1.9.45-2.82.75l-.53.17-1.82-1.88-6.78,3.92.72,2.52-.41.37c-.72.64-1.42,1.34-2.06,2.06l-.37.41-2.52-.72-3.92,6.78,1.88,1.82-.17.53c-.3.92-.56,1.87-.75,2.82l-.11.54-2.54.63v7.83l2.54.63.11.54c.2.95.45,1.9.75,2.82l.17.53-1.88,1.82,3.92,6.78,2.52-.72.37.41c.64.72,1.34,1.41,2.06,2.06l.41.37-.72,2.52,6.78,3.92,1.82-1.88.53.17c.92.3,1.87.56,2.82.75l.54.11.64,2.54h7.83l.63-2.54.54-.11c.95-.2,1.9-.45,2.82-.75l.53-.17,1.82,1.88,6.78-3.92-.72-2.52.41-.37c.72-.64,1.42-1.34,2.06-2.06l.37-.41,2.52.72,3.92-6.78ZM469.28,68.4c-1.18,1.45-2.59,2.86-4.06,4.06l.67,2.33-4.7,2.71-1.68-1.74c-1.75.67-3.68,1.19-5.55,1.48l-.59,2.35h-5.43l-.59-2.35c-1.85-.29-3.78-.81-5.54-1.48l-1.68,1.74-4.7-2.71.67-2.33c-1.45-1.18-2.87-2.59-4.06-4.06l-2.33.67-2.71-4.7,1.74-1.68c-.67-1.75-1.19-3.68-1.48-5.55l-2.35-.59v-5.43l2.35-.59c.29-1.85.81-3.78,1.48-5.55l-1.74-1.68,2.71-4.7,2.33.67c1.18-1.45,2.59-2.87,4.06-4.06l-.67-2.33,4.7-2.71,1.68,1.74c1.74-.67,3.68-1.19,5.55-1.48l.59-2.35h5.43l.59,2.35c1.85.29,3.78.81,5.55,1.48l1.68-1.74,4.7,2.71-.67,2.33c1.45,1.18,2.87,2.59,4.06,4.06l2.33-.67,2.71,4.7-1.74,1.68c.67,1.75,1.19,3.68,1.48,5.55l2.35.59v5.43l-2.35.59c-.29,1.85-.81,3.78-1.48,5.55l1.74,1.68-2.71,4.7-2.33-.67Z"/>
          <rect class="cls-5" x="449.89" y="40.91" width="1.54" height="1.54"/>
          <rect class="cls-5" x="449.89" y="65.23" width="1.54" height="1.54"/>
          <rect class="cls-5" x="462.05" y="53.07" width="1.54" height="1.54"/>
          <rect class="cls-5" x="437.73" y="53.07" width="1.54" height="1.54"/>
          <rect class="cls-5" x="441.29" y="44.47" width="1.54" height="1.54"/>
          <rect class="cls-5" x="458.49" y="61.67" width="1.54" height="1.54"/>
          <rect class="cls-5" x="458.49" y="44.47" width="1.54" height="1.54"/>
          <rect class="cls-5" x="441.29" y="61.67" width="1.54" height="1.54"/>
          <polygon class="cls-5" points="449.89 47.1 449.89 54.61 457.4 54.61 457.4 53.07 451.43 53.07 451.43 47.1 449.89 47.1"/>
        </g>
        <rect class="cls-5" x="426.27" y="342.44" width="61.5" height="56.4" rx="13.36" ry="13.36"/>
        <path class="cls-2" d="M421.89,96.85c-4.72-.67-8.36-4.39-8.84-9.15V23.31H66.53c-17.58,0-31.83,14.25-31.83,31.83v222.79c0,17.58,14.25,31.83,31.83,31.83l418.01-1.06V95.79l-62.64,1.06Z"/>
        <path class="cls-1" d="M423.72,415.98c-4.72-.67-8.36-4.39-8.84-9.15v-64.39H72.06c-17.58,0-31.83,14.25-31.83,31.83v129.63c0,17.58,14.25,31.83,31.83,31.83h415.37v-119.74h-63.7Z"/>
        <g id="doy9g1">
          <g>
            <path d="M458.58,381.04h2.03c.11-1.66.5-3.3,1.21-4.8.16-.34,1.41-2.63,1.54-2.76.34-.35.9-.1,1.06.3.23.55-1.13,2.35-1.42,2.97-.74,1.58-1,3.16-1.2,4.88-.08.69.14,1.39-.13,2.07-.21.51-.96.81-1.02.92-.23.41.12,1.34-.62,2.17-.18.21-.59.34-.69.5-.16.27-.06.82-.16,1.2-.52,2.08-4.98,2.07-5.33.06-.06-.36.07-.82-.04-1.15-.08-.25-.9-.6-1.13-1.06-.3-.6-.07-1.03-.22-1.47-.08-.25-.54-.38-.74-.61-.89-1.01-.47-2.4-.6-3.62-.51-4.79-4.38-6.83-2.67-12.18.82-2.58,3.5-5.18,6.2-5.63.59-.1,1.48-.27,1.53.42.07.86-2.11,1.04-2.91,1.42-2.19,1.05-3.83,3.57-3.99,5.98-.26,3.83,3.45,6.46,3.04,10.4h2.2v-7.44c-1.26.03-2.52.19-3.25-1.06-2.05-3.54,3.98-5.73,4.58-1.37.04.28-.03,1.21.02,1.25.06.06,1.1-.04,1.35,0-.4-2.78,1.72-2.72,1.35,0,.46,0,.9.04,1.36-.08.62-.16,1.12-1.14,1.69-.51,1.02,1.13-2.16,2.24-3.04,1.78v7.44ZM454.14,370.27c-1.93-1.56-3.27,2.87.39,2.15-.02-.63.16-1.71-.39-2.15ZM457.23,373.6h-1.35v7.18s-.25.19-.17.25h1.52s0-7.44,0-7.44ZM460.61,382.22h-8.11c-.05.95-.06,1.27.92,1.36,2.08.2,4.49-.17,6.6,0,.6-.11.62-.87.59-1.35ZM459.26,384.76h-5.33c-.37,0-.33,1.15.2,1.32.28.09,4.35.09,4.67,0,.56-.16.47-.85.46-1.32ZM457.91,387.46h-2.87c-.06.88.05,1.11.92,1.19,1.11.11,2.27.25,1.95-1.19Z"/>
            <path d="M466.74,357.84c.06.05,1.35.5,1.43.51.39.03.89-.54,1.41-.4.22.06,1.57,1.32,1.69,1.53.51.89-.27,1.29-.15,2,.01.07.48,1.22.52,1.27.22.26,1.07.14,1.36.76.2.42.19,1.74.09,2.21-.21.95-1.08.69-1.47,1.24-.09.13-.52,1.21-.51,1.33,0,.43.52.75.29,1.48-.04.14-1.52,1.66-1.66,1.73-.65.3-1.14-.44-1.7-.34-.08.01-1.2.53-1.26.58-.36.31-.3,1.16-.87,1.33-.31.09-2.17.09-2.47,0-.53-.16-.43-1.02-.97-1.39-.1-.07-1.19-.54-1.26-.54-.36,0-.9.58-1.48.42-.12-.03-1.66-1.53-1.73-1.67-.33-.71.37-1.13.22-1.9-.03-.18-.45-1.01-.57-1.13-.35-.37-1.07-.29-1.23-.8-.08-.28-.09-2.39,0-2.65.16-.48,1.12-.4,1.34-.73.06-.09.48-1.23.49-1.33.04-.56-.47-.92-.26-1.6.05-.16,1.55-1.7,1.67-1.74.7-.24,1.13.5,1.81.33.09-.02,1.13-.49,1.18-.53.29-.25.31-1.08.63-1.28.39-.25,2.27-.24,2.72-.03.62.29.51,1.15.76,1.36ZM465.32,357.73c-.1-.06-1.25-.05-1.31,0s-.16.91-.4,1.12c-.17.15-2.4.92-2.71.86-.45-.09-.48-.49-1.06-.15-1.15.66-.07,1.2-.12,1.76-.01.13-.89,2.26-.96,2.37-.21.32-1.14.3-1.2.56-.37,1.5.72,1.07,1.2,1.66.07.09.91,2.01.94,2.12.11.53-.56,1.01-.28,1.44.86,1.34,1.17.17,1.92.28.12.02,2.05.84,2.15.91.44.3.4,1.05.62,1.1,1.69.39,1.13-.63,1.76-1.1.09-.07,2.03-.89,2.15-.91.5-.07.97.52,1.23.4.09-.04.8-.78.82-.88.04-.23-.36-.61-.31-1.14.01-.12.79-2.1.86-2.2.35-.46,1.04-.22,1.17-.86.28-1.41-.7-.84-1.19-1.51-.21-.28-.88-2.17-.83-2.53.06-.45.47-.58.18-1.03-.73-1.12-1.15-.17-1.94-.25-.31-.03-2.21-.94-2.37-1.19-.13-.21-.21-.77-.28-.81Z"/>
            <path d="M443.36,359.23l-.93,1.35c-3.36,6.07-3.63,13.54-.73,19.84.31.67,1.78,2.91,1.84,3.25.12.78-.56,1.02-1.1.58-.2-.17-1.44-2.36-1.64-2.76-3.53-7.15-3.16-16.51,1.55-23.02-.56.03-1.98.11-1.44-.93.21-.4,2.8-.88,3.23-.52.26.22.66,2.56.54,2.94-.3,1.01-1.52.28-1.32-.72Z"/>
            <path d="M467.88,388.31c.83-.39,1.7.64,1.02,1.11-.19.13-2.09.11-2.46.07-.77-.08-.94-.3-.94-1.1,0-.54.14-2.48.64-2.6.84-.21.7,1.05.81,1.5,3.06-2.65,5.27-5.92,6.39-9.84.5-1.78.97-4.29.98-6.13,0-.68-.74-3.82.51-3.56.53.11.59.89.64,1.38.78,7.13-2.33,14.45-7.59,19.16Z"/>
            <path d="M456.15,358.24c1.7-.57,1.35,4-.04,2.87-.37-.3-.4-2.72.04-2.87Z"/>
            <path d="M446.7,366.04c.44.45.14,1.18-.53,1.14-.49-.03-2.84-1.26-1.89-2.05.39-.32,2.13.61,2.42.91Z"/>
            <path d="M449.56,359.93c.58-.11,1.81,2.07,1.63,2.46-.21.46-.77.56-1.15.22-.07-.07-.94-1.63-.97-1.74-.1-.34.18-.88.49-.94Z"/>
            <path d="M464.47,360.45c5.5-.3,6.06,8.16.62,8.58-5.9.46-6.18-8.28-.62-8.58ZM464.12,361.81c-1.52.26-2.62,1.85-2.42,3.34.36,2.74,4.01,3.55,5.48,1.24,1.46-2.29-.44-5.02-3.06-4.58Z"/>
          </g>
        </g>
      </g>
    </g>
  </g>
</svg>