<?xml version="1.0" encoding="UTF-8"?>
<svg xmlns="http://www.w3.org/2000/svg" xmlns:xlink="http://www.w3.org/1999/xlink" viewBox="0 0 527.19 528.73">
  <defs>
    <style>
      .cls-1 {
        fill: #00897a;
        stroke: url(#linear-gradient-2);
      }

      .cls-1, .cls-2 {
        stroke-miterlimit: 10;
        stroke-width: 1.83px;
      }

      .cls-3 {
        fill: #0e685b;
      }

      .cls-4 {
        isolation: isolate;
      }

      .cls-5 {
        fill: #ffd420;
      }

      .cls-2 {
        fill: none;
        mix-blend-mode: overlay;
        stroke: url(#linear-gradient);
      }
    </style>
    <linearGradient id="linear-gradient" x1="33.79" y1="158.83" x2="485.44" y2="158.83" gradientUnits="userSpaceOnUse">
      <stop offset="0" stop-color="#d7ecbe"/>
      <stop offset=".34" stop-color="#00c4bb"/>
      <stop offset=".64" stop-color="#d7ecbe"/>
      <stop offset=".95" stop-color="#00897a"/>
    </linearGradient>
    <linearGradient id="linear-gradient-2" x1="39.32" y1="411.38" x2="488.34" y2="411.38" xlink:href="#linear-gradient"/>
  </defs>
  <g class="cls-4">
    <g id="Layer_2" data-name="Layer 2">
      <g id="Layer_1-2" data-name="Layer 1">
        <path class="cls-3" d="M512.07,528.73H15.13c-8.32,0-15.13-6.79-15.13-15.1V15.1C0,6.79,6.81,0,15.13,0h496.94c8.32,0,15.13,6.79,15.13,15.1v498.54c0,8.3-6.81,15.1-15.13,15.1Z"/>
        <path class="cls-2" d="M421.89,104.15c-4.72-.67-8.36-4.39-8.84-9.15V30.61H66.53c-17.58,0-31.83,14.25-31.83,31.83v192.79c0,17.58,14.25,31.83,31.83,31.83l418.01-1.06V103.08l-62.64,1.06Z"/>
        <path class="cls-1" d="M423.72,393.28c-4.72-.67-8.36-4.39-8.84-9.15v-64.39H72.06c-17.58,0-31.83,14.25-31.83,31.83v119.63c0,17.58,14.25,31.83,31.83,31.83h415.37v-109.74h-63.7Z"/>
        <g>
          <path class="cls-5" d="M475.08,73.17v-10.02c0-.33-.27-.6-.6-.6s-.6.27-.6.6v10.02c0,.33.27.6.6.6s.6-.27.6-.6Z"/>
          <path class="cls-5" d="M480.32,76h-28.47c-.33,0-.6.26-.6.59-.06,2.89-.9,5.72-2.43,8.17l-.25.4h-2.94c-3.39,0-6.15-2.76-6.15-6.15v-46.76h28.25c3.39,0,6.15,2.76,6.15,6.15v1.47c0,.33.27.6.6.6s.6-.27.6-.6v-1.47c0-4.06-3.3-7.36-7.36-7.36h-34.93c-4.15,0-7.53,3.38-7.53,7.53v6.79c0,.33.27.6.6.6h9.09c.33,0,.6-.27.6-.6s-.27-.6-.6-.6h-8.49v-6.19c0-3.49,2.84-6.32,6.32-6.32h5.47v46.76c0,4.06,3.3,7.36,7.36,7.36h25.53c5.39,0,9.77-4.38,9.77-9.77,0-.16-.06-.31-.18-.43-.11-.11-.27-.18-.43-.18h0ZM471.15,85.17h-21.16c1.45-2.42,2.29-5.15,2.45-7.96h27.26c-.31,4.44-4.02,7.96-8.54,7.96Z"/>
          <path class="cls-5" d="M468.38,42.36c0-.33-.27-.6-.6-.6h-22.22c-.33,0-.6.27-.6.6s.27.6.6.6h22.22c.33,0,.6-.27.6-.6Z"/>
          <path class="cls-5" d="M463.82,50.57c0-.33-.27-.6-.6-.6h-17.65c-.33,0-.6.27-.6.6s.27.6.6.6h17.65c.33,0,.6-.27.6-.6Z"/>
          <path class="cls-5" d="M458.45,58.78c0-.33-.27-.6-.6-.6h-12.31c-.33,0-.6.27-.6.6s.27.6.6.6h12.31c.33,0,.6-.27.6-.6Z"/>
          <path class="cls-5" d="M452.78,64.6l-4.63,4.63-2.2-2.2c-.24-.24-.62-.24-.85,0-.24.24-.24.62,0,.85l2.62,2.62c.12.12.27.18.43.18s.31-.06.43-.18l5.06-5.06c.24-.24.24-.62,0-.85s-.62-.24-.85,0h0Z"/>
          <path class="cls-5" d="M488.24,41.32c0-.16-.08-.31-.2-.42l-5.12-4.55c-.25-.22-.63-.2-.85.05l-2.83,3.18-18.74,21.1s0,0,0,0c0,.01-.02.02-.03.03,0,0,0,.01-.01.02,0,0-.01.02-.02.03,0,0,0,.02-.01.02,0,0,0,.02-.01.02,0,.01-.01.02-.01.03,0,0,0,.01,0,.02,0,.01,0,.02-.01.04,0,0,0,0,0,0l-2.35,7.72c-.07.22,0,.47.17.62.11.1.26.15.4.15.08,0,.16-.02.24-.05l7.47-3.18s0,0,.01,0c0,0,.02,0,.03-.01,0,0,.02,0,.03-.01,0,0,.02,0,.02-.01,0,0,.02-.01.03-.02,0,0,.01,0,.02-.01,0,0,.02-.02.03-.02,0,0,.01-.01.02-.02,0,0,.02-.02.03-.03h0s18.74-21.11,18.74-21.11l2.83-3.18c.11-.12.16-.28.15-.44h0ZM461.26,62.16l3.71,3.29-5.41,2.3,1.7-5.59ZM466.02,64.78l-4.22-3.75,17.94-20.2.77.68,3.45,3.07-17.94,20.2ZM484.77,43.68l-4.22-3.75,2.03-2.28,4.22,3.75-2.03,2.28Z"/>
        </g>
        <g>
          <rect class="cls-5" x="426.27" y="319.74" width="61.5" height="56.4" rx="13.36" ry="13.36"/>
          <g id="roVOvI">
            <g>
              <path d="M460.8,339.68c.06-.03.49-.63.69-.77.83-.6,1.6-.78,2.56-.32.17.08,1.99,1.79,2.13,1.98.5.66.58,1.54.28,2.29-.24.61-.9.91-1.08,1.35-.35.82,1.2.55,1.62.61.67.09,1.39.73,1.54,1.39.14.6.14,2.6.06,3.26-.02.2-.2.76-.3.91-.02.03-.53.53-.57.55-.61.35-2.31.11-2.44.46-.17.47.68.82.93,1.21.37.59.49,1.73.22,2.36-.13.31-2.21,2.39-2.49,2.48-.9.3-1.61.18-2.35-.34-.37-.26-.88-1.05-1.3-.76-.23.16-.08,1.17-.13,1.53-.11.8-.76,1.59-1.59,1.72-.56.09-2.61.09-3.17,0-.75-.12-1.4-.78-1.54-1.51-.08-.43.07-1.67-.26-1.78-.55-.18-.75.53-1.04.76-.79.62-1.86.78-2.75.23-.28-.17-2.11-1.98-2.21-2.19-.35-.72-.3-1.71.1-2.41.18-.32,1.79-1.38.57-1.51-.87-.1-2.07.12-2.61-.86-.39-.71-.34-2.91-.27-3.79.06-.79.62-1.46,1.4-1.66.37-.09,1.69.02,1.8-.14.4-.54-.46-.93-.7-1.23-.38-.48-.65-1.27-.54-1.88.2-1.04,2.37-3.21,3.47-3.3.59-.05,1.23.24,1.69.58.31.22.71,1.06,1.14.8.21-.13.12-1.35.17-1.67.2-1.21,1.09-1.65,2.2-1.75.61-.05,2.11-.06,2.67.06s1.32,1,1.44,1.56c.07.34-.15,2.24.64,1.79ZM458.26,338.06l-2.54.04c-.24,1.14.06,2.27-1.07,3-.73.48-1.59.44-2.35.05-.43-.22-.97-1.09-1.33-1.04-.39.05-1.19,1.11-1.49,1.44-.11.13-.38.17-.39.26-.07.42.8.92,1.03,1.26.7,1.08.3,2.98-1.02,3.32-.44.12-1.92-.07-2.04.41-.07.27-.03,2.22.12,2.41.24.3,1.85.12,2.4.47.09.06.7.9.77,1.08.41,1.12-.06,1.9-.79,2.71-.14.16-.43.24-.44.26-.2.28,1.51,1.91,1.86,2.14.21.04.84-.78,1.07-.94,1.5-1.03,3.31-.26,3.55,1.53.06.47-.21,1.36.33,1.45.32.06,2.36.03,2.47-.15-.43-2.23,1.45-4.3,3.58-2.84.3.21.85,1.05,1.15.89.12-.06,1.74-1.69,1.77-1.81.07-.35-.87-1.04-1.08-1.43-.73-1.33.05-2.99,1.56-3.19.53-.07,1.45.23,1.58-.46.05-.27.04-2.06-.06-2.23-.25-.42-.84-.14-1.13-.17-2.16-.25-2.93-2.08-1.55-3.78.27-.34.82-.41.68-.99-.41-.17-1.55-1.61-1.82-1.64-.5-.06-.97.92-1.26,1.06-.8.37-1.97.34-2.68-.23-.86-.69-.64-2.76-.86-2.9Z"/>
              <path d="M468.53,361.55c-1.99,1.63-4.31,2.85-6.81,3.52-.18.24,1.25,1.11,1.4,1.33.29.43.32.86,0,1.28-1.18.72-1.67-.39-2.42-1.02-.32-.27-.92-.59-1.26-.91-.71-.66-1.3-1.12-.58-2.09.38-.5,1.72-2.14,2.14-2.51,1.08-.95,2.2-.31,1.67.85-.04.09-1.28,1.23-.64,1.15.83-.33,1.84-.67,2.62-1.08,3.95-2.08,7.08-6.14,8.19-10.42.23-.89.19-3.4,1.72-2.68.81.38.07,2.76-.13,3.5-.93,3.46-3.14,6.81-5.9,9.07Z"/>
              <path d="M474.72,343.27c.14-.44.9-1.96,1.27-2.1.44-.16,1.31.26,1.24.86-.46,1.48-1.53,2.61-2.12,4.07-.27.3-.91.27-1.27.15-.21-.07-3.24-1.83-3.38-1.97-.65-.64-.35-1.77.68-1.57.5.1.93.52,1.34.7.15.06.33.11.33-.08-1.09-3.71-3.42-7.01-6.58-9.22-1.13-.79-2.86-1.64-4.18-2.07-.59-.19-2.18-.42-2.54-.65-.56-.35-.42-1.49.28-1.62.4-.07,2.08.4,2.58.55,5.25,1.54,9.7,5.8,11.64,10.9.06.15.49,2.22.72,2.04Z"/>
              <path d="M440.9,348.93c.67.44,1.9,1.34,2.53,1.86.5.41.93,1.2.26,1.67-.91.64-1.61-.63-2.31-.9-.18-.07-.21.02-.19.19.07.53.59,1.82.83,2.36,1.73,3.97,5.22,7.3,9.3,8.8.71.26,1.93.45,2.48.71.69.32.53,1.83-.66,1.69-.66-.08-1.98-.55-2.64-.81-4.7-1.78-8.5-5.6-10.36-10.26-.11-.28-.66-2.42-.79-2.42-.24.26-.87,1.41-1.04,1.54-.84.61-1.94-.22-1.34-1.24.27-.46,2.04-2.95,2.38-3.23.52-.44,1.01-.29,1.55.06Z"/>
              <path d="M454.54,329.67c.14.19.19.62.12.86-.5.71-1.04,3.6-1.51,4.04-.27.26-1.26.24-1.41-.12-.1-.23-.12-.96-.05-1.18.02-.06.18-.06.24-.24.09-.25.29-.72.17-.97-1.56.49-3.02,1.21-4.36,2.13-2.61,1.79-5.2,5.05-6.19,8.09-.22.66-.62,3.15-.8,3.41s-1.07.37-1.31.23c-.78-.44.29-3.69.55-4.43,1.83-5.15,6.02-9.37,11.27-10.97.26-.34-1.58-.72-1.84-1.02-.56-.63-.03-1.69.86-1.5.66.46,3.93,1.23,4.26,1.67Z"/>
              <path d="M453.63,351.1c-1.66-1.72-1.58-4.88.2-6.47,3.07-2.74,7.97-.59,7.76,3.55-.2,4.12-5.16,5.83-7.96,2.92ZM459.26,346.24c-.05-.06-.85-.74-.94-.78-1.51-.89-3.86.25-4.11,1.97-.3,2.03,1.42,3.76,3.46,3.34.86-.18,1.98-1.35,2.12-2.21.12-.72-.08-1.74-.54-2.31Z"/>
            </g>
          </g>
        </g>
      </g>
    </g>
  </g>
</svg>