<?xml version="1.0" encoding="UTF-8"?>
<svg xmlns="http://www.w3.org/2000/svg" xmlns:xlink="http://www.w3.org/1999/xlink" viewBox="0 0 527.19 528.73">
  <defs>
    <style>
      .cls-1 {
        fill: #00897a;
        stroke: url(#linear-gradient-2);
      }

      .cls-1, .cls-2 {
        stroke-miterlimit: 10;
        stroke-width: 1.83px;
      }

      .cls-3 {
        fill: #0e685b;
      }

      .cls-4 {
        isolation: isolate;
      }

      .cls-5 {
        fill: #ffd420;
      }

      .cls-2 {
        fill: none;
        mix-blend-mode: overlay;
        stroke: url(#linear-gradient);
      }
    </style>
    <linearGradient id="linear-gradient" x1="33.79" y1="174.47" x2="485.44" y2="174.47" gradientUnits="userSpaceOnUse">
      <stop offset="0" stop-color="#d7ecbe"/>
      <stop offset=".34" stop-color="#00c4bb"/>
      <stop offset=".64" stop-color="#d7ecbe"/>
      <stop offset=".95" stop-color="#00897a"/>
    </linearGradient>
    <linearGradient id="linear-gradient-2" x1="39.32" y1="427.02" x2="488.34" y2="427.02" xlink:href="#linear-gradient"/>
  </defs>
  <g class="cls-4">
    <g id="Layer_2" data-name="Layer 2">
      <g id="Layer_1-2" data-name="Layer 1">
        <path class="cls-3" d="M512.07,528.73H15.13c-8.32,0-15.13-6.79-15.13-15.1V15.1C0,6.79,6.81,0,15.13,0h496.94c8.32,0,15.13,6.79,15.13,15.1v498.54c0,8.3-6.81,15.1-15.13,15.1Z"/>
        <g>
          <g>
            <g>
              <path class="cls-5" d="M453.74,75.41c-.31,0-.57-.25-.57-.57s.25-.57.57-.57c1.49,0,8.08-.69,8.67-.75,1.23-.32,2.05-.78,2.37-1.34.18-.31.21-.66.1-1.07-.26-.95-1.18-1.61-2.23-1.61h-8.84c-.15,0-.3-.06-.41-.17-.04-.04-3.76-3.82-6.81-3.68-1.7.08-5.95,2.43-8.33,3.83-3.2,1.88-6.03,3.76-6.06,3.78-.26.17-.62.1-.79-.16-.17-.26-.1-.62.16-.79.03-.02,2.88-1.92,6.11-3.81,4.4-2.58,7.38-3.92,8.86-3.99,3.19-.15,6.69,3.05,7.51,3.85h8.61c1.56,0,2.93,1.01,3.33,2.45.2.71.13,1.36-.21,1.94-.5.85-1.51,1.47-3.12,1.88-.03,0-.05.01-.08.01-.29.03-7.22.77-8.83.77h0Z"/>
              <path class="cls-5" d="M437.12,82.17c-.18,0-.35-.08-.46-.23-.19-.25-.13-.61.12-.8l1.12-.82c1.12-.82,2.25-1.65,3.26-2.39,1.85-1.36,4.46-1.29,7.53.22,1.81.89,3.26,2.01,3.78,2.44l12.82-2.16,14.06-10.49c-1.63-2.15-3.25-1.67-3.5-1.58l-10.04,6.11c-.27.16-.62.08-.78-.19-.16-.27-.08-.62.19-.78l10.08-6.13s.04-.02.07-.03c.08-.03.79-.33,1.79-.16,1.64.27,2.78,1.56,3.45,2.59.16.25.1.59-.14.77l-14.62,10.91c-.07.05-.16.09-.25.11l-13.21,2.23c-.17.03-.34-.02-.47-.13-.06-.05-6.43-5.48-10.1-2.77-1.01.74-2.14,1.57-3.26,2.39l-1.12.82c-.1.07-.22.11-.34.11h0Z"/>
            </g>
            <path class="cls-5" d="M433.6,89.07c-.2,0-.39-.1-.49-.28-.16-.27-.07-.62.2-.78l5.1-3.01-9.08-15.4-5.1,3.01c-.27.16-.62.07-.78-.2s-.07-.62.2-.78l5.6-3.3c.27-.16.62-.07.78.2l9.66,16.38c.08.13.1.29.06.43s-.13.27-.26.35l-5.6,3.3c-.09.05-.19.08-.29.08h0Z"/>
          </g>
          <g>
            <path class="cls-5" d="M469.54,63.87c-.32,0-.64-.1-.92-.31l-5.94-4.32c-.15-.11-.35-.11-.51,0l-5.94,4.32c-.56.41-1.29.41-1.85,0-.56-.41-.78-1.1-.57-1.76l2.27-6.99c.06-.18,0-.37-.16-.48l-5.94-4.32c-.56-.41-.78-1.1-.57-1.76.21-.66.8-1.09,1.49-1.09h7.35c.19,0,.35-.12.41-.3l2.27-6.99c.21-.66.8-1.09,1.49-1.09s1.28.43,1.49,1.09h0l2.27,6.99c.06.18.22.3.41.3h7.35c.69,0,1.28.43,1.49,1.09s0,1.35-.57,1.76l-5.94,4.32c-.15.11-.21.3-.16.48l2.27,6.99c.21.66,0,1.35-.57,1.76-.28.2-.6.31-.92.31h0ZM462.42,58.02c.32,0,.65.1.92.3l5.94,4.32c.23.17.45.04.51,0,.06-.04.25-.21.16-.48l-2.27-6.99c-.21-.65.02-1.36.57-1.76l5.94-4.32c.23-.17.18-.41.16-.48s-.12-.3-.41-.3h-7.35c-.68,0-1.28-.44-1.49-1.09l-2.27-6.99c-.09-.28-.34-.3-.41-.3s-.32.02-.41.3l-2.27,6.99c-.21.65-.81,1.09-1.49,1.09h-7.35c-.29,0-.39.23-.41.3s-.08.31.16.48l5.94,4.32c.55.4.78,1.11.57,1.76l-2.27,6.99c-.09.28.1.44.16.48s.27.17.51,0l5.94-4.32c.28-.2.6-.3.92-.3h0Z"/>
            <path class="cls-5" d="M462.42,36.62c-.31,0-.57-.25-.57-.57v-3.13c0-.31.25-.57.57-.57s.57.25.57.57v3.13c0,.31-.25.57-.57.57Z"/>
            <path class="cls-5" d="M451.41,40.98c-.15,0-.29-.06-.4-.17l-2.21-2.21c-.22-.22-.22-.58,0-.81.22-.22.58-.22.81,0l2.21,2.21c.22.22.22.58,0,.81-.11.11-.26.17-.4.17h0Z"/>
            <path class="cls-5" d="M447.14,52.02h-3.13c-.31,0-.57-.25-.57-.57s.25-.57.57-.57h3.13c.31,0,.57.25.57.57s-.25.57-.57.57Z"/>
            <path class="cls-5" d="M480.95,51.89h-3.13c-.31,0-.57-.25-.57-.57s.25-.57.57-.57h3.13c.31,0,.57.25.57.57s-.25.57-.57.57h0Z"/>
            <path class="cls-5" d="M473.46,40.89c-.15,0-.29-.06-.4-.17-.22-.22-.22-.58,0-.81l2.21-2.21c.22-.22.58-.22.81,0,.22.22.22.58,0,.81l-2.21,2.21c-.11.11-.26.17-.4.17h0Z"/>
          </g>
        </g>
        <path class="cls-2" d="M421.89,104.78c-4.72-.67-8.36-4.39-8.84-9.15V31.25H66.53c-17.58,0-31.83,14.25-31.83,31.83v222.79c0,17.58,14.25,31.83,31.83,31.83l418.01-1.06V103.72l-62.64,1.06Z"/>
        <path class="cls-1" d="M423.72,423.92c-4.72-.67-8.36-4.39-8.84-9.15v-64.39H72.06c-17.58,0-31.83,14.25-31.83,31.83v89.63c0,17.58,14.25,31.83,31.83,31.83h415.37v-79.74h-63.7Z"/>
      </g>
    </g>
  </g>
</svg>