<?xml version="1.0" encoding="UTF-8"?>
<svg id="Layer_1" data-name="Layer 1" xmlns="http://www.w3.org/2000/svg" viewBox="0 0 612 201.68">
  <defs>
    <style>
      .cls-1 {
        fill: #0e685b;
      }

      .cls-2 {
        fill: #00c4bb;
      }
    </style>
  </defs>
  <path class="cls-1" d="M505.49,84.71c-5.25-.75-9.3-4.89-9.84-10.19V22.87H76.48c-19.56,0-35.42,15.86-35.42,35.42v93.17c0,19.56,15.86,35.42,35.42,35.42h479.9v-102.17h-50.9Z"/>
  <g id="eUl4uw">
    <g>
      <path class="cls-2" d="M511.69,64.28c-2.68-.34-4.83-2.77-5.48-5.31.57-9.36-.8-19.71-.02-28.96.28-3.27,2.89-5.71,6.12-6.06,6.32-.69,13.72.47,20.16-.03,1.48-.26,2.13,1.9.75,2.16l-20.94.05c-2.21.25-3.94,2.35-4.1,4.49.51,8.72-.65,18.15,0,26.78.17,2.21,1.22,3.89,3.36,4.63,13.71.6,27.55.07,41.3.27,2.11-.18,3.77-1.23,4.58-3.21.7-9.07.12-18.33.3-27.47-.08-1.2,2.05-1.2,2.11-.2v27.18c-.38,2.29-3.13,5.69-5.59,5.69h-15.48c.32,3.32,3.2,3.07,5.6,3.68.84.22,1.99,1.41,2.09,2.2.04.29-.05,2.69-.11,3-.11.61-.76.7-1.29.71-7.8-.54-16.5.69-24.19,0-2.3-.21-.83-2.24-1.43-3.88.54-.99,1.23-1.9,2.4-2.17,1.52-.35,3.44-.08,4.67-1.62.19-.24.97-1.93.37-1.93h-15.18ZM536.76,64.28h-7.59c.17,2.21-1.19,4.07-3.2,4.89-1.05.43-3.18.54-3.87.92-.62.35-.59.91-.51,1.56l22.76.02c.19-2.07-.78-1.55-2.05-1.85-2.38-.57-4.73-1.38-5.41-3.98-.14-.54-.18-1.01-.14-1.56Z"/>
      <path class="cls-2" d="M555.28,29.47c-1.29,1.74-4.19,4.18-6.03,5.45-.39.27-2.28,1.18-2.4,1.39-.11.18.28,1.51.3,1.91.13,2.81-.52,4.61-3.12,5.87-1.02.49-4.98,1.87-5.93,1.58-.12-.04-1.62-1.52-1.71-1.67-.98-1.63,1.94-2.52,1.93-3.38,0-.16-.89-.87-1.07-1.09l-2.44,2.16c-1,.12-1.53-.81-1.11-1.73.22-.46,1.7-1.39,1.82-1.97.08-.37-.68-1.51-1.27-1.08-.84.6-1.56,2.91-3.2,1.83-.11-.07-1.57-1.69-1.6-1.8-.09-.34.12-1.03.21-1.41.44-1.86,1.41-5.03,2.9-6.29,1.95-1.66,4.03-1.14,6.35-.94,3.08-6,10.08-12.5,17.31-11.94.77.06,2.01.14,2.3.9.47,1.23.32,3.76.07,5.06-.41,2.13-2.03,5.42-3.33,7.16ZM556.33,22.94c.14-.85.76-3.57.31-4.21-.27-.39-3.58-.19-4.11.11-.37.2-.04.32.1.5.96,1.23,2.58,2.46,3.69,3.6ZM550.48,20.2c-.24-.21-.41-.25-.72-.16-.47.13-3.07,1.88-3.52,2.28-3.48,3.09-6.43,8.48-9.51,12.27-.17.21-.54.33-.57.44-.09.3.82,1.32,1.08,1.27.65-.12,3.88-4.19,4.93-4.67.78-.3,1.73.02,1.59.98-.1.66-3.84,4.16-4.6,4.96-.21.22-.65.1-.27.55.16.18,1.03,1.01,1.18.99,3.17-3.54,7.65-5.37,11.12-8.59,1.64-1.52,3.16-3.24,4.1-5.29-.03-.35-2.49-2.54-2.95-2.99-.58-.57-1.24-1.52-1.85-2.04ZM537.36,30.13c-.76.14-1.4-.11-2.21.09-2.1.5-3.09,4.24-3.38,6.1l1.71-1.38c.48-.71,4.2-4.23,3.88-4.81ZM543.84,41.6c1.33-1.09,1.49-2.25,1.01-3.89-2.1,1.85-4.3,3.64-6.09,5.79,1.62-.34,3.82-.87,5.08-1.9Z"/>
      <path class="cls-2" d="M511.79,30.13s.91-.38,1.09-.41l14.59.02c1.14.21.87,2.19-.19,2.19h-13.28v24.57h37.95v-20.27c0-.77,2.01-1.35,2.2.4.69,6.43-.52,14.03,0,20.58-.02.47-.23.91-.6,1.19l-40.65.2c-.39.08-1.09-.47-1.09-.8v-27.66Z"/>
      <path class="cls-2" d="M524.91,42.19c.07.05.06.27.1.28.27.12,1.77-.83,2.25-.98,3.55-1.12,7.2.92,7.68,4.72.06.48-.13,1.81-.09,1.89.19.33,1.11.45,1.43.66.38.26,1.3,1.52,1.41,1.54.46.09,2.26-.63,3.13-.6,2.04.08,4.69,1.55,5.7,3.35.48.85.89,2.56-.48,2.62-.98.04-1.26-1.32-1.7-1.89-1.03-1.33-2.76-2.08-4.44-1.85-1.01.14-1.97,1.07-2.8.91-.72-.13-1.25-1.51-1.94-2.07-2.1-1.7-4.2-.01-5.01-.58-.31-.22-.29-1.33,0-1.62.37-.36,2.03-.72,2.6-.69.78-3.81-3.91-6.27-6.48-3.18-.55.66-1.04,2.73-2.31,1.68-1.12-.93.03-1.82-.09-2.1-.36-.84-2.17-1.08-2.99-.98-1.12.14-1.63,1.03-2.26,1.15-1.02.2-1.57-.64-1.15-1.56.03-.07,1.06-1.08,1.14-1.13.1-.07.48.1.76-.16.38-.36.02-1.05-.15-1.46-.06-.15-1.22-1.51-1.41-1.65-.89-.66-3.02-.77-3-1.86.04-2.4,4-.28,4.94.57,1.07.97,1.62,2.64,1.99,4,1.09.07,2.22.36,3.14.97Z"/>
      <path class="cls-2" d="M526.79,51.29c.07.05,1.29-.21,1.68-.2,1.18.04,2.68.79,3.43,1.68.9,1.07.66,2.92-.99,2.54-.27-.06-.75-1.93-2.51-2.09s-.68.81-1.21,1.56c-.27.38-1.43.31-1.71-.07-.31-.42-.29-1.95-.66-2.73-.83-1.75-3.03-2.9-4.94-2.66-.89.11-2.72,1.73-3.39.6-.42-.7-.29-1.26.35-1.65,2.72-1.67,6.46-1.38,8.71.97.43.45,1.14,1.99,1.24,2.06Z"/>
      <path class="cls-2" d="M530.91,59.33c.62-.14,3.5-.14,4.11,0,.97.22,1.24,1.41.46,1.97-.39.28-4.12.28-4.76.14-1.21-.26-.97-1.85.2-2.11Z"/>
      <path class="cls-2" d="M551.68,27.87c-.15.16-.85.54-1.08.62-5.07,1.7-5.85-6.52-.2-5.5,2.04.37,2.54,3.49,1.28,4.89Z"/>
    </g>
  </g>
</svg>