<?xml version="1.0" encoding="UTF-8"?>
<svg id="Layer_1" data-name="Layer 1" xmlns="http://www.w3.org/2000/svg" viewBox="0 0 612 189">
  <defs>
    <style>
      .cls-1 {
        fill: #0e685b;
      }

      .cls-2 {
        fill: #00c4bb;
      }
    </style>
  </defs>
  <path class="cls-1" d="M505.49,80.6c-5.25-.75-9.3-4.89-9.84-10.19V18.76s-419.17,6.13-419.17,6.13c-19.56,0-35.42,15.86-35.42,35.42v93.17c0,19.56,15.86,29.29,35.42,29.29h479.9v-102.17h-50.9Z"/>
  <path class="cls-2" d="M548.01,53.4l-2.54-2.54c-.14-.14-.22-.34-.22-.54v-8.73c0-6.4-2.94-13.81-9.47-16.73-.49-2.96-2.93-5.27-5.91-5.46-1.78-.15-3.53.46-4.88,1.73-1.05.99-1.74,2.31-1.96,3.73-6.52,2.92-9.46,10.33-9.46,16.73v8.73c0,.2-.09.4-.23.54l-2.53,2.53c-.91.91-1.41,2.11-1.41,3.4,0,2.65,2.15,4.8,4.8,4.8h5.37c.66,4.86,4.8,8.63,9.83,8.63s9.17-3.77,9.83-8.63h5.37c2.65,0,4.8-2.15,4.8-4.8,0-1.28-.5-2.49-1.41-3.4ZM529.41,66.09c-2.75,0-5.05-1.92-5.65-4.49h11.31c-.61,2.57-2.91,4.49-5.65,4.49ZM544.62,57.45h-30.42c-.36,0-.65-.29-.65-.66,0-.18.07-.34.19-.46l2.54-2.54c.92-.92,1.44-2.18,1.44-3.47v-8.73c0-5.15,2.49-11.52,7.95-13.31l1.43-.47v-1.97c0-.63.27-1.25.73-1.68.31-.29.82-.63,1.53-.63.06,0,.13,0,.2,0,1.21.07,2.16,1.13,2.16,2.41v1.87l1.43.47c5.47,1.8,7.96,8.16,7.96,13.31v8.73c0,1.29.52,2.56,1.44,3.47l2.54,2.54h0c.13.13.19.28.19.46,0,.36-.29.66-.66.66Z"/>
</svg>