<?xml version="1.0" encoding="UTF-8"?>
<svg id="Layer_1" data-name="Layer 1" xmlns="http://www.w3.org/2000/svg" viewBox="0 0 252.73 252.96">
  <g id="_7qruHX" data-name="7qruHX">
    <path fill="currentColor" d="M199.22,22.69c81.66,56.46,67.15,184.21-25.03,220.91C79.05,281.47-18.84,198.61,3.12,98.62,22.21,11.68,124.9-28.69,199.22,22.69ZM89.49,52.36c-1.95-1.28-7.55-1.62-9.97-1.5-15.65.78-27.78,14.05-28.59,29.44-2.09,39.69,23.22,81.8,55.84,102.55,21.28,13.54,72.43,32.18,90.07,6,4.08-6.06,7.03-17.71,4.13-24.63-1.42-3.39-4.35-2.78-7-3.44-11.62-2.92-24.23-6.31-35.96-8.48-3.36-.62-6.73-1.83-9.01,1.47-1.29,1.87-5.76,12.44-6.74,12.96-.64.34-6.45-1.82-7.6-2.33-20.29-8.92-39.13-28.16-47.05-48.76-.31-.8-1.68-4.2-1.54-4.65,2.55-2.93,13.99-6.06,15.06-9.26.29-.86.28-2.05.21-2.97-1.03-13.32-8.08-29.39-9.6-43.05-.18-1.01-1.45-2.81-2.26-3.34Z"/>
  </g>
</svg>
