<?xml version="1.0" encoding="UTF-8"?>
<svg version="1.1" xmlns="http://www.w3.org/2000/svg" width="1730" height="374">
<path d="M0 0 C570.9 0 1141.8 0 1730 0 C1730 123.42 1730 246.84 1730 374 C1159.1 374 588.2 374 0 374 C0 250.58 0 127.16 0 0 Z " fill="#0E685B" transform="translate(0,0)"/>
<path d="M0 0 C570.9 0 1141.8 0 1730 0 C1730 123.42 1730 246.84 1730 374 C1159.1 374 588.2 374 0 374 C0 250.58 0 127.16 0 0 Z M49 8 C48.25878187 8.26439376 47.51756374 8.52878753 46.75388446 8.80119322 C37.16349497 12.58691358 30.05821843 18.73672629 23 26 C22.38382813 26.63035156 21.76765625 27.26070312 21.1328125 27.91015625 C9.84651078 40.27830554 4.84958415 56.39884888 4.85282898 72.87741089 C4.84915229 73.87973696 4.8454756 74.88206303 4.8416875 75.91476262 C4.83066358 79.27765292 4.82680895 82.64051231 4.82299805 86.00341797 C4.81673228 88.4132853 4.81008537 90.82315166 4.80308533 93.23301697 C4.78386754 100.46873832 4.77325708 107.7044571 4.76435754 114.94019622 C4.75996851 118.35321975 4.75460318 121.76624175 4.74936867 125.17926407 C4.73235701 136.53546514 4.71786591 147.89166527 4.71061993 159.24787712 C4.70871023 162.1929207 4.70678987 165.13796427 4.70483398 168.08300781 C4.70435024 168.8149275 4.7038665 169.54684718 4.7033681 170.30094625 C4.69507927 182.14045317 4.66976154 193.97985868 4.63725331 205.81932138 C4.60410142 217.9931777 4.58616372 230.16698265 4.58297569 242.34088433 C4.58081776 249.16848104 4.57217526 255.99593 4.54651451 262.82348251 C4.52240251 269.25360479 4.51903262 275.68353413 4.52927589 282.11369514 C4.52976948 284.46496654 4.52350176 286.81625132 4.50971985 289.16748238 C4.38448811 311.81211442 7.74950623 330.63510827 23.2734375 348.24609375 C38.21548094 363.33798577 55.82985754 369.26333872 76.54874833 369.39881096 C79.85642565 369.40399599 83.16388899 369.3944513 86.4715538 369.38476086 C88.88792996 369.38869031 91.30430427 369.3939329 93.72067505 369.40036663 C98.98402783 369.41136287 104.24726185 369.41307783 109.51061329 369.40660437 C117.39305097 369.39697007 125.27540742 369.40471945 133.15783981 369.41580265 C146.60046742 369.43420263 160.04306617 369.43844572 173.48570442 369.43499184 C187.11341601 369.43154854 200.74110287 369.43464905 214.36881065 369.44572449 C215.23003558 369.4464205 216.0912605 369.44711652 216.97858316 369.44783363 C221.37076601 369.45141322 225.76294876 369.45509884 230.15513149 369.45882157 C261.98514162 369.48558039 293.81514415 369.49781032 325.64516449 369.50238609 C357.30850538 369.50698007 388.97183435 369.51779583 420.63516998 369.53681374 C422.11471895 369.53769809 422.11471895 369.53769809 423.6241578 369.53860032 C432.63742813 369.54399051 441.65069842 369.54945493 450.66396866 369.55500887 C473.08747791 369.56882429 495.51098765 369.58167835 517.93449783 369.59387684 C519.46690737 369.59471159 519.46690737 369.59471159 521.03027468 369.59556321 C570.77522617 369.62257597 620.52018042 369.63850637 670.26513672 369.65356445 C687.51271569 369.65879113 704.76029464 369.66406832 722.00787354 369.66955566 C723.61049058 369.67006551 723.61049058 369.67006551 725.24548373 369.67058566 C774.4827515 369.68631872 823.72001442 369.71003114 872.9572778 369.73587859 C876.13828799 369.73754837 879.31929818 369.73921482 882.50030838 369.74088058 C901.50423176 369.75083667 920.5081551 369.76087862 939.51207839 369.77101372 C985.16904215 369.7953562 1030.82600647 369.81854524 1076.48297119 369.84101868 C1077.99737722 369.84176444 1077.99737722 369.84176444 1079.54237731 369.84252527 C1141.43415443 369.87298833 1203.32593234 369.90070799 1265.2177124 369.92448425 C1266.61163017 369.92502009 1266.61163017 369.92502009 1268.03370789 369.92556676 C1310.18519994 369.94174974 1352.33669218 369.95627638 1394.48818588 369.96741772 C1396.18828364 369.96786876 1397.88838139 369.96831985 1399.58847914 369.96877097 C1414.52090582 369.97272638 1429.45333251 369.97662499 1444.38575926 369.98027844 C1480.91362465 369.98923763 1517.44148063 370.00239905 1553.96933959 370.02615714 C1556.78361899 370.02798613 1559.5978984 370.02981251 1562.4121778 370.03163618 C1563.10214384 370.0320842 1563.79210987 370.03253221 1564.50298397 370.03299381 C1582.15835019 370.04440695 1599.81371794 370.05229467 1617.46908642 370.05932904 C1630.43130691 370.06464377 1643.3935184 370.07285365 1656.35573412 370.08520837 C1664.83646624 370.09304533 1673.31719522 370.09742072 1681.79793084 370.09880658 C1686.58169477 370.09970129 1691.36544311 370.10222954 1696.14920241 370.10917355 C1700.45328605 370.11540823 1704.7573459 370.11718875 1709.06143338 370.11517563 C1710.61061029 370.1152729 1712.15978816 370.11708773 1713.70896078 370.12073123 C1715.7888822 370.12539359 1717.86871024 370.12403289 1719.94863248 370.1210168 C1721.10260328 370.12179146 1722.25657407 370.12256612 1723.44551368 370.12336426 C1725.93402793 370.29003039 1725.93402793 370.29003039 1727 369 C1727.10000236 366.40989093 1727.13440704 363.84638121 1727.12698364 361.2557373 C1727.12854363 360.43479442 1727.13010362 359.61385154 1727.13171089 358.7680316 C1727.13572435 355.99572718 1727.13252991 353.22347677 1727.12939453 350.45117188 C1727.13074842 348.47237618 1727.13252828 346.49358073 1727.13470459 344.51478577 C1727.13928041 339.12444763 1727.13748875 333.73412854 1727.1343255 328.34379005 C1727.13180267 322.7161313 1727.13413923 317.08847424 1727.13571167 311.46081543 C1727.13753359 302.00821641 1727.13512647 292.55562518 1727.13037109 283.10302734 C1727.12492843 272.1575106 1727.12669107 261.21201248 1727.1321975 250.26649618 C1727.13672799 240.88734321 1727.13737949 231.50819586 1727.13475883 222.12904215 C1727.1331957 216.51920675 1727.13300326 210.90938013 1727.13629532 205.29954529 C1727.13917311 200.02685609 1727.13720005 194.75419102 1727.13140106 189.48150444 C1727.13007297 187.54040505 1727.13046841 185.59930364 1727.13266373 183.65820503 C1727.1353733 181.02019635 1727.13199649 178.38226629 1727.12698364 175.7442627 C1727.12921436 174.96577705 1727.13144509 174.1872914 1727.13374341 173.38521528 C1727.43867582 169.90127721 1727.43867582 169.90127721 1726 167 C1724.17045315 166.90006257 1722.33701846 166.87090636 1720.50474548 166.86869812 C1719.31170807 166.86468994 1718.11867065 166.86068176 1716.88948059 166.85655212 C1715.55514524 166.85702729 1714.22080991 166.85756341 1712.88647461 166.8581543 C1711.49045705 166.8551243 1710.09444048 166.85160329 1708.69842529 166.84762573 C1705.68420742 166.83972145 1702.67000147 166.83458596 1699.65577507 166.83133507 C1694.8857599 166.82543322 1690.11581969 166.80889875 1685.34584045 166.78999329 C1683.71345048 166.78365525 1682.08106046 166.77732964 1680.44867039 166.77101612 C1679.6309321 166.76785031 1678.81319382 166.7646845 1677.97067559 166.76142275 C1666.86205574 166.71934449 1655.75346956 166.68639419 1644.64477539 166.67407227 C1637.15767483 166.665682 1629.67075858 166.6431513 1622.18375021 166.6047166 C1618.2218565 166.58497984 1614.26023816 166.57254317 1610.29829216 166.57755089 C1606.56597776 166.58221037 1602.834184 166.56832177 1599.10197449 166.54053879 C1597.08774594 166.53037475 1595.07344786 166.5398587 1593.05921936 166.55003357 C1584.38810682 166.4608923 1579.13686814 165.29069057 1572.25 159.8125 C1565.77884464 151.7235558 1565.41543791 143.86013826 1565.45410156 133.75952148 C1565.44535273 132.33948136 1565.4348624 130.91945106 1565.42277527 129.49943542 C1565.39505455 125.66943265 1565.39150747 121.83975375 1565.39249516 118.00966525 C1565.38935399 113.99774956 1565.36371087 109.98597718 1565.34051514 105.97413635 C1565.30004342 98.38833772 1565.27963527 90.80262486 1565.26654124 83.21673495 C1565.25064119 74.57574334 1565.21221299 65.93489708 1565.17194796 57.29399002 C1565.08966994 39.52937271 1565.03550237 21.7647693 1565 4 C1519.15030962 3.97800699 1473.30061885 3.9569193 1427.45092773 3.93652344 C1426.55372801 3.93612425 1425.65652828 3.93572506 1424.73214069 3.93531377 C1328.59910364 3.89256596 1232.46606646 3.85567319 1136.33302307 3.83062744 C1134.19772489 3.83006964 1132.06242672 3.82951183 1129.92712854 3.82895402 C1085.10696399 3.81726336 1040.28679926 3.80639649 995.46663428 3.79648129 C972.95208489 3.7914997 950.43753555 3.7863598 927.92298624 3.78107023 C924.52674487 3.78027324 921.13050351 3.77948077 917.73426214 3.77868848 C865.43502127 3.7664481 813.13578411 3.75081203 760.83654785 3.7253418 C759.71201074 3.7247942 758.58747363 3.72424661 757.42885964 3.72368242 C739.29791533 3.7148329 721.16697115 3.70569847 703.03602699 3.69652624 C650.81526641 3.6701127 598.5945087 3.6458048 546.3737421 3.63544083 C545.29992872 3.63522669 544.22611533 3.63501255 543.11976215 3.63479192 C519.54730229 3.63012893 495.9748424 3.62654948 472.40238223 3.62399607 C462.9177051 3.62294958 453.433028 3.6217471 443.94835091 3.62049103 C442.91029251 3.62035732 441.87223412 3.62022361 440.8027194 3.62008585 C407.3529657 3.6156997 373.90323327 3.59861416 340.45348816 3.57487117 C306.75985913 3.55101317 273.06625075 3.53960273 239.37261306 3.54550405 C234.71680268 3.54631637 230.0609923 3.5469859 225.40518188 3.54756927 C224.49250809 3.5476888 223.57983429 3.54780832 222.63950372 3.54793146 C208.18610371 3.54945424 193.73274736 3.53751461 179.27935925 3.51996055 C165.06799976 3.50297702 150.85669688 3.50024294 136.64533204 3.51267275 C128.31316451 3.51953047 119.9811765 3.51544551 111.64902991 3.49513199 C105.46240098 3.48127234 99.27596066 3.4883005 93.08933842 3.5034401 C90.60257462 3.50629749 88.11579175 3.50244453 85.62905238 3.49105902 C72.81266996 3.43609906 61.15860371 3.61387173 49 8 Z " fill="#FFD420" transform="translate(0,0)"/>
<path d="M0 0 C517.77 0 1035.54 0 1569 0 C1569.33 48.84 1569.66 97.68 1570 148 C1572.89595117 154.81874915 1572.89595117 154.81874915 1577.5625 158.9375 C1578.14128906 159.31777344 1578.72007813 159.69804687 1579.31640625 160.08984375 C1582.90288845 162.02870768 1585.90476589 162.13419173 1589.90348816 162.15821838 C1591.748527 162.17287942 1591.748527 162.17287942 1593.63083935 162.18783665 C1595.0015325 162.19375103 1596.37222605 162.19957619 1597.74291992 162.20532227 C1599.2050851 162.2150371 1600.66724748 162.22518254 1602.12940693 162.23572445 C1606.04918747 162.26279361 1609.96897922 162.28395985 1613.88880157 162.30391693 C1617.56541828 162.32352622 1621.24199149 162.34844092 1624.9185791 162.3729248 C1635.67485337 162.44145599 1646.43118064 162.50145521 1657.1875 162.5625 C1681.215625 162.706875 1705.24375 162.85125 1730 163 C1730 232.63 1730 302.26 1730 374 C1159.1 374 588.2 374 0 374 C0 250.58 0 127.16 0 0 Z M49 8 C48.25878187 8.26439376 47.51756374 8.52878753 46.75388446 8.80119322 C37.16349497 12.58691358 30.05821843 18.73672629 23 26 C22.38382813 26.63035156 21.76765625 27.26070312 21.1328125 27.91015625 C9.84651078 40.27830554 4.84958415 56.39884888 4.85282898 72.87741089 C4.84915229 73.87973696 4.8454756 74.88206303 4.8416875 75.91476262 C4.83066358 79.27765292 4.82680895 82.64051231 4.82299805 86.00341797 C4.81673228 88.4132853 4.81008537 90.82315166 4.80308533 93.23301697 C4.78386754 100.46873832 4.77325708 107.7044571 4.76435754 114.94019622 C4.75996851 118.35321975 4.75460318 121.76624175 4.74936867 125.17926407 C4.73235701 136.53546514 4.71786591 147.89166527 4.71061993 159.24787712 C4.70871023 162.1929207 4.70678987 165.13796427 4.70483398 168.08300781 C4.70435024 168.8149275 4.7038665 169.54684718 4.7033681 170.30094625 C4.69507927 182.14045317 4.66976154 193.97985868 4.63725331 205.81932138 C4.60410142 217.9931777 4.58616372 230.16698265 4.58297569 242.34088433 C4.58081776 249.16848104 4.57217526 255.99593 4.54651451 262.82348251 C4.52240251 269.25360479 4.51903262 275.68353413 4.52927589 282.11369514 C4.52976948 284.46496654 4.52350176 286.81625132 4.50971985 289.16748238 C4.38448811 311.81211442 7.74950623 330.63510827 23.2734375 348.24609375 C38.21548094 363.33798577 55.82985754 369.26333872 76.54874833 369.39881096 C79.85642565 369.40399599 83.16388899 369.3944513 86.4715538 369.38476086 C88.88792996 369.38869031 91.30430427 369.3939329 93.72067505 369.40036663 C98.98402783 369.41136287 104.24726185 369.41307783 109.51061329 369.40660437 C117.39305097 369.39697007 125.27540742 369.40471945 133.15783981 369.41580265 C146.60046742 369.43420263 160.04306617 369.43844572 173.48570442 369.43499184 C187.11341601 369.43154854 200.74110287 369.43464905 214.36881065 369.44572449 C215.23003558 369.4464205 216.0912605 369.44711652 216.97858316 369.44783363 C221.37076601 369.45141322 225.76294876 369.45509884 230.15513149 369.45882157 C261.98514162 369.48558039 293.81514415 369.49781032 325.64516449 369.50238609 C357.30850538 369.50698007 388.97183435 369.51779583 420.63516998 369.53681374 C422.11471895 369.53769809 422.11471895 369.53769809 423.6241578 369.53860032 C432.63742813 369.54399051 441.65069842 369.54945493 450.66396866 369.55500887 C473.08747791 369.56882429 495.51098765 369.58167835 517.93449783 369.59387684 C519.46690737 369.59471159 519.46690737 369.59471159 521.03027468 369.59556321 C570.77522617 369.62257597 620.52018042 369.63850637 670.26513672 369.65356445 C687.51271569 369.65879113 704.76029464 369.66406832 722.00787354 369.66955566 C723.61049058 369.67006551 723.61049058 369.67006551 725.24548373 369.67058566 C774.4827515 369.68631872 823.72001442 369.71003114 872.9572778 369.73587859 C876.13828799 369.73754837 879.31929818 369.73921482 882.50030838 369.74088058 C901.50423176 369.75083667 920.5081551 369.76087862 939.51207839 369.77101372 C985.16904215 369.7953562 1030.82600647 369.81854524 1076.48297119 369.84101868 C1077.99737722 369.84176444 1077.99737722 369.84176444 1079.54237731 369.84252527 C1141.43415443 369.87298833 1203.32593234 369.90070799 1265.2177124 369.92448425 C1266.61163017 369.92502009 1266.61163017 369.92502009 1268.03370789 369.92556676 C1310.18519994 369.94174974 1352.33669218 369.95627638 1394.48818588 369.96741772 C1396.18828364 369.96786876 1397.88838139 369.96831985 1399.58847914 369.96877097 C1414.52090582 369.97272638 1429.45333251 369.97662499 1444.38575926 369.98027844 C1480.91362465 369.98923763 1517.44148063 370.00239905 1553.96933959 370.02615714 C1556.78361899 370.02798613 1559.5978984 370.02981251 1562.4121778 370.03163618 C1563.10214384 370.0320842 1563.79210987 370.03253221 1564.50298397 370.03299381 C1582.15835019 370.04440695 1599.81371794 370.05229467 1617.46908642 370.05932904 C1630.43130691 370.06464377 1643.3935184 370.07285365 1656.35573412 370.08520837 C1664.83646624 370.09304533 1673.31719522 370.09742072 1681.79793084 370.09880658 C1686.58169477 370.09970129 1691.36544311 370.10222954 1696.14920241 370.10917355 C1700.45328605 370.11540823 1704.7573459 370.11718875 1709.06143338 370.11517563 C1710.61061029 370.1152729 1712.15978816 370.11708773 1713.70896078 370.12073123 C1715.7888822 370.12539359 1717.86871024 370.12403289 1719.94863248 370.1210168 C1721.10260328 370.12179146 1722.25657407 370.12256612 1723.44551368 370.12336426 C1725.93402793 370.29003039 1725.93402793 370.29003039 1727 369 C1727.10000236 366.40989093 1727.13440704 363.84638121 1727.12698364 361.2557373 C1727.12854363 360.43479442 1727.13010362 359.61385154 1727.13171089 358.7680316 C1727.13572435 355.99572718 1727.13252991 353.22347677 1727.12939453 350.45117188 C1727.13074842 348.47237618 1727.13252828 346.49358073 1727.13470459 344.51478577 C1727.13928041 339.12444763 1727.13748875 333.73412854 1727.1343255 328.34379005 C1727.13180267 322.7161313 1727.13413923 317.08847424 1727.13571167 311.46081543 C1727.13753359 302.00821641 1727.13512647 292.55562518 1727.13037109 283.10302734 C1727.12492843 272.1575106 1727.12669107 261.21201248 1727.1321975 250.26649618 C1727.13672799 240.88734321 1727.13737949 231.50819586 1727.13475883 222.12904215 C1727.1331957 216.51920675 1727.13300326 210.90938013 1727.13629532 205.29954529 C1727.13917311 200.02685609 1727.13720005 194.75419102 1727.13140106 189.48150444 C1727.13007297 187.54040505 1727.13046841 185.59930364 1727.13266373 183.65820503 C1727.1353733 181.02019635 1727.13199649 178.38226629 1727.12698364 175.7442627 C1727.12921436 174.96577705 1727.13144509 174.1872914 1727.13374341 173.38521528 C1727.43867582 169.90127721 1727.43867582 169.90127721 1726 167 C1724.17045315 166.90006257 1722.33701846 166.87090636 1720.50474548 166.86869812 C1719.31170807 166.86468994 1718.11867065 166.86068176 1716.88948059 166.85655212 C1715.55514524 166.85702729 1714.22080991 166.85756341 1712.88647461 166.8581543 C1711.49045705 166.8551243 1710.09444048 166.85160329 1708.69842529 166.84762573 C1705.68420742 166.83972145 1702.67000147 166.83458596 1699.65577507 166.83133507 C1694.8857599 166.82543322 1690.11581969 166.80889875 1685.34584045 166.78999329 C1683.71345048 166.78365525 1682.08106046 166.77732964 1680.44867039 166.77101612 C1679.6309321 166.76785031 1678.81319382 166.7646845 1677.97067559 166.76142275 C1666.86205574 166.71934449 1655.75346956 166.68639419 1644.64477539 166.67407227 C1637.15767483 166.665682 1629.67075858 166.6431513 1622.18375021 166.6047166 C1618.2218565 166.58497984 1614.26023816 166.57254317 1610.29829216 166.57755089 C1606.56597776 166.58221037 1602.834184 166.56832177 1599.10197449 166.54053879 C1597.08774594 166.53037475 1595.07344786 166.5398587 1593.05921936 166.55003357 C1584.38810682 166.4608923 1579.13686814 165.29069057 1572.25 159.8125 C1565.77884464 151.7235558 1565.41543791 143.86013826 1565.45410156 133.75952148 C1565.44535273 132.33948136 1565.4348624 130.91945106 1565.42277527 129.49943542 C1565.39505455 125.66943265 1565.39150747 121.83975375 1565.39249516 118.00966525 C1565.38935399 113.99774956 1565.36371087 109.98597718 1565.34051514 105.97413635 C1565.30004342 98.38833772 1565.27963527 90.80262486 1565.26654124 83.21673495 C1565.25064119 74.57574334 1565.21221299 65.93489708 1565.17194796 57.29399002 C1565.08966994 39.52937271 1565.03550237 21.7647693 1565 4 C1519.15030962 3.97800699 1473.30061885 3.9569193 1427.45092773 3.93652344 C1426.55372801 3.93612425 1425.65652828 3.93572506 1424.73214069 3.93531377 C1328.59910364 3.89256596 1232.46606646 3.85567319 1136.33302307 3.83062744 C1134.19772489 3.83006964 1132.06242672 3.82951183 1129.92712854 3.82895402 C1085.10696399 3.81726336 1040.28679926 3.80639649 995.46663428 3.79648129 C972.95208489 3.7914997 950.43753555 3.7863598 927.92298624 3.78107023 C924.52674487 3.78027324 921.13050351 3.77948077 917.73426214 3.77868848 C865.43502127 3.7664481 813.13578411 3.75081203 760.83654785 3.7253418 C759.71201074 3.7247942 758.58747363 3.72424661 757.42885964 3.72368242 C739.29791533 3.7148329 721.16697115 3.70569847 703.03602699 3.69652624 C650.81526641 3.6701127 598.5945087 3.6458048 546.3737421 3.63544083 C545.29992872 3.63522669 544.22611533 3.63501255 543.11976215 3.63479192 C519.54730229 3.63012893 495.9748424 3.62654948 472.40238223 3.62399607 C462.9177051 3.62294958 453.433028 3.6217471 443.94835091 3.62049103 C442.91029251 3.62035732 441.87223412 3.62022361 440.8027194 3.62008585 C407.3529657 3.6156997 373.90323327 3.59861416 340.45348816 3.57487117 C306.75985913 3.55101317 273.06625075 3.53960273 239.37261306 3.54550405 C234.71680268 3.54631637 230.0609923 3.5469859 225.40518188 3.54756927 C224.49250809 3.5476888 223.57983429 3.54780832 222.63950372 3.54793146 C208.18610371 3.54945424 193.73274736 3.53751461 179.27935925 3.51996055 C165.06799976 3.50297702 150.85669688 3.50024294 136.64533204 3.51267275 C128.31316451 3.51953047 119.9811765 3.51544551 111.64902991 3.49513199 C105.46240098 3.48127234 99.27596066 3.4883005 93.08933842 3.5034401 C90.60257462 3.50629749 88.11579175 3.50244453 85.62905238 3.49105902 C72.81266996 3.43609906 61.15860371 3.61387173 49 8 Z " fill="#62C2A7" transform="translate(0,0)"/>
<path d="M0 0 C53.13 0 106.26 0 161 0 C161 53.79 161 107.58 161 163 C137.075 163.0825 113.15 163.165 88.5 163.25 C80.95060547 163.28641602 73.40121094 163.32283203 65.62304688 163.36035156 C56.39160156 163.37841797 56.39160156 163.37841797 52.06750488 163.3817749 C49.05273623 163.38549578 46.03825041 163.40046228 43.02355957 163.42230225 C39.17271743 163.44982827 35.32228397 163.45794833 31.47135258 163.4522891 C30.06146486 163.4534717 28.65156221 163.46135113 27.2417593 163.47686052 C19.38852742 163.55921017 13.67492207 163.33158229 7 159 C4.94140625 156.96484375 4.94140625 156.96484375 3.5625 154.9375 C2.85287109 153.93009766 2.85287109 153.93009766 2.12890625 152.90234375 C-0.0503764 149.22998855 -0.12379182 146.19813699 -0.12025452 142.02058411 C-0.12163201 140.77376515 -0.12300951 139.5269462 -0.12442875 138.24234486 C-0.12088193 136.85272512 -0.11724403 135.46310561 -0.11352539 134.07348633 C-0.1132191 132.5912994 -0.11335246 131.10911233 -0.11389065 129.62692547 C-0.11411666 125.65324626 -0.10831556 121.6795971 -0.10128021 117.70592499 C-0.09559054 113.97887577 -0.09531738 110.25183391 -0.09460449 106.52478027 C-0.08935457 95.62068286 -0.07539345 84.71659105 -0.0625 73.8125 C-0.041875 49.454375 -0.02125 25.09625 0 0 Z M22.2578125 5.53515625 C19.22047678 9.63032268 17.877522 11.69823022 17.85282898 16.75579834 C17.84567368 17.7595752 17.83851837 18.76335205 17.83114624 19.79754639 C17.82845734 20.90301819 17.82576843 22.00848999 17.82299805 23.14746094 C17.81642685 24.3085437 17.80985565 25.46962646 17.80308533 26.66589355 C17.78331666 30.52205463 17.77168181 34.3781767 17.76171875 38.234375 C17.75764322 39.54895943 17.7535677 40.86354385 17.74936867 42.21796417 C17.73031449 48.45754163 17.71608499 54.69710725 17.7077567 60.93670821 C17.6979885 68.13611149 17.67168126 75.33520696 17.63125581 82.53450179 C17.60107526 88.10062219 17.58628593 93.66665446 17.58297569 99.23285508 C17.58062698 102.55647453 17.56971419 105.87969035 17.54651451 109.20323944 C17.52222159 112.91406367 17.52307068 116.62408188 17.5300293 120.33496094 C17.51721924 121.43233582 17.50440918 122.52971069 17.49121094 123.66033936 C17.53302737 129.77311875 17.90324542 133.35589861 22 138 C26.15348161 141.74826389 29.11539389 143.11872504 34.67277527 143.14717102 C36.11306091 143.15790398 36.11306091 143.15790398 37.58244324 143.16885376 C38.63442398 143.17154266 39.68640472 143.17423157 40.77026367 143.17700195 C42.4341362 143.18685875 42.4341362 143.18685875 44.13162231 143.19691467 C47.81040512 143.21665954 51.48914707 143.2283134 55.16796875 143.23828125 C56.42397699 143.24235678 57.67998524 143.2464323 58.97405434 143.25063133 C64.93705447 143.26934578 70.90004162 143.2839097 76.86306399 143.2922433 C83.73417108 143.30200571 90.60495517 143.32830022 97.47594851 143.36874419 C103.43624788 143.40261679 109.39646872 143.41439446 115.35686684 143.41844749 C117.88737489 143.42331699 120.41787941 143.43494119 122.9483242 143.45348549 C126.49339815 143.47784909 130.03763151 143.47691631 133.58276367 143.4699707 C134.62462326 143.48278076 135.66648285 143.49559082 136.73991394 143.50878906 C142.93460237 143.46463917 147.89817249 142.72206857 153 139 C156.56936397 134.5154145 158.11832932 130.97372149 158.14717102 125.28926086 C158.15432632 124.32065628 158.16148163 123.3520517 158.16885376 122.35409546 C158.17154266 121.29276398 158.17423157 120.2314325 158.17700195 119.13793945 C158.18685875 117.45943657 158.18685875 117.45943657 158.19691467 115.74702454 C158.21666008 112.03577612 158.2283135 108.3245682 158.23828125 104.61328125 C158.24235678 103.34624044 158.2464323 102.07919964 158.25063133 100.77376366 C158.26934594 94.75843364 158.28390981 88.74312818 158.2922433 82.72777683 C158.30200592 75.79611047 158.32830093 68.86476428 158.36874419 61.93321067 C158.4026153 55.92056147 158.4143943 49.90806692 158.41844749 43.89531517 C158.42331723 41.34247861 158.43494214 38.78964557 158.45348549 36.23687172 C158.47784688 32.66066698 158.4769167 29.08529561 158.4699707 25.5090332 C158.48278076 24.45782288 158.49559082 23.40661255 158.50878906 22.32354736 C158.46486494 16.10731286 157.74148211 11.11800639 154 6 C149.54351414 2.45300105 146.01140515 0.87984676 140.35845947 0.85955811 C139.40523804 0.85384796 138.4520166 0.84813782 137.46990967 0.84225464 C135.90360809 0.84057785 135.90360809 0.84057785 134.30566406 0.83886719 C133.20456299 0.83390228 132.10346191 0.82893738 130.96899414 0.82382202 C127.31786478 0.80918957 123.66677889 0.80239624 120.015625 0.796875 C117.48077391 0.79112404 114.94592284 0.7853663 112.41107178 0.77960205 C107.77162795 0.770433 103.13219719 0.76413422 98.49274659 0.7611053 C91.67375823 0.75662856 84.85497072 0.7390979 78.03604341 0.7101047 C72.12272096 0.68583873 66.20944825 0.67815876 60.29607391 0.67642975 C57.7842881 0.67340351 55.27250313 0.66537598 52.76074982 0.65224457 C49.24431693 0.63517447 45.72837167 0.63706711 42.21191406 0.64355469 C40.65775787 0.62973251 40.65775787 0.62973251 39.07220459 0.6156311 C32.65407461 0.65269022 27.27821804 1.11134599 22.2578125 5.53515625 Z " fill="#FFFFFF" transform="translate(1569,0)"/>
<path d="M0 0 C5.35264303 3.86339961 8.29030419 9.10470002 9.9375 15.3984375 C10.20853898 19.2412481 10.17021544 23.07119722 10.1328125 26.921875 C10.1299826 28.02318756 10.12715271 29.12450012 10.12423706 30.25918579 C10.11307478 33.76404858 10.08797711 37.26865242 10.0625 40.7734375 C10.05246511 43.15494422 10.04334015 45.53645495 10.03515625 47.91796875 C10.01314832 53.74489089 9.97864537 59.57162034 9.9375 65.3984375 C3.6675 65.3984375 -2.6025 65.3984375 -9.0625 65.3984375 C-9.09988281 62.59214844 -9.13726563 59.78585938 -9.17578125 56.89453125 C-9.22206291 54.16064903 -9.27327237 51.42690013 -9.32495117 48.69311523 C-9.35809607 46.80094583 -9.38616017 44.90868004 -9.40893555 43.01635742 C-9.44267421 40.28783296 -9.49499865 37.5601835 -9.55078125 34.83203125 C-9.55717117 33.99320908 -9.5635611 33.1543869 -9.57014465 32.29014587 C-9.70212307 26.95410166 -10.49192346 23.11160342 -13.0625 18.3984375 C-17.51026246 15.43326253 -21.84771883 15.63604259 -27.0625 16.3984375 C-30.47561667 18.92414383 -31.72887768 20.39757054 -33.0625 24.3984375 C-33.17515547 25.76359064 -33.23832586 27.13320962 -33.26782227 28.50268555 C-33.28776749 29.32330978 -33.30771271 30.14393402 -33.32826233 30.98942566 C-33.35333107 32.3114373 -33.35333107 32.3114373 -33.37890625 33.66015625 C-33.39968735 34.56594925 -33.42046844 35.47174225 -33.44187927 36.40498352 C-33.50726558 39.29855766 -33.56620904 42.19222257 -33.625 45.0859375 C-33.6681956 47.04753543 -33.71181023 49.00912418 -33.75585938 50.97070312 C-33.86372443 55.77985624 -33.96287907 60.58907823 -34.0625 65.3984375 C-40.3325 65.3984375 -46.6025 65.3984375 -53.0625 65.3984375 C-53.0625 43.6184375 -53.0625 21.8384375 -53.0625 -0.6015625 C-46.7925 -0.6015625 -40.5225 -0.6015625 -34.0625 -0.6015625 C-33.7325 2.0384375 -33.4025 4.6784375 -33.0625 7.3984375 C-32.4025 6.4909375 -31.7425 5.5834375 -31.0625 4.6484375 C-23.34833498 -4.39427817 -10.34856894 -5.36451552 0 0 Z " fill="#FFFFFF" transform="translate(1696.0625,56.6015625)"/>
<path d="M0 0 C20.46 0 40.92 0 62 0 C62 0.33 62 0.66 62 1 C61.07960937 1.20753906 60.15921875 1.41507812 59.2109375 1.62890625 C44.92441851 5.10597146 33.55738261 10.44261739 23 21 C22.30390625 21.61359375 21.6078125 22.2271875 20.890625 22.859375 C9.15076329 33.50715655 2.5076665 49.87887662 1.54512024 65.54621315 C1.30494143 72.0185612 1.34585919 78.48856734 1.38476562 84.96411133 C1.38125787 87.43973164 1.37559195 89.91534969 1.36795044 92.39096069 C1.35525535 98.37594296 1.36553816 104.36046957 1.38706368 110.34539244 C1.41125473 117.33154103 1.40934844 124.31761401 1.40675777 131.30379518 C1.40308057 143.77478499 1.42378414 156.24561458 1.45800781 168.71655273 C1.49112648 180.78951054 1.50525855 192.86230042 1.49902344 204.93530273 C1.49224624 218.12256061 1.49475458 231.30974852 1.51438284 244.4969961 C1.51542232 245.19541064 1.51646181 245.89382518 1.5175328 246.61340379 C1.5196235 248.01567533 1.52173447 249.41794683 1.52386597 250.8202183 C1.53073376 255.67891158 1.53143558 260.53758318 1.52998352 265.39628029 C1.5283864 271.94230143 1.54339092 278.48815079 1.56921005 285.0341301 C1.57634694 287.43019202 1.57846748 289.82627518 1.57509232 292.22234535 C1.55834338 306.91976667 1.74075601 319.82788019 8.6875 333.125 C9.03635254 333.80312744 9.38520508 334.48125488 9.74462891 335.17993164 C18.47788697 351.64841715 32.34061165 363.08716386 49.7578125 369.3515625 C56.14890096 371.2702694 62.34560457 372.54107618 69 373 C69 373.33 69 373.66 69 374 C46.23 374 23.46 374 0 374 C0 250.58 0 127.16 0 0 Z " fill="#FEFEFE" transform="translate(0,0)"/>
<path d="M0 0 C6.6 0 13.2 0 20 0 C20 21.78 20 43.56 20 66 C13.4 66 6.8 66 0 66 C0 44.22 0 22.44 0 0 Z " fill="#FFFFFF" transform="translate(1609,56)"/>
<path d="M0 0 C3.6578218 2.03993908 5.66946174 3.50419262 8 7 C8.67697143 10.7411579 8.82922523 14.43405275 7.01953125 17.8515625 C4.78487491 20.64316396 2.48339391 23.07792514 -1 24 C-6.26631826 23.80849752 -9.30941082 22.79603459 -13 19 C-14.82063934 15.93801565 -15.00264709 14.14558973 -14.9375 10.5625 C-13.75482633 6.06834005 -12.26775963 4.26775963 -9 1 C-5.64870516 -0.11709828 -3.51689744 -0.34479387 0 0 Z " fill="#FFFFFF" transform="translate(1622,22)"/>
</svg>
