<?xml version="1.0" encoding="UTF-8"?>
<svg id="Layer_1" data-name="Layer 1" xmlns="http://www.w3.org/2000/svg" viewBox="0 0 296.76 296.52">
  <g id="hC8RBG">
    <g>
      <path fill="currentColor" d="M263.49,55.12c80.73,100.31,4.83,247.39-123.16,241.22C45.6,291.77-20.24,198.53,5.69,107.3,38.34-7.58,188.23-38.4,263.49,55.12ZM221.96,220.62c63.64-60.3,27.89-168.71-59.35-178.45C85.83,33.59,26.8,108.84,53.41,181.55c1.64,4.49,6.96,12.76,6.97,16.63,0,3.46-4,17.11-5.16,21.46-2.75,10.29-6.6,20.31-8.77,30.77,17.75-4.09,35.35-8.86,52.84-13.93,7.11,1.92,13.56,5.54,20.7,7.72,35.92,10.93,74.76,2.19,101.97-23.58Z"/>
      <path fill="currentColor" d="M142.34,58.57c45.56-3.85,89.28,29.68,94.31,75.61,6.96,63.55-50.26,112.54-112.17,93.45-7.8-2.4-14.03-6.73-21.58-9.23l-28.54,7.73c-1.7.2-3.27.54-3.05-1.81.81-8.42,8.1-21.68,7.15-29.77-.56-4.74-6.75-13.7-8.76-19.01-19.74-52.21,16.88-112.25,72.63-116.96ZM176.52,161.9c-4.23,4.89-3.62,7.94-11.27,5.04-8.3-3.14-19.25-11.67-25.22-18.26-2.58-2.84-9.69-11.8-10.14-15.28-.69-5.31,8.37-7.2,8.39-14.33,0-3.51-6.29-19.02-8.27-22.58-3.76-6.75-13.83-6.58-18.97-1.6-23.74,22.99,7.88,62.43,27.26,77.25,15.45,11.83,47.9,29.16,65.44,13.64,4.03-3.57,9.85-14.65,6.1-19.36-3.17-3.98-19.22-9-24.26-12.01-3.57-.47-6.88,4.96-9.06,7.47Z"/>
    </g>
  </g>
</svg>
